<svg xmlns="http://www.w3.org/2000/svg">
<defs>
<font id="UTMFancyFull" horiz-adv-x="1583" >
  <font-face 
    font-family="UTM Fancy Full"
    font-weight="400"
    font-stretch="normal"
    units-per-em="2048"
    panose-1="2 4 6 3 5 5 6 2 2 4"
    ascent="1638"
    descent="-410"
    x-height="913"
    cap-height="913"
    bbox="-96 -372 4942 2045"
    underline-thickness="109"
    underline-position="-359"
    unicode-range="U+0020-2026"
  />
<missing-glyph horiz-adv-x="5040" 
d="M3351 2045h10q37 -10 37 -52q0 -12 -32 -57h-28q0 24 28 54l2 10q-5 13 -10 15h-9q-8 0 -10 -19h-30q6 49 42 49zM2019 2016l29 -31q0 -16 -40 -30h-19l-59 12l-11 -12l-28 25q11 29 43 29h11l42 -11h2q10 0 30 18zM468 1980h142v-60h-94v-75h89v-59h-89v-129l-5 -5h-49
v323zM1155 1980h43l6 -5v-78h30v-52h-30v-188l-6 -5h-49v193h-25v52h25v78zM1621 1980h42l4 -5v-94h3q23 24 54 24h2q58 0 83 -71l2 -39v-143h-52v115q0 80 -42 80h-7q-43 0 -43 -86v-109h-51v323zM2200 1980h49l5 -5v-222q10 -51 45 -51q44 7 44 59v214l5 5h49v-216
q0 -85 -66 -112q-15 -8 -35 -8q-47 0 -82 55q-14 24 -14 57v224zM2435 1980h159v-60h-56v-268h-53v268h-55v55zM2621 1980h71q7 -4 83 -251h2l80 251h73v-328h-54v242h-2l-74 -242h-44q-4 0 -58 182l-19 60h-3v-242h-55v328zM3760 1980h52v-328h-45l-5 5v11l3 2l-3 14
q-29 -40 -78 -40q-67 0 -100 91l-5 39v3q0 94 92 125l23 3q35 0 63 -32h3v107zM2057 1928h36l4 -6v-49h-45v-221h-48v23q-23 -31 -59 -31q-89 14 -89 97v156h51v-104q0 -79 26 -86l18 -5h6q26 0 39 36l3 26v133h53v25zM3476 1928v-55h-31v-221h-47v25h-2q-15 -33 -57 -33
q-68 0 -86 78l-3 29v146h52v-120q0 -50 19 -68l21 -7h9q42 0 42 69v126h27q4 0 4 28l3 3h49zM758 1905q68 0 103 -77q9 -18 12 -54q0 -88 -90 -127l-32 -3q-63 0 -101 73q-12 22 -12 52v10q0 94 101 126h19zM1011 1905h3q74 0 83 -101v-152h-51v119q0 76 -42 76h-5
q-44 0 -44 -76v-119h-52v245h46v-21q30 29 62 29zM1466 1905h7q72 0 105 -89h-60q-16 31 -42 31h-17q-53 -14 -53 -61l-3 -15q12 -69 61 -69h9q22 0 47 27h40l2 3h3l2 -3l2 3l3 -3l2 3l2 -7q-33 -81 -110 -81q-76 0 -110 94l-4 36v3q0 85 77 120q15 8 37 8zM3141 1905h2

<glyph glyph-name=".notdef" horiz-adv-x="5040" 
d="M3351 2045h10q37 -10 37 -52q0 -12 -32 -57h-28q0 24 28 54l2 10q-5 13 -10 15h-9q-8 0 -10 -19h-30q6 49 42 49zM2019 2016l29 -31q0 -16 -40 -30h-19l-59 12l-11 -12l-28 25q11 29 43 29h11l42 -11h2q10 0 30 18zM468 1980h142v-60h-94v-75h89v-59h-89v-129l-5 -5h-49
v323zM1155 1980h43l6 -5v-78h30v-52h-30v-188l-6 -5h-49v193h-25v52h25v78zM1621 1980h42l4 -5v-94h3q23 24 54 24h2q58 0 83 -71l2 -39v-143h-52v115q0 80 -42 80h-7q-43 0 -43 -86v-109h-51v323zM2200 1980h49l5 -5v-222q10 -51 45 -51q44 7 44 59v214l5 5h49v-216
q0 -85 -66 -112q-15 -8 -35 -8q-47 0 -82 55q-14 24 -14 57v224zM2435 1980h159v-60h-56v-268h-53v268h-55v55zM2621 1980h71q7 -4 83 -251h2l80 251h73v-328h-54v242h-2l-74 -242h-44q-4 0 -58 182l-19 60h-3v-242h-55v328zM3760 1980h52v-328h-45l-5 5v11l3 2l-3 14
q-29 -40 -78 -40q-67 0 -100 91l-5 39v3q0 94 92 125l23 3q35 0 63 -32h3v107zM2057 1928h36l4 -6v-49h-45v-221h-48v23q-23 -31 -59 -31q-89 14 -89 97v156h51v-104q0 -79 26 -86l18 -5h6q26 0 39 36l3 26v133h53v25zM3476 1928v-55h-31v-221h-47v25h-2q-15 -33 -57 -33
q-68 0 -86 78l-3 29v146h52v-120q0 -50 19 -68l21 -7h9q42 0 42 69v126h27q4 0 4 28l3 3h49zM758 1905q68 0 103 -77q9 -18 12 -54q0 -88 -90 -127l-32 -3q-63 0 -101 73q-12 22 -12 52v10q0 94 101 126h19zM1011 1905h3q74 0 83 -101v-152h-51v119q0 76 -42 76h-5
q-44 0 -44 -76v-119h-52v245h46v-21q30 29 62 29zM1466 1905h7q72 0 105 -89h-60q-16 31 -42 31h-17q-53 -14 -53 -61l-3 -15q12 -69 61 -69h9q22 0 47 27h40l2 3h3l2 -3l2 3l3 -3l2 3l2 -7q-33 -81 -110 -81q-76 0 -110 94l-4 36v3q0 85 77 120q15 8 37 8zM3141 1905h2
q49 0 70 -60v-14h-52q0 16 -16 16h-4q-14 0 -19 -13v-13q0 -9 68 -35q30 -19 30 -59q0 -58 -61 -80l-23 -3q-76 12 -76 83h54q0 -20 27 -25h4q19 0 24 23q0 22 -68 44q-34 27 -34 59q0 66 74 77zM4203 1905q55 0 77 -63q7 -18 7 -65v-125h-52v112q0 83 -40 83h-11
q-33 0 -40 -54v-141h-52v5h-2l2 2v238h47v-21q25 29 64 29zM4432 1905h5q40 0 69 -40v18l-3 3l3 11h47v-208q0 -97 -85 -132l-33 -4h-7q-70 0 -104 80h59q24 -22 45 -23h13q22 0 43 22q15 13 22 52h-3q-32 -40 -73 -40q-57 0 -96 70q-10 18 -14 63q0 88 87 125zM3851 1897
h53v-136q6 -59 40 -59h7q46 0 46 93v102h51v-245h-47l-3 10h3l-3 3v5l3 2v3h-4q0 -23 -57 -31h-3q-59 0 -84 75l-2 85v93zM690 1771q10 -69 63 -69h7q59 14 59 65v15q-13 65 -59 65h-5q-58 0 -65 -76zM3630 1774q13 -72 61 -72h5q58 0 66 75q0 49 -51 70h-22q-37 0 -56 -57z
M4374 1774q8 -72 65 -72h5q59 12 59 72q0 61 -59 73h-14q-56 -16 -56 -62v-11zM3928 1620h52v-57h-52v57zM1054 1402q43 -11 43 -49v-4q0 -17 -32 -60h-28q0 25 31 57v7q0 12 -7 15h-12q-10 -4 -10 -19h-28v6q0 32 33 44zM3349 1339q92 0 138 -99h-60q-37 42 -80 42
q-55 0 -87 -68q-10 -22 -10 -47q0 -78 81 -110l18 -1q36 0 75 39h61q-44 -97 -138 -97q-93 0 -141 112q-10 31 -10 62q0 97 90 152q29 15 63 15zM3664 1339q57 0 103 -47q46 -51 46 -115v-20q0 -89 -91 -146q-33 -13 -63 -13q-89 0 -138 101q-13 33 -13 60v18q0 98 98 151
q29 11 58 11zM2261 1337h2l47 -11h3q11 0 26 11l18 -36q-18 -19 -35 -19h-3l-54 10l-20 -7l-20 36q18 16 36 16zM716 1334h19q118 0 129 -26q25 -26 25 -62q-10 -57 -30 -57v-6q47 -23 47 -66v-18q0 -63 -69 -88l-54 -5h-67v328zM2550 1334h53v-217q6 -61 45 -61q29 0 44 39
l3 30v203l4 6h45l5 -6v-171q0 -118 -40 -133q-24 -26 -64 -26q-55 0 -91 76l-4 54v206zM2805 1334h59q4 0 122 -237h4v237h50l4 -6v-322h-58q-29 48 -125 238h-3v-238h-53v328zM3101 1334h54v-328h-54v328zM3859 1334h8q155 0 174 -40q23 -11 47 -75l4 -36v-11l3 -2
q0 -94 -82 -149q-35 -15 -99 -15h-55v328zM4141 1334h153v-60h-103v-75h101v-57h-101v-74l4 -5h99v-57h-157v322zM3563 1175v-10q0 -76 79 -108l19 -1q68 0 96 86l3 20v15q0 61 -60 94q-12 8 -39 11q-66 0 -96 -83zM770 1274v-67h9q54 0 54 28l3 14q-11 25 -29 25h-37z
M3912 1274v-206l2 -3v-2q104 0 122 76l2 15v29q0 34 -32 68q-25 23 -78 23h-16zM1041 1259h5q38 0 71 -40v32h49v-245h-49v32q-36 -40 -80 -40q-75 0 -101 97l-5 36q0 89 85 125zM1314 1259h3q74 0 83 -102v-151h-51v128q0 67 -42 67h-10q-34 0 -39 -62v-133h-52v245h47v-21
q28 29 61 29zM1543 1259h5q45 0 71 -40v32h47v-219q0 -95 -104 -126h-16q-74 0 -108 82h59q26 -25 44 -25h14q52 0 64 77q-33 -42 -76 -42q-60 0 -101 81l-7 44v16q0 79 85 117zM1912 1259h2q43 0 61 -37h2q32 37 69 37h4q57 0 79 -55q8 -25 8 -45v-153h-52v138q0 44 -23 55
l-12 2h-15q-32 0 -36 -65v-130h-52v136q0 59 -43 59h-8q-32 0 -36 -57v-138h-54v245h50v-21h2q6 24 54 29zM2282 1259q47 0 75 -42v34h47v-245h-47v32q-36 -40 -78 -40q-74 0 -102 92l-6 41q0 90 85 125zM985 1117q0 -48 61 -61h4q45 0 62 46l3 15v22q-12 62 -57 62h-14
q-41 0 -59 -57v-27zM1487 1128q0 -48 43 -68l18 -4h5q47 0 63 57v23q-11 65 -58 65h-12q-50 0 -59 -73zM2225 1131v-14q15 -61 57 -61h14q58 12 58 64v11q0 45 -37 65l-18 5h-10q-64 -8 -64 -70zM770 1150v-82q0 -5 7 -5q77 0 77 45q0 34 -47 42h-37zM2966 753l24 -28
l-51 -55q-18 12 -27 26zM1524 727l85 -54q0 -15 -21 -42l-87 54q18 41 23 42zM2850 693h38l55 -60h-54l-21 26l-23 -26h-54q54 60 59 60zM3422 693h40l56 -60h-54l-24 26h-1q0 -5 -19 -26h-54zM622 685h52q8 -4 47 -137l34 -110q9 8 34 100l48 147h54v-2l-112 -326h-44z
M1159 685h51v-54h-51v54zM1354 685h46l6 -5v-323h-52v328zM2317 685h45l4 -5v-78h31v-52h-31v-193h-53v193h-26v52h26v78zM2425 685h52v-98h2q23 23 54 23h3q57 0 81 -71l3 -38v-144h-52v115q0 81 -39 81h-10q-42 0 -42 -87v-109h-52v328zM2664 685h52v-54h-52v54zM3028 685
h44l6 -5v-78h29v-52h-29v-193h-54v193h-27v52h27v78zM3234 685h52v-328h-52v328zM3957 685h52v-328h-52v328zM4316 685h51v-54h-51v54zM1555 610h5q83 0 110 -102l3 -23v-11q0 -83 -85 -120l-35 -5q-76 0 -111 97l-4 32q0 97 93 130zM1811 610h4q53 0 78 -60q7 -25 7 -81
v-112h-54v146q-7 50 -37 50h-10q-38 0 -42 -57v-139h-54v245h49v-21q26 29 59 29zM2046 610h4q45 0 63 -39h3v31h49v-206q0 -102 -89 -135l-28 -3h-5q-73 0 -106 81h52l37 -20l15 -3h14q50 0 61 72q-33 -39 -73 -39q-62 0 -98 76q-11 23 -12 60q0 85 86 123zM2866 610h2
q82 0 111 -104l2 -25l-2 -27h-172q15 -45 45 -45l14 -3q29 0 49 22h57v-3q-35 -76 -108 -76q-77 0 -111 97l-1 28v8q0 49 32 89q34 39 82 39zM3429 610h5q41 0 70 -39h2v31h47v-245h-47v31h-2q-35 -39 -77 -39q-71 0 -101 89l-5 36v14q0 86 84 120zM3711 610h7
q88 0 107 -128l-2 -1v-15q0 -65 -66 -106q-21 -11 -46 -11q-34 0 -64 32v-99l-5 -5h-49v325h49v-28q31 36 69 36zM4151 610q44 0 75 -39v31h49v-245h-49v31q-35 -39 -77 -39q-92 0 -108 132q0 84 73 121q15 8 37 8zM922 602h50v-136q3 -60 42 -60h5q44 0 44 87v109h52v-245
h-47v24h-5q0 -23 -56 -32h-3q-55 0 -82 68q-4 35 -4 99v81zM1159 602h51v-245h-51v245zM2664 602h52v-245h-52v245zM4316 602h51v-245h-51v245zM1492 488v-16q13 -66 59 -66h4q59 0 66 76q-13 71 -59 71h-11q-59 -16 -59 -65zM1987 472q15 -66 59 -66h11q48 0 59 75v1
q-13 71 -59 71h-14q-39 0 -56 -57v-24zM2805 506h122v2q-16 45 -59 45h-7q-35 0 -56 -47zM3373 474q13 -68 61 -68h5q52 0 65 63v12q-10 72 -57 72h-16q-56 -14 -56 -63zM3642 478q12 -72 61 -72h3q50 0 65 60v22q0 43 -49 65h-22q-47 0 -58 -72v-3zM4095 472q10 -66 66 -66
q43 0 61 48l2 15v16q0 54 -52 68h-18q-42 0 -59 -60v-21zM3416 321h51v-52h-51v52zM4137 321h51v-52h-51v52zM2733 133h4q35 0 43 -50v-2q0 -16 -24 -41l-10 -17h-28q0 25 28 56l3 2v2q-3 19 -9 19h-10q-8 0 -9 -19h-30q6 50 42 50zM1546 116l52 -60l-26 -19l-52 52zM352 79
h4q75 -48 85 -60l-20 -37q-88 49 -88 58zM3490 79l86 -58l-18 -39q-10 0 -91 55q15 36 23 42zM4578 76l19 -42l-91 -52l-20 39l92 58v-3zM1204 53h51v-19l5 -5h14v-36h-14l-5 -5v-279h-46v31q-34 -40 -81 -40q-72 0 -102 105l-3 26q0 102 101 131h14q33 0 66 -33v59l-6 5
h-43v36h49v24zM1480 45h40l56 -61h-53l-23 27l-23 -27h-53zM2641 45h33q12 0 63 -61h-54l-23 27q-19 -21 -19 -27h-58v4zM49 37h160v-60h-56v-268h-50l-4 5v245l2 3v2l-2 2l2 3l-2 2l2 3l-2 3h-54v54zM699 37h47v-73l2 -2l-2 -3v-3l2 -2l-2 -3v-3l2 -2v-2l-2 -3l2 -3h3
q17 24 51 24h3q53 0 77 -58q7 -17 7 -42v-153h-52v127q0 68 -40 68h-8q-43 0 -43 -86v-109h-52v322zM1297 37h47l5 -6v-49h-52v55zM1987 37h52v-198l70 115h62l-78 -118l90 -125v-2h-70q-10 22 -74 115v-115h-52v328zM2271 37v-99q24 24 53 24q57 0 80 -56q10 -19 10 -77
v-120h-54v133q0 62 -41 62h-11q-31 0 -37 -55v-140h-53v314l-1 3v3l1 2l-1 3l1 3h53zM2458 37h51v-55h-51v55zM3148 37h51v-108q27 33 68 33h3q75 0 105 -94l5 -37q0 -75 -64 -120q-30 -11 -49 -11q-41 0 -72 40v-31h-47v328zM4275 37h52v-99h2q23 24 54 24h3q60 0 82 -74
l2 -41v-138h-52v111q0 82 -32 82l-10 2h-12q-37 0 -37 -80v-115h-52v328zM329 -38h3v-58h-5q-42 0 -42 -57v-138h-53v245h47v-21q18 29 50 29zM564 -38q71 0 86 -87v-166h-51v136q-6 59 -41 59h-6q-45 0 -45 -84v-111h-52v245h50v-21q25 29 59 29zM1504 -38q72 0 105 -94
l5 -39q-2 -24 -7 -24h-169q17 -47 62 -47q24 0 48 21h57q-33 -79 -108 -79q-82 0 -113 105v37q0 81 89 117zM2657 -38h5q77 0 107 -97l3 -26v-21l-3 -13h-170q18 -47 53 -47h12q21 0 42 21h59q-34 -79 -105 -79q-84 0 -115 102l-2 29q0 93 91 128zM2915 -38h4q54 0 78 -60
q7 -25 7 -82v-111h-54v138q0 48 -35 57h-11q-38 0 -43 -57v-138h-54v245h50v-21q25 29 58 29zM3508 -38h6q40 0 70 -40h2v32h47v-245h-47v31h-2q-34 -40 -78 -40q-71 0 -101 90l-4 37v12q0 82 77 117q11 6 30 6zM3781 -38h4q62 0 82 -78l3 -84v-91h-54v138q0 48 -38 57h-9
q-38 0 -42 -52v-143h-54v245h49v-21q26 29 59 29zM4133 -38h1q74 0 104 -93l4 -40q0 -88 -84 -126l-25 -3q-41 0 -68 34v-106h-52v326h47v-29q30 37 73 37zM4714 -38h5q34 0 63 -37q27 37 69 37h6q56 0 79 -66l6 -51v-136h-52v122q0 73 -39 73h-7q-35 0 -41 -50v-140l-5 -5
h-48v140q0 42 -31 55h-17q-40 0 -40 -77v-118h-51v245h47v-21q22 29 56 29zM359 -46h49l5 -6v-234l-5 -5h-49v245zM1297 -46h52v-245h-52v245zM1649 -46h52v-136q4 -60 43 -60h4q44 0 44 81v115h52v-245h-47v24h-5q-12 -33 -59 -33q-52 0 -79 63q-5 12 -5 34v157zM2458 -46
h51v-245h-51v245zM4515 -46h51v-245h-51v245zM1077 -169q0 -53 51 -73h12q54 0 66 66v10q0 53 -54 70h-17q-38 0 -58 -57v-16zM1438 -143h122q-18 47 -53 47h-7q-43 0 -62 -44v-3zM2599 -143h122q-21 47 -54 47h-7q-46 0 -61 -47zM3196 -158v-11q10 -73 61 -73h5q64 8 64 71
v5q0 45 -38 65l-18 5h-14q-60 -14 -60 -62zM3452 -173q14 -69 62 -69h11q41 0 59 60v13q-8 73 -56 73h-17q-47 0 -59 -73v-4zM4062 -158v-22q0 -47 59 -62h9q50 0 61 76q-13 70 -58 70h-15q-56 -17 -56 -62z" />
    <glyph glyph-name=".null" horiz-adv-x="0" 
 />
    <glyph glyph-name="nonmarkingreturn" horiz-adv-x="571" 
 />
    <glyph glyph-name="space" unicode=" " horiz-adv-x="565" 
 />
    <glyph glyph-name="exclam" unicode="!" horiz-adv-x="401" 
d="M254 281h-203l-51 264v373h303v-375zM0 0v217h305v-217h-305z" />
    <glyph glyph-name="quotedbl" unicode="&#x22;" horiz-adv-x="610" 
d="M475 573h-168l-39 213v129h246v-129zM207 573h-168l-39 213v129h246v-129z" />
    <glyph glyph-name="numbersign" unicode="#" horiz-adv-x="2668" 
d="M1987 195q-238 0 -412 106.5t-174 265.5q0 160 174 266.5t412 106.5q237 0 407 -104q178 -109 178 -269q0 -159 -178 -268q-170 -104 -407 -104zM1982 -14q-63 0 -109 28.5t-46 75.5t46 76t109 29q62 0 108 -29t46 -76t-46 -75.5t-108 -28.5zM1298 702v-667
q-6 -29 -32 -51q-33 -27 -74 -27q-68 0 -137 66l-645 612v-422q16 -41 108 -41q39 0 90 8v-162q-80 -18 -145 -18q-94 0 -146 33q-63 -33 -165 -33q-72 0 -152 18v162q51 -8 90 -8q90 0 109 41v489q-19 41 -109 41q-39 0 -90 -8v162q80 16 152 16q106 0 167 -32
q80 34 173 34q47 0 83 -12l512 -481v280q-18 41 -108 41q-39 0 -90 -8v160q59 18 125 18q96 0 178 -34q72 34 170 34q65 0 135 -16v-162q-53 8 -92 8q-90 0 -107 -41zM1985 782q-103 0 -173.5 -63.5t-70.5 -151.5t70.5 -151.5t173.5 -63.5q104 0 174.5 63.5t70.5 151.5
t-70.5 151.5t-174.5 63.5z" />
    <glyph glyph-name="dollar" unicode="$" horiz-adv-x="1452" 
d="M989 602v100q-55 29 -137 41v-141q293 -41 434 -164q68 -59 68 -141q0 -150 -260 -252q-93 -35 -242 -49v-135h-168v129h-27v-129h-168v139q-116 12 -196 33q-70 -35 -270 -27v322h315v-80q72 -45 151 -68v197q-141 10 -286 45q-203 49 -203 192q0 136 188 226
q134 63 301 82v139h168v-131h27v131h168v-139q88 -9 182 -25q70 35 273 29v-324h-318zM684 758h-27v-135l27 -2v137zM860 334l-8 2v-148q20 7 39 15q70 28 70 61q0 47 -101 70zM489 741q-20 -2 -36 -6q-82 -22 -82 -61q0 -29 78 -35l40 -4v106zM684 362l-27 3v-207h27v204z
" />
    <glyph glyph-name="percent" unicode="%" horiz-adv-x="1550" 
d="M1196 -20q-152 0 -261.5 68.5t-109.5 170.5q0 103 109.5 171.5t261.5 68.5q150 0 259.5 -68.5t109.5 -171.5q0 -102 -109.5 -170.5t-259.5 -68.5zM580 -68h-189l592 1039h184zM371 457q-152 0 -261.5 68.5t-109.5 170.5q0 103 109.5 171.5t261.5 68.5q149 0 259.5 -68.5
t110.5 -171.5q0 -102 -110.5 -170.5t-259.5 -68.5zM1194 358q-64 0 -110 -41t-46 -98t46 -98t110 -41q66 0 111 41t45 98t-45 98t-111 41zM371 836q-66 0 -111 -41t-45 -99q0 -57 45 -98t111 -41q65 0 110 41t45 98q0 58 -45 99t-110 41z" />
    <glyph glyph-name="ampersand" unicode="&#x26;" horiz-adv-x="1878" 
d="M1548 375q-131 -109 -196 -158l100 -53q59 -31 262 -68v-96h-471q-26 14 -135 72q-209 -90 -520 -90q-254 0 -408 67q-180 78 -180 234q0 204 276 301q-88 75 -88 123q0 86 154 153q164 72 401 72q144 0 291 -29q70 35 275 27v-299h-320v80q-125 63 -258 55
q-131 -8 -186 -33q-35 -16 -25 -28q49 -62 635 -381q59 41 100 84q-18 24 -75 24q-45 0 -117 -18v164q65 16 141 16q115 0 217 -35q105 35 219 35q74 0 140 -16v-166q-39 12 -84 12q-90 0 -148 -49zM492 428q-170 -55 -170 -137q0 -53 80.5 -96t213.5 -43q125 0 267 43
q-234 131 -391 233z" />
    <glyph glyph-name="quotesingle" unicode="'" horiz-adv-x="401" 
d="M244 573h-156l14 129h-102v213h305v-172z" />
    <glyph glyph-name="parenleft" unicode="(" horiz-adv-x="460" 
d="M199 -127q-199 303 -199 582q0 290 201 577h174q-139 -330 -139 -592q0 -264 139 -567h-176z" />
    <glyph glyph-name="parenright" unicode=")" horiz-adv-x="460" 
d="M164 -127q201 303 201 582q0 290 -201 577h-174q139 -330 139 -592q0 -264 -139 -567h174z" />
    <glyph glyph-name="asterisk" unicode="*" horiz-adv-x="610" 
d="M369 782l100 -102l-129 -80l-84 121l-82 -123l-129 82l107 104l-158 33l49 131l144 -47l-7 135h156l-12 -135l147 47l49 -131z" />
    <glyph glyph-name="plus" unicode="+" horiz-adv-x="675" 
d="M379 442v-198h-180v198h-199v181h199v198h180v-198h199v-181h-199z" />
    <glyph glyph-name="comma" unicode="," horiz-adv-x="401" 
d="M244 -143h-156l14 129h-102v215h305v-174z" />
    <glyph glyph-name="hyphen" unicode="-" horiz-adv-x="991" 
d="M434 403q-31 13 -72 13q-96 0 -221 -62v242q115 49 221 49q86 0 158 -29q61 -26 123 -26q112 0 194 74v-254q-98 -58 -182 -58q-90 0 -221 51z" />
    <glyph glyph-name="hyphen" unicode="&#x2010;" horiz-adv-x="991" 
d="M434 403q-31 13 -72 13q-96 0 -221 -62v242q115 49 221 49q86 0 158 -29q61 -26 123 -26q112 0 194 74v-254q-98 -58 -182 -58q-90 0 -221 51z" />
    <glyph glyph-name="period" unicode="." horiz-adv-x="487" 
d="M0 0v201h305v-201h-305z" />
    <glyph glyph-name="slash" unicode="/" horiz-adv-x="757" 
d="M88 -121h-184l645 1163h180z" />
    <glyph glyph-name="zero" unicode="0" 
d="M1581 465l-4 12q2 0 6 -4q12 -10 0 -18q-57 -41 -67 -74q-52 -176 -264 -292t-492 -116q-283 0 -502 121t-254 295q-4 21 -72 68q-16 12 0 22v0q5 19 21 8l24 -16l-63 -2q51 39 63 51q27 27 50 72q77 156 277 251t456 95t459.5 -97.5t273.5 -250.5q27 -58 98 -111z
M1040 467q29 18 84 90q-39 96 -137 158.5t-223 62.5t-224.5 -62.5t-136.5 -158.5q11 -35 84 -90q-71 -39 -96 -76q29 -110 132.5 -183t240.5 -73q135 0 239.5 74t131.5 184q-25 35 -95 74z" />
    <glyph glyph-name="one" unicode="1" horiz-adv-x="792" 
d="M348 35q-82 -35 -196 -35q-74 0 -152 18v162q59 -12 102 -12q74 0 88 37v176q-16 47 -84 90q70 45 84 92v146q-14 36 -88 36q-43 0 -102 -12v162q78 16 152 16q110 0 192 -32q45 39 160 45v-365q16 -47 86 -90q-68 -41 -86 -90v-174q16 -37 90 -37q41 0 102 12v-162
q-78 -18 -153 -18q-113 0 -195 35z" />
    <glyph glyph-name="two" unicode="2" horiz-adv-x="1398" 
d="M1300 -2q-178 -6 -241 27q-158 -31 -395 -31q-226 0 -441 22q-71 -30 -221 -16q-2 20 -2 43q0 119 76 223q69 96 186 172q-6 17 -24 49q59 9 182 39q244 86 422 109q102 12 104 45q2 29 -61 47q-84 23 -213 23q-185 0 -289 -54v-100h-299v319q190 7 256 -26
q190 33 352 33q291 0 461 -99q147 -86 147 -205q0 -59 -45 -108q0 -23 21 -59l-168 -21q-145 -29 -291 -59q-174 -35 -282 -86q-58 -27 -134 -97q82 -16 234 -16q289 0 385 45v100h280v-319z" />
    <glyph glyph-name="three" unicode="3" horiz-adv-x="1363" 
d="M274 33q-69 -41 -270 -33v393h315v-139q119 -72 275 -72q106 0 217 35q88 27 88 86q0 72 -125 90.5t-342 1.5v205q234 -8 354 4q109 10 109 58q0 45 -90 66.5t-207 21.5q-174 0 -283 -54v-135h-315v354q201 9 270 -26q209 35 385 35q187 0 351 -50q243 -69 243 -215
q0 -102 -129 -157q148 -68 148 -193q0 -168 -240 -254q-174 -63 -373 -63q-176 0 -381 41z" />
    <glyph glyph-name="four" unicode="4" horiz-adv-x="1515" 
d="M1135 279v-74q16 -37 92 -37q43 0 104 12v-162q-78 -18 -155 -18q-117 0 -201 35q-84 -35 -201 -35q-78 0 -158 18v162q62 -12 105 -12q78 0 92 37v74h-813v131l649 485q76 18 146 18q102 0 176 -34q45 39 164 45v-510h282v-135h-282zM813 776l-477 -362h477v362z" />
    <glyph glyph-name="five" unicode="5" horiz-adv-x="1464" 
d="M1424 317q10 -8 -2 -18q-47 -39 -67 -66q-52 -127 -242 -198q-176 -66 -424 -66q-297 0 -463 70q-137 55 -237 184l301 109q28 -84 130.5 -142.5t237.5 -58.5q158 0 248 57q78 52 76 121q-2 140 -320 140q-194 0 -309 -99h-303v174q-18 47 -86 90q70 43 86 91v213
q111 12 172 -46q166 54 416 54q194 0 366 -37q70 35 271 26v-305h-316v95q-123 47 -329 47q-191 0 -260 -41v-168q135 65 352 67q207 2 362 -35q223 -55 273 -184q28 -35 73 -67z" />
    <glyph glyph-name="six" unicode="6" horiz-adv-x="1415" 
d="M623 -14q-252 0 -423 117.5t-197 297.5q-21 35 -76 70q66 41 84 84q43 176 233 279q183 98 435 98q192 -2 305 -31q162 -39 315 -158l-264 -129q-70 144 -334 144q-278 0 -323 -189q151 70 358 70q229 0 401 -76q181 -82 181 -196q0 -213 -271 -314q-184 -67 -424 -67z
M670 459q-112 0 -189 -46t-77 -106q0 -61 77 -107t189 -46q115 0 195 47q74 45 74 106q0 60 -74 105q-80 47 -195 47z" />
    <glyph glyph-name="seven" unicode="7" horiz-adv-x="1277" 
d="M885 522q2 -20 43 -63q-64 -27 -160 -76l-319 -385q-76 8 -113 37q-68 -31 -141 -31q-60 0 -115 21l321 393q-2 26 -41 65q33 9 58 19q65 24 92 49l152 188q-58 13 -140 13q-139 0 -225 -37v-121h-297v319q184 7 254 -26q90 28 276 28q193 0 312 -20q65 18 166 18
q90 0 188 -16z" />
    <glyph glyph-name="eight" unicode="8" horiz-adv-x="1423" 
d="M647 -12q-262 0 -454.5 82t-192.5 196q0 152 227 246q-184 86 -184 193q0 96 197 161q186 64 436 64t429 -67.5t179 -157.5q0 -107 -186 -193q227 -94 227 -248q0 -112 -202.5 -194t-475.5 -82zM659 758q-100 0 -164.5 -29t-64.5 -67q0 -27 64 -52q73 -26 172 -26
q102 0 172 26q59 25 59 52q0 40 -57 67q-66 29 -181 29zM662 408q-109 0 -179.5 -36t-70.5 -87q0 -43 65 -78q74 -37 191 -37q106 0 180 39q65 35 65 76q0 51 -70.5 87t-180.5 36z" />
    <glyph glyph-name="nine" unicode="9" horiz-adv-x="1406" 
d="M1303 369q-39 -185 -226.5 -290.5t-443.5 -103.5q-195 0 -307 29q-160 41 -314 158l264 131q68 -146 332 -146q279 0 324 189q-148 -68 -346 -68q-232 0 -404 86q-182 90 -182 226q0 200 268 286q170 56 418 56q238 0 408 -107q163 -104 204 -270q25 -41 101 -76
q-31 -16 -49 -33q-39 -33 -47 -67zM637 752q-125 0 -208 -46.5t-83 -105.5t83 -105t208 -46q123 0 209 47q80 45 80 104t-80 105q-86 47 -209 47z" />
    <glyph glyph-name="colon" unicode=":" horiz-adv-x="401" 
d="M0 526v262h305v-262h-305zM0 111v264h305v-264h-305z" />
    <glyph glyph-name="semicolon" unicode=";" horiz-adv-x="458" 
d="M0 262v225h305v-225h-305zM244 -143h-156l16 135h-104v225h305v-182z" />
    <glyph glyph-name="less" unicode="&#x3c;" horiz-adv-x="444" 
d="M0 340v240l346 401v-311l-137 -207l137 -205v-272z" />
    <glyph glyph-name="equal" unicode="=" horiz-adv-x="641" 
d="M0 541v161h543v-161h-543zM0 346v160h543v-160h-543z" />
    <glyph glyph-name="greater" unicode="&#x3e;" horiz-adv-x="464" 
d="M366 340v240l-346 401v-311l137 -207l-137 -205v-272z" />
    <glyph glyph-name="question" unicode="?" horiz-adv-x="1431" 
d="M631 350q-103 -18 -103 -61v-35h-346q0 57 2 76q4 41 19 73q41 89 164 121q116 31 274 54q186 26 195 28q104 23 104 66t-139 73q-109 25 -176 25q-166 0 -310 -86v-78h-315v312q201 6 270 -27q162 41 402 41q258 0 399 -53q262 -99 262 -244q0 -84 -76 -129
q-120 -68 -305 -105q-159 -26 -321 -51zM182 0v207h346v-207h-346z" />
    <glyph glyph-name="at" unicode="@" horiz-adv-x="1282" 
d="M903 750l-73 -437q-2 -12 0 -16t10 -4q22 2 61 20q133 68 125 226q-6 131 -123 211zM799 168q-92 0 -133 51q-82 -53 -170 -53q-137 0 -211 82q-68 74 -68 186q0 133 86 234q94 110 240 110q108 0 164 -53l6 35h176q-117 69 -279 69q-127 0 -231 -45q-113 -47 -168 -135
t-51 -194q8 -168 149 -267q131 -90 330 -90q154 0 301 58l-72 -150q-135 -31 -247 -26q-250 8 -422 129q-187 131 -199 344q-6 139 72 254.5t229 179.5q142 59 309 59q228 0 390 -102q176 -113 186 -303q6 -152 -115 -262.5t-272 -110.5zM569 655q-92 -2 -129 -129
q-18 -63 -18 -123q0 -122 94 -122q62 0 107 81q43 76 43 164q0 131 -97 129z" />
    <glyph glyph-name="A" unicode="A" horiz-adv-x="1800" 
d="M1294 33q-102 -33 -229 -33q-88 0 -174 18v164q72 -12 125 -12q94 0 114 33l-40 63q-172 45 -320 45q-137 0 -289 -37l-47 -71q19 -33 94 -33q43 0 105 12v-164q-80 -16 -150 -16q-102 0 -166 35q-65 -35 -167 -35q-70 0 -150 16v162q39 -4 68 -4q94 0 145 60
q55 86 111 172q-7 34 -41 71q65 19 137 72l131 199q-14 4 -35 4q-43 0 -110 -21v164q79 16 167 16q142 0 265 -36q104 36 247 36q105 0 211 -22v-160q-73 29 -120 29q-17 0 -31 -4l135 -205q70 -53 135 -72q-33 -35 -41 -71q56 -86 109 -172q51 -62 137 -62q35 0 82 8v-164
q-84 -16 -174 -16q-129 0 -234 31zM784 729l-166 -250q162 23 332 -2z" />
    <glyph glyph-name="B" unicode="B" horiz-adv-x="1470" 
d="M825 0q-225 0 -467 37q-82 -35 -202 -35q-76 0 -156 16v162q51 -8 90 -8q90 0 107 41v162q-19 51 -88 96q75 47 88 98v131q-17 41 -107 41q-39 0 -90 -8v162q80 18 156 18q118 0 202 -36q158 36 406 36q266 0 450.5 -61t184.5 -158q0 -102 -185 -186q228 -92 228 -240
q0 -106 -207 -190q-195 -78 -410 -78zM518 715v-121q76 -21 178 -21q121 0 218.5 25t97.5 55q0 41 -81 68t-192 27q-121 0 -221 -33zM518 387v-170q109 -41 230 -41q114 0 197 35t83 78q0 55 -91 87t-222 32q-103 0 -197 -21z" />
    <glyph glyph-name="C" unicode="C" horiz-adv-x="1435" 
d="M678 -16q-250 0 -440.5 112.5t-231.5 282.5q-24 41 -92 90q86 63 141 225v-30q80 127 247 196.5t376 69.5q201 -2 369 -45q69 35 270 26v-381h-316v158q-108 70 -301 70q-254 0 -317 -205q27 -47 90 -80q-72 -49 -96 -88q53 -227 368 -227q115 0 179 20q149 49 192 225
l223 -120q-10 -84 -100 -158q-174 -141 -561 -141z" />
    <glyph glyph-name="D" unicode="D" horiz-adv-x="1531" 
d="M805 -6q-316 0 -447 43q-84 -35 -202 -35q-76 0 -156 16v162q51 -8 90 -8q90 0 107 41v160q-17 53 -91 98q80 49 91 102v129q-17 41 -107 41q-39 0 -90 -8v162q80 16 156 16q116 0 202 -34q111 43 451 43q244 0 436 -109q238 -133 238 -371q0 -194 -209 -325
q-201 -123 -469 -123zM518 696v-125q12 -53 90 -102q-71 -45 -90 -94v-158q80 -45 221 -45q152 0 252 61q121 76 121 226q0 143 -129 215q-104 57 -262 57q-135 0 -203 -35z" />
    <glyph glyph-name="E" unicode="E" horiz-adv-x="1519" 
d="M1106 573v125q-139 56 -361 56q-165 0 -227 -37v-129q86 12 189 12q131 0 256 -20v-187q-132 33 -261 33q-96 0 -184 -18v-203q70 -39 232 -39q233 0 356 72v108h315v-344q-200 -8 -280 31q-193 -47 -391 -47q-254 0 -390 59q-92 -43 -217 -43q-69 0 -143 16v162
q51 -8 90 -8q88 0 107 41v162q-17 51 -88 96q75 47 88 98v140q-19 41 -107 41q-39 0 -90 -9v162q74 17 145 17q125 0 220 -43q153 51 397 51q203 0 389 -41q70 35 270 26v-340h-315z" />
    <glyph glyph-name="F" unicode="F" horiz-adv-x="1519" 
d="M1106 596v106q-119 58 -332 58q-162 0 -256 -37v-135q86 12 189 12q131 0 256 -20v-187q-132 33 -261 33q-96 0 -184 -18v-195q17 -41 107 -41q39 0 90 8v-162q-80 -16 -156 -16q-117 0 -201 35q-86 -35 -202 -35q-76 0 -156 16v162q51 -8 90 -8q88 0 107 41v162
q-19 51 -88 96q75 47 88 98v133q-19 41 -107 41q-39 0 -90 -8v162q80 16 156 16q118 0 202 -34q160 51 430 51q220 0 363 -41q72 33 270 24v-317h-315z" />
    <glyph glyph-name="G" unicode="G" horiz-adv-x="1619" 
d="M1008 211q-4 20 -4 59q-19 23 -72 23q-49 0 -125 -21v164q86 21 168 21q110 0 190 -31q78 31 189 31q82 0 170 -21v-164q-72 19 -121 19q-55 0 -78 -23v-75q0 -58 -149 -125q-191 -84 -474 -84q-249 0 -450 112.5t-244 282.5q-24 41 -94 90q86 63 143 225l-2 -30
q80 127 250 198q164 68 375 68q201 -2 369 -45q71 35 272 26v-381h-317v158q-115 72 -306 72q-254 0 -315 -207q27 -47 92 -80q-72 -51 -98 -90q45 -203 319 -221q228 -17 312 49z" />
    <glyph glyph-name="H" unicode="H" horiz-adv-x="1617" 
d="M1161 37q-84 -35 -200 -35q-76 0 -156 16v162q51 -8 90 -8q90 0 106 41v182q-131 37 -249 37q-117 0 -234 -35v-184q19 -41 107 -41q39 0 90 8v-162q-78 -16 -156 -16q-117 0 -203 35q-84 -35 -200 -35q-76 0 -156 16v162q51 -8 90 -8q90 0 107 41v160q-17 53 -91 98
q80 49 91 102v127q-17 41 -107 41q-39 0 -90 -8v162q80 18 156 18q116 0 202 -36q84 36 201 36q76 0 156 -18v-162q-51 8 -90 8q-88 0 -107 -41v-116q113 24 238 24q123 0 245 -24v116q-16 43 -106 43q-39 0 -90 -10v162q80 18 156 18q116 0 202 -36q84 36 201 36
q76 0 156 -18v-162q-52 10 -90 10q-89 0 -107 -43v-127q12 -55 90 -104q-74 -45 -90 -98v-158q18 -41 107 -41q38 0 90 8v-162q-80 -16 -156 -16q-117 0 -203 35z" />
    <glyph glyph-name="I" unicode="I" horiz-adv-x="792" 
d="M348 37q-82 -35 -196 -35q-74 0 -152 16v164q59 -14 102 -14q74 0 88 39v166q-14 53 -86 98q76 49 86 102v136q-14 36 -88 36q-43 0 -102 -12v162q78 18 152 18q114 0 196 -36q82 36 195 36q75 0 153 -18v-162q-59 12 -102 12q-74 0 -90 -36v-136q10 -55 88 -104
q-72 -45 -88 -98v-164q16 -39 90 -39q41 0 102 14v-164q-78 -16 -153 -16q-113 0 -195 35z" />
    <glyph glyph-name="J" unicode="J" horiz-adv-x="1441" 
d="M1147 700v-129q12 -53 90 -102q-74 -45 -90 -96v-176q0 -88 -148 -156q-155 -72 -368 -72q-185 0 -361 58q-71 -35 -270 -27v381h315v-160q103 -86 260 -86q97 0 177 31q73 29 73 59v146q-16 53 -88 98q78 49 88 104v127q-16 41 -106 41q-37 0 -88 -8v162q78 18 155 18
q115 0 201 -36q84 36 201 36q76 0 155 -18v-162q-47 8 -83 8q-89 0 -113 -41z" />
    <glyph glyph-name="K" unicode="K" horiz-adv-x="1648" 
d="M1141 37q-84 -35 -203 -35q-76 0 -156 16v164q58 -12 99 -12q49 0 71 16l-194 281l-240 -113v-141q19 -41 109 -41q37 0 88 8v-162q-78 -16 -156 -16q-117 0 -201 35q-86 -35 -202 -35q-76 0 -156 16v162q51 -8 90 -8q90 0 107 41v160q-17 53 -91 98q80 49 91 102v127
q-17 43 -107 43q-39 0 -90 -10v162q80 18 156 18q116 0 202 -36q84 36 201 36q78 0 156 -18v-162q-51 10 -88 10q-90 0 -109 -43v-155l445 213q-54 2 -127 -21v166q73 10 145 10q125 0 211 -30q76 30 180 30q55 0 111 -10v-160q-125 19 -168 -4l-273 -133l279 -385
q41 -59 229 -43v-160q-80 -16 -164 -16q-133 0 -245 35z" />
    <glyph glyph-name="L" unicode="L" horiz-adv-x="1353" 
d="M1257 0q-200 -6 -270 27q-151 -31 -309 -31q-186 0 -322 41q-84 -35 -200 -35q-76 0 -156 16v162q51 -8 90 -8q88 0 107 41v160q-17 51 -91 98q78 49 91 102v127q-19 43 -107 43q-39 0 -90 -10v162q80 18 156 18q116 0 200 -36q86 36 219 36q74 0 138 -18v-162
q-51 10 -90 10q-91 0 -107 -43v-129q12 -53 90 -102q-74 -45 -90 -98v-176q98 -31 205 -31q121 0 221 41v178h315v-383z" />
    <glyph glyph-name="M" unicode="M" horiz-adv-x="1912" 
d="M1456 37q-84 -35 -201 -35q-77 0 -157 16v162q51 -8 90 -8q90 0 108 41v424l-348 -588q-35 -55 -96 -55q-55 0 -86 49l-358 596v-426q16 -41 106 -41q39 0 90 8v-162q-80 -16 -145 -16q-92 0 -144 33q-63 -33 -165 -33q-70 0 -150 16v162q51 -8 90 -8q90 0 107 41v162
q-17 51 -88 96q75 47 88 98v131q-17 43 -107 43q-39 0 -90 -10v162q80 18 152 18q106 0 167 -34q95 34 207 34q56 0 95 -12l311 -508l309 512q33 8 70 8q78 0 147 -34q84 34 201 34q78 0 158 -18v-162q-52 10 -91 10q-90 0 -108 -43v-131q12 -53 90 -100q-72 -45 -90 -96
v-160q18 -41 108 -41q39 0 91 8v-162q-80 -16 -158 -16q-117 0 -203 35z" />
    <glyph glyph-name="N" unicode="N" horiz-adv-x="1579" 
d="M1284 705v-136q12 -53 90 -102q-74 -45 -90 -98v-330q-4 -29 -31 -51q-32 -27 -75 -27q-64 0 -136 66l-636 610v-68q12 -53 88 -100q-72 -45 -88 -96v-156q16 -43 106 -43q39 0 90 8v-162q-80 -16 -145 -16q-92 0 -144 33q-63 -33 -163 -33q-70 0 -150 16v162
q51 -8 90 -8q90 0 107 43v156q-17 51 -91 96q80 49 91 104v132q-17 40 -107 40q-39 0 -90 -8v162q80 19 150 19q106 0 167 -35q78 35 170 35q45 0 84 -13l504 -479v279q-16 40 -106 40q-39 0 -90 -8v162q59 19 125 19q94 0 176 -35q71 35 168 35q65 0 133 -19v-162
q-51 8 -90 8q-88 0 -107 -40z" />
    <glyph glyph-name="O" unicode="O" 
d="M1581 465l-4 12q2 0 6 -4q12 -10 0 -18q-57 -41 -67 -74q-52 -176 -264 -292t-492 -116q-283 0 -502 121t-254 295q-4 21 -72 68q-16 12 0 22v0q5 19 21 8l24 -16l-63 -2q51 37 63 51q27 27 50 72q77 156 277 251t456 95t459.5 -97.5t273.5 -250.5q27 -58 98 -111z
M1040 467q29 18 84 90q-39 96 -137 158.5t-223 62.5t-224.5 -62.5t-136.5 -158.5q11 -35 84 -90q-71 -39 -96 -76q29 -110 132.5 -183t240.5 -73q135 0 239.5 74t131.5 184q-25 35 -95 74z" />
    <glyph glyph-name="P" unicode="P" horiz-adv-x="1402" 
d="M797 313q-197 0 -279 21v-121q17 -41 107 -41q37 0 88 8v-162q-78 -16 -156 -16q-117 0 -201 35q-84 -35 -200 -35q-76 0 -156 16v162q51 -8 90 -8q88 0 107 41v160q-17 53 -91 98q78 49 91 102v129q-19 41 -107 41q-39 0 -90 -8v162q80 16 156 16q118 0 202 -34
q154 49 400 49q256 0 434 -99q168 -90 168 -202q0 -113 -182.5 -213.5t-380.5 -100.5zM518 702v-172q78 -34 195 -34q110 0 188 32q88 37 88 99q0 49 -86 81.5t-194 32.5q-119 0 -191 -39z" />
    <glyph glyph-name="Q" unicode="Q" horiz-adv-x="1591" 
d="M1490 393q-37 -178 -250 -295q84 -47 143 -47q54 0 103 35q-80 -195 -236 -195q-39 0 -84 15q-71 24 -176 100q-119 -24 -242 -24q-284 0 -496 117.5t-247 297.5q-25 33 -84 72q33 20 94 82q53 166 259 272.5t474 106.5q271 0 477.5 -108.5t258.5 -278.5q26 -35 90 -80
q-29 -14 -84 -70zM671 158l131 133q18 14 53 14q61 0 149 -49q56 55 76 127q-31 41 -92 82q61 41 88 78q-33 96 -123 157.5t-207 61.5q-114 0 -204.5 -61.5t-122.5 -155.5q26 -43 88 -74q-66 -47 -92 -84q20 -86 90.5 -147.5t165.5 -81.5z" />
    <glyph glyph-name="R" unicode="R" horiz-adv-x="1636" 
d="M1540 14q-98 -12 -184 -12q-289 0 -445 135q-106 94 -133 230q-153 -11 -260 14v-168q19 -41 109 -41q37 0 88 8v-162q-78 -16 -156 -16q-117 0 -201 35q-86 -35 -202 -35q-76 0 -156 16v162q51 -8 90 -8q90 0 107 41v160q-17 53 -91 98q80 49 91 102v129q-17 41 -107 41
q-39 0 -90 -8v162q80 16 156 16q118 0 202 -34q156 49 404 49q270 0 461 -66q202 -69 202 -176q0 -160 -305 -258q29 -156 115 -217q68 -49 195 -49q40 0 110 6v-154zM518 713v-156q80 -27 203 -27q133 0 227 31q105 35 105 94q0 43 -99.5 71t-222.5 28q-145 0 -213 -41z
" />
    <glyph glyph-name="S" unicode="S" horiz-adv-x="1406" 
d="M989 594v98q-110 56 -309 56q-137 0 -227 -25q-82 -21 -82 -59q0 -29 78 -35l149 -11q72 15 121 58q8 -19 16 -31q23 -33 51 -45q349 -39 500 -170q68 -57 68 -139q0 -150 -260 -250q-142 -55 -400 -55q-239 0 -401 43q-70 -35 -270 -27v320h315v-80q143 -90 317 -90
q125 0 236 45q70 28 70 61q0 45 -99.5 68.5t-236.5 33.5q-78 -16 -125 -61q-6 18 -17 31q-20 32 -47 45q-112 12 -233 41q-203 47 -203 188q0 168 268 254q189 60 396 60q172 0 370 -31q70 33 273 26v-319h-318z" />
    <glyph glyph-name="T" unicode="T" horiz-adv-x="1482" 
d="M1069 592v121q-72 30 -135 30q-47 0 -80 -20v-154q12 -53 88 -100q-72 -45 -88 -96v-160q16 -41 107 -41q36 0 88 8v-162q-78 -16 -156 -16q-115 0 -201 35q-84 -35 -198 -35q-78 0 -158 16v162q51 -8 90 -8q90 0 106 41v162q-16 51 -88 96q76 47 88 98v154
q-32 20 -79 20q-64 0 -138 -30v-121h-315v319q199 7 270 -26q99 28 201 28q125 0 221 -36q99 36 221 36q103 0 203 -28q70 33 270 26v-319h-317z" />
    <glyph glyph-name="U" unicode="U" 
d="M1288 700v-131q12 -53 88 -100q-69 -45 -88 -96v-84q0 -35 -49 -99q-63 -79 -164 -131q-131 -67 -299 -67q-221 0 -368 69q-111 52 -170 134q-41 55 -41 88v90q-17 53 -88 98q75 47 88 98v131q-17 43 -107 43q-39 0 -90 -10v162q68 16 141 16q115 0 217 -34
q105 36 217 36q76 0 140 -18v-162q-51 10 -90 10q-90 0 -107 -43v-133q12 -51 88 -98q-69 -45 -88 -96v-92q0 -17 66 -54q88 -53 219 -53q119 0 217 57q90 52 90 103v39q-16 51 -90 98q78 47 90 100v129q-18 43 -106 43q-39 0 -91 -10v162q56 18 117 18q90 0 168 -34
q78 34 168 34q61 0 119 -18v-162q-51 10 -90 10q-90 0 -107 -43z" />
    <glyph glyph-name="V" unicode="V" horiz-adv-x="1437" 
d="M1141 696l-90 -159q8 -39 59 -74q-76 -19 -145 -74l-201 -346q-33 -55 -94 -55q-43 0 -72 49l-215 354q-70 53 -145 74q49 31 59 70q-43 73 -88 147q-45 59 -113 59q-39 0 -96 -18v172q80 18 156 18q116 0 200 -36q84 36 201 36q76 0 156 -18v-164q-80 23 -138 23
q-32 0 -55 -9l232 -368l211 358q-17 21 -64 21q-49 0 -129 -25v164q82 18 156 18q98 0 161 -30q58 30 138 30q59 0 114 -18v-164q-49 14 -90 14q-78 0 -108 -49z" />
    <glyph glyph-name="W" unicode="W" horiz-adv-x="2177" 
d="M1894 707l-102 -172q8 -39 59 -72q-75 -21 -145 -74l-197 -332q-41 -67 -133 -67q-71 0 -106 57l-248 416l-240 -402q-39 -67 -116 -67q-58 0 -95 61l-198 336q-70 53 -146 72q52 33 60 72q-43 75 -84 149q-47 61 -119 61q-35 0 -84 -14v164q74 18 150 18q118 0 212 -41
q117 41 252 41q80 0 154 -16v-166q-66 17 -115 17q-59 0 -86 -23l178 -301l254 438q37 64 105 64q59 0 92 -58l274 -469l195 322q-25 27 -84 27q-47 0 -111 -15v162q76 18 146 18q110 0 186 -36q68 36 158 36q59 0 121 -18v-162q-53 12 -92 12q-72 0 -95 -38z" />
    <glyph glyph-name="X" unicode="X" horiz-adv-x="1476" 
d="M1022 37q-90 -35 -209 -35q-78 0 -158 16v164q72 -18 123 -4l-143 127l-162 -127q45 -20 129 4v-164q-78 -16 -143 -16q-92 0 -142 33q-49 -33 -141 -33q-63 0 -143 16v166q26 -10 61 -10q78 0 142 49l262 203l-295 266q-53 47 -142 47q-32 0 -61 -6v162q80 16 162 16
q125 0 221 -34q84 36 203 36q76 0 155 -18v-164q-57 19 -100 19q-27 0 -47 -7l145 -131l160 125q-43 21 -129 -4v162q80 18 143 18q93 0 144 -32q49 32 139 32q66 0 145 -18v-162q-26 6 -57 6q-84 0 -145 -47l-262 -203l301 -268q53 -47 143 -47q31 0 57 6v-162
q-78 -16 -155 -16q-117 0 -201 35z" />
    <glyph glyph-name="Y" unicode="Y" horiz-adv-x="1538" 
d="M1260 707l-218 -168q-12 -27 31 -68q10 -10 23 -18q-97 -2 -203 -31l-6 -4v-205q16 -41 106 -41q39 0 90 8v-162q-79 -16 -155 -16q-117 0 -203 35q-84 -35 -201 -35q-75 0 -155 16v162q51 -8 90 -8q88 0 106 41v154l-61 53q-98 33 -193 35q70 53 54 92q-52 51 -160 143
q-68 49 -142 49q-30 0 -63 -6v162q61 16 131 16q111 0 211 -39q84 41 211 41q78 0 162 -18v-166q-58 23 -105 23q-24 0 -47 -9l209 -186l227 178q-43 21 -129 -4v164q80 18 148 18q98 0 158 -34q67 34 149 34q59 0 117 -18v-166q-37 12 -76 12q-61 0 -106 -34z" />
    <glyph glyph-name="Z" unicode="Z" horiz-adv-x="1294" 
d="M862 522q5 -30 37 -65q-65 -19 -174 -84l-172 -187q62 -14 129 -14q127 0 219 47v100h297v-319q-188 -8 -254 27q-165 -35 -327 -35q-189 0 -346 45q-80 -33 -164 -33q-64 0 -119 23l362 391q-8 26 -34 67q65 7 172 78l164 178q-60 17 -138 17q-125 0 -207 -41v-123h-294
v319q184 7 251 -26q91 28 279 28q193 0 309 -20q68 20 168 20q90 0 189 -18z" />
    <glyph glyph-name="bracketleft" unicode="[" horiz-adv-x="464" 
d="M0 -129v1192h367v-180h-142v-830h142v-182h-367z" />
    <glyph glyph-name="backslash" unicode="\" horiz-adv-x="897" 
d="M629 -121l-641 1163h180l645 -1163h-184z" />
    <glyph glyph-name="bracketright" unicode="]" horiz-adv-x="464" 
d="M367 -129v1192h-367v-180h143v-830h-143v-182h367z" />
    <glyph glyph-name="asciicircum" unicode="^" horiz-adv-x="634" 
d="M388 1024l-117 76l-127 -76h-170l227 205h144l219 -205h-176z" />
    <glyph glyph-name="underscore" unicode="_" horiz-adv-x="491" 
 />
    <glyph glyph-name="grave" unicode="`" horiz-adv-x="491" 
d="M299 995l-315 152l178 129l244 -205z" />
    <glyph glyph-name="a" unicode="a" horiz-adv-x="1800" 
d="M1294 33q-102 -33 -229 -33q-88 0 -174 18v164q72 -12 125 -12q94 0 114 33l-40 63q-172 45 -320 45q-137 0 -289 -37l-47 -71q19 -33 94 -33q43 0 105 12v-164q-80 -16 -150 -16q-102 0 -166 35q-65 -35 -167 -35q-70 0 -150 16v162q39 -4 68 -4q94 0 145 60
q55 86 111 172q-7 34 -41 71q65 19 137 72l131 199q-14 4 -35 4q-43 0 -110 -21v164q79 16 167 16q142 0 265 -36q104 36 247 36q105 0 211 -22v-160q-73 29 -120 29q-17 0 -31 -4l135 -205q70 -53 135 -72q-33 -35 -41 -71q56 -86 109 -172q51 -62 137 -62q35 0 82 8v-164
q-84 -16 -174 -16q-129 0 -234 31zM784 729l-166 -250q162 23 332 -2z" />
    <glyph glyph-name="b" unicode="b" horiz-adv-x="1538" 
d="M825 0q-225 0 -467 37q-82 -35 -202 -35q-76 0 -156 16v162q51 -8 90 -8q90 0 107 41v162q-19 51 -88 96q75 47 88 98v131q-17 41 -107 41q-39 0 -90 -8v162q80 18 156 18q118 0 202 -36q158 36 406 36q266 0 450.5 -61t184.5 -158q0 -102 -185 -186q228 -92 228 -240
q0 -106 -207 -190q-195 -78 -410 -78zM518 715v-121q76 -21 178 -21q121 0 218.5 25t97.5 55q0 41 -81 68t-192 27q-121 0 -221 -33zM518 387v-170q109 -41 230 -41q114 0 197 35t83 78q0 55 -91 87t-222 32q-103 0 -197 -21z" />
    <glyph glyph-name="c" unicode="c" horiz-adv-x="1435" 
d="M764 -16q-250 0 -440.5 112.5t-231.5 282.5q-24 41 -92 90q86 63 141 225v-30q80 127 247 196.5t376 69.5q201 -2 369 -45q69 35 270 26v-381h-316v158q-108 70 -301 70q-254 0 -317 -205q27 -47 90 -80q-72 -49 -96 -88q53 -227 368 -227q115 0 179 20q149 49 192 225
l223 -120q-10 -84 -100 -158q-174 -141 -561 -141z" />
    <glyph glyph-name="d" unicode="d" horiz-adv-x="1497" 
d="M805 -6q-316 0 -447 43q-84 -35 -202 -35q-76 0 -156 16v162q51 -8 90 -8q90 0 107 41v160q-17 53 -91 98q80 49 91 102v129q-17 41 -107 41q-39 0 -90 -8v162q80 16 156 16q116 0 202 -34q111 43 451 43q244 0 436 -109q238 -133 238 -371q0 -194 -209 -325
q-201 -123 -469 -123zM518 696v-125q12 -53 90 -102q-71 -45 -90 -94v-158q80 -45 221 -45q152 0 252 61q121 76 121 226q0 143 -129 215q-104 57 -262 57q-135 0 -203 -35z" />
    <glyph glyph-name="e" unicode="e" horiz-adv-x="1519" 
d="M1106 573v125q-139 56 -361 56q-165 0 -227 -37v-129q86 12 189 12q131 0 256 -20v-187q-132 33 -261 33q-96 0 -184 -18v-203q70 -39 232 -39q233 0 356 72v108h315v-344q-200 -8 -280 31q-193 -47 -391 -47q-254 0 -390 59q-92 -43 -217 -43q-69 0 -143 16v162
q51 -8 90 -8q88 0 107 41v162q-17 51 -88 96q75 47 88 98v140q-19 41 -107 41q-39 0 -90 -9v162q74 17 145 17q125 0 220 -43q153 51 397 51q203 0 389 -41q70 35 270 26v-340h-315z" />
    <glyph glyph-name="f" unicode="f" horiz-adv-x="1519" 
d="M1106 596v106q-119 58 -332 58q-162 0 -256 -37v-135q86 12 189 12q131 0 256 -20v-187q-132 33 -261 33q-96 0 -184 -18v-195q17 -41 107 -41q39 0 90 8v-162q-80 -16 -156 -16q-117 0 -201 35q-86 -35 -202 -35q-76 0 -156 16v162q51 -8 90 -8q88 0 107 41v162
q-19 51 -88 96q75 47 88 98v133q-19 41 -107 41q-39 0 -90 -8v162q80 16 156 16q118 0 202 -34q160 51 430 51q220 0 363 -41q72 33 270 24v-317h-315z" />
    <glyph glyph-name="g" unicode="g" horiz-adv-x="1619" 
d="M1094 211q-4 20 -4 59q-19 23 -72 23q-49 0 -125 -21v164q86 21 168 21q110 0 190 -31q78 31 189 31q82 0 170 -21v-164q-72 19 -121 19q-55 0 -78 -23v-75q0 -58 -149 -125q-191 -84 -474 -84q-249 0 -450 112.5t-244 282.5q-24 41 -94 90q86 63 143 225l-2 -30
q80 127 250 198q164 68 375 68q201 -2 369 -45q71 35 272 26v-381h-317v158q-115 72 -306 72q-254 0 -315 -207q27 -47 92 -80q-72 -51 -98 -90q45 -203 319 -221q228 -17 312 49z" />
    <glyph glyph-name="h" unicode="h" horiz-adv-x="1617" 
d="M1161 37q-84 -35 -200 -35q-76 0 -156 16v162q51 -8 90 -8q90 0 106 41v182q-131 37 -249 37q-117 0 -234 -35v-184q19 -41 107 -41q39 0 90 8v-162q-78 -16 -156 -16q-117 0 -203 35q-84 -35 -200 -35q-76 0 -156 16v162q51 -8 90 -8q90 0 107 41v160q-17 53 -91 98
q80 49 91 102v127q-17 41 -107 41q-39 0 -90 -8v162q80 18 156 18q116 0 202 -36q84 36 201 36q76 0 156 -18v-162q-51 8 -90 8q-88 0 -107 -41v-116q113 24 238 24q123 0 245 -24v116q-16 43 -106 43q-39 0 -90 -10v162q80 18 156 18q116 0 202 -36q84 36 201 36
q76 0 156 -18v-162q-52 10 -90 10q-89 0 -107 -43v-127q12 -55 90 -104q-74 -45 -90 -98v-158q18 -41 107 -41q38 0 90 8v-162q-80 -16 -156 -16q-117 0 -203 35z" />
    <glyph glyph-name="i" unicode="i" horiz-adv-x="792" 
d="M348 37q-82 -35 -196 -35q-74 0 -152 16v164q59 -14 102 -14q74 0 88 39v166q-14 53 -86 98q76 49 86 102v136q-14 36 -88 36q-43 0 -102 -12v162q78 18 152 18q114 0 196 -36q82 36 195 36q75 0 153 -18v-162q-59 12 -102 12q-74 0 -90 -36v-136q10 -55 88 -104
q-72 -45 -88 -98v-164q16 -39 90 -39q41 0 102 14v-164q-78 -16 -153 -16q-113 0 -195 35z" />
    <glyph glyph-name="j" unicode="j" horiz-adv-x="1441" 
d="M1147 700v-129q12 -53 90 -102q-74 -45 -90 -96v-176q0 -88 -148 -156q-155 -72 -368 -72q-185 0 -361 58q-71 -35 -270 -27v381h315v-160q103 -86 260 -86q97 0 177 31q73 29 73 59v146q-16 53 -88 98q78 49 88 104v127q-16 41 -106 41q-37 0 -88 -8v162q78 18 155 18
q115 0 201 -36q84 36 201 36q76 0 155 -18v-162q-47 8 -83 8q-89 0 -113 -41z" />
    <glyph glyph-name="k" unicode="k" horiz-adv-x="1648" 
d="M1141 37q-84 -35 -203 -35q-76 0 -156 16v164q58 -12 99 -12q49 0 71 16l-194 281l-240 -113v-141q19 -41 109 -41q37 0 88 8v-162q-78 -16 -156 -16q-117 0 -201 35q-86 -35 -202 -35q-76 0 -156 16v162q51 -8 90 -8q90 0 107 41v160q-17 53 -91 98q80 49 91 102v127
q-17 43 -107 43q-39 0 -90 -10v162q80 18 156 18q116 0 202 -36q84 36 201 36q78 0 156 -18v-162q-51 10 -88 10q-90 0 -109 -43v-155l445 213q-54 2 -127 -21v166q73 10 145 10q125 0 211 -30q76 30 180 30q55 0 111 -10v-160q-125 19 -168 -4l-273 -133l279 -385
q41 -59 229 -43v-160q-80 -16 -164 -16q-133 0 -245 35z" />
    <glyph glyph-name="l" unicode="l" horiz-adv-x="1353" 
d="M1257 0q-200 -6 -270 27q-151 -31 -309 -31q-186 0 -322 41q-84 -35 -200 -35q-76 0 -156 16v162q51 -8 90 -8q88 0 107 41v160q-17 51 -91 98q78 49 91 102v127q-19 43 -107 43q-39 0 -90 -10v162q80 18 156 18q116 0 200 -36q86 36 219 36q74 0 138 -18v-162
q-51 10 -90 10q-91 0 -107 -43v-129q12 -53 90 -102q-74 -45 -90 -98v-176q98 -31 205 -31q121 0 221 41v178h315v-383z" />
    <glyph glyph-name="m" unicode="m" horiz-adv-x="1912" 
d="M1456 37q-84 -35 -201 -35q-77 0 -157 16v162q51 -8 90 -8q90 0 108 41v424l-348 -588q-35 -55 -96 -55q-55 0 -86 49l-358 596v-426q16 -41 106 -41q39 0 90 8v-162q-80 -16 -145 -16q-92 0 -144 33q-63 -33 -165 -33q-70 0 -150 16v162q51 -8 90 -8q90 0 107 41v162
q-17 51 -88 96q75 47 88 98v131q-17 43 -107 43q-39 0 -90 -10v162q80 18 152 18q106 0 167 -34q95 34 207 34q56 0 95 -12l311 -508l309 512q33 8 70 8q78 0 147 -34q84 34 201 34q78 0 158 -18v-162q-52 10 -91 10q-90 0 -108 -43v-131q12 -53 90 -100q-72 -45 -90 -96
v-160q18 -41 108 -41q39 0 91 8v-162q-80 -16 -158 -16q-117 0 -203 35z" />
    <glyph glyph-name="n" unicode="n" horiz-adv-x="1579" 
d="M1284 705v-136q12 -53 90 -102q-74 -45 -90 -98v-330q-4 -29 -31 -51q-32 -27 -75 -27q-64 0 -136 66l-636 610v-68q12 -53 88 -100q-72 -45 -88 -96v-156q16 -43 106 -43q39 0 90 8v-162q-80 -16 -145 -16q-92 0 -144 33q-63 -33 -163 -33q-70 0 -150 16v162
q51 -8 90 -8q90 0 107 43v156q-17 51 -91 96q80 49 91 104v132q-17 40 -107 40q-39 0 -90 -8v162q80 19 150 19q106 0 167 -35q78 35 170 35q45 0 84 -13l504 -479v279q-16 40 -106 40q-39 0 -90 -8v162q59 19 125 19q94 0 176 -35q71 35 168 35q65 0 133 -19v-162
q-51 8 -90 8q-88 0 -107 -40z" />
    <glyph glyph-name="o" unicode="o" horiz-adv-x="1591" 
d="M1667 465l-4 12q2 0 6 -4q12 -10 0 -18q-57 -41 -67 -74q-52 -176 -264 -292t-492 -116q-283 0 -502 121t-254 295q-4 21 -72 68q-16 12 0 22v0q5 19 21 8l24 -16l-63 -2q51 37 63 51q27 27 50 72q77 156 277 251t456 95t459.5 -97.5t273.5 -250.5q27 -58 98 -111z
M1126 467q29 18 84 90q-39 96 -137 158.5t-223 62.5t-224.5 -62.5t-136.5 -158.5q11 -35 84 -90q-71 -39 -96 -76q29 -110 132.5 -183t240.5 -73q135 0 239.5 74t131.5 184q-25 35 -95 74z" />
    <glyph glyph-name="p" unicode="p" horiz-adv-x="1458" 
d="M797 313q-197 0 -279 21v-121q17 -41 107 -41q37 0 88 8v-162q-78 -16 -156 -16q-117 0 -201 35q-84 -35 -200 -35q-76 0 -156 16v162q51 -8 90 -8q88 0 107 41v160q-17 53 -91 98q78 49 91 102v129q-19 41 -107 41q-39 0 -90 -8v162q80 16 156 16q118 0 202 -34
q154 49 400 49q256 0 434 -99q168 -90 168 -202q0 -113 -182.5 -213.5t-380.5 -100.5zM518 702v-172q78 -34 195 -34q110 0 188 32q88 37 88 99q0 49 -86 81.5t-194 32.5q-119 0 -191 -39z" />
    <glyph glyph-name="q" unicode="q" horiz-adv-x="1591" 
d="M1569 393q-37 -178 -250 -295q84 -47 143 -47q54 0 103 35q-80 -195 -236 -195q-39 0 -84 15q-71 24 -176 100q-119 -24 -242 -24q-284 0 -496 117.5t-247 297.5q-25 33 -84 72q33 20 94 82q53 166 259 272.5t474 106.5q271 0 477.5 -108.5t258.5 -278.5q26 -35 90 -80
q-29 -14 -84 -70zM750 158l131 133q18 14 53 14q61 0 149 -49q56 55 76 127q-31 41 -92 82q61 41 88 78q-33 96 -123 157.5t-207 61.5q-114 0 -204.5 -61.5t-122.5 -155.5q26 -43 88 -74q-66 -47 -92 -84q20 -86 90.5 -147.5t165.5 -81.5z" />
    <glyph glyph-name="r" unicode="r" horiz-adv-x="1636" 
d="M1540 14q-98 -12 -184 -12q-289 0 -445 135q-106 94 -133 230q-153 -11 -260 14v-168q19 -41 109 -41q37 0 88 8v-162q-78 -16 -156 -16q-117 0 -201 35q-86 -35 -202 -35q-76 0 -156 16v162q51 -8 90 -8q90 0 107 41v160q-17 53 -91 98q80 49 91 102v129q-17 41 -107 41
q-39 0 -90 -8v162q80 16 156 16q118 0 202 -34q156 49 404 49q270 0 461 -66q202 -69 202 -176q0 -160 -305 -258q29 -156 115 -217q68 -49 195 -49q40 0 110 6v-154zM518 713v-156q80 -27 203 -27q133 0 227 31q105 35 105 94q0 43 -99.5 71t-222.5 28q-145 0 -213 -41z
" />
    <glyph glyph-name="s" unicode="s" horiz-adv-x="1417" 
d="M989 594v98q-110 56 -309 56q-137 0 -227 -25q-82 -21 -82 -59q0 -29 78 -35l149 -11q72 15 121 58q8 -19 16 -31q23 -33 51 -45q349 -39 500 -170q68 -57 68 -139q0 -150 -260 -250q-142 -55 -400 -55q-239 0 -401 43q-70 -35 -270 -27v320h315v-80q143 -90 317 -90
q125 0 236 45q70 28 70 61q0 45 -99.5 68.5t-236.5 33.5q-78 -16 -125 -61q-6 18 -17 31q-20 32 -47 45q-112 12 -233 41q-203 47 -203 188q0 168 268 254q189 60 396 60q172 0 370 -31q70 33 273 26v-319h-318z" />
    <glyph glyph-name="t" unicode="t" horiz-adv-x="1482" 
d="M1069 592v121q-72 30 -135 30q-47 0 -80 -20v-154q12 -53 88 -100q-72 -45 -88 -96v-160q16 -41 107 -41q36 0 88 8v-162q-78 -16 -156 -16q-115 0 -201 35q-84 -35 -198 -35q-78 0 -158 16v162q51 -8 90 -8q90 0 106 41v162q-16 51 -88 96q76 47 88 98v154
q-32 20 -79 20q-64 0 -138 -30v-121h-315v319q199 7 270 -26q99 28 201 28q125 0 221 -36q99 36 221 36q103 0 203 -28q70 33 270 26v-319h-317z" />
    <glyph glyph-name="u" unicode="u" 
d="M1288 700v-131q12 -53 88 -100q-69 -45 -88 -96v-84q0 -35 -49 -99q-63 -79 -164 -131q-131 -67 -299 -67q-221 0 -368 69q-111 52 -170 134q-41 55 -41 88v90q-17 53 -88 98q75 47 88 98v131q-17 43 -107 43q-39 0 -90 -10v162q68 16 141 16q115 0 217 -34
q105 36 217 36q76 0 140 -18v-162q-51 10 -90 10q-90 0 -107 -43v-133q12 -51 88 -98q-69 -45 -88 -96v-92q0 -17 66 -54q88 -53 219 -53q119 0 217 57q90 52 90 103v39q-16 51 -90 98q78 47 90 100v129q-18 43 -106 43q-39 0 -91 -10v162q56 18 117 18q90 0 168 -34
q78 34 168 34q61 0 119 -18v-162q-51 10 -90 10q-90 0 -107 -43z" />
    <glyph glyph-name="v" unicode="v" horiz-adv-x="1437" 
d="M1141 696l-90 -159q8 -39 59 -74q-76 -19 -145 -74l-201 -346q-33 -55 -94 -55q-43 0 -72 49l-215 354q-70 53 -145 74q49 31 59 70q-43 73 -88 147q-45 59 -113 59q-39 0 -96 -18v172q80 18 156 18q116 0 200 -36q84 36 201 36q76 0 156 -18v-164q-80 23 -138 23
q-32 0 -55 -9l232 -368l211 358q-17 21 -64 21q-49 0 -129 -25v164q82 18 156 18q98 0 161 -30q58 30 138 30q59 0 114 -18v-164q-49 14 -90 14q-78 0 -108 -49z" />
    <glyph glyph-name="w" unicode="w" horiz-adv-x="2177" 
d="M1894 707l-102 -172q8 -39 59 -72q-75 -21 -145 -74l-197 -332q-41 -67 -133 -67q-71 0 -106 57l-248 416l-240 -402q-39 -67 -116 -67q-58 0 -95 61l-198 336q-70 53 -146 72q52 33 60 72q-43 75 -84 149q-47 61 -119 61q-35 0 -84 -14v164q74 18 150 18q118 0 212 -41
q117 41 252 41q80 0 154 -16v-166q-66 17 -115 17q-59 0 -86 -23l178 -301l254 438q37 64 105 64q59 0 92 -58l274 -469l195 322q-25 27 -84 27q-47 0 -111 -15v162q76 18 146 18q110 0 186 -36q68 36 158 36q59 0 121 -18v-162q-53 12 -92 12q-72 0 -95 -38z" />
    <glyph glyph-name="x" unicode="x" horiz-adv-x="1476" 
d="M1022 37q-90 -35 -209 -35q-78 0 -158 16v164q72 -18 123 -4l-143 127l-162 -127q45 -20 129 4v-164q-78 -16 -143 -16q-92 0 -142 33q-49 -33 -141 -33q-63 0 -143 16v166q26 -10 61 -10q78 0 142 49l262 203l-295 266q-53 47 -142 47q-32 0 -61 -6v162q80 16 162 16
q125 0 221 -34q84 36 203 36q76 0 155 -18v-164q-57 19 -100 19q-27 0 -47 -7l145 -131l160 125q-43 21 -129 -4v162q80 18 143 18q93 0 144 -32q49 32 139 32q66 0 145 -18v-162q-26 6 -57 6q-84 0 -145 -47l-262 -203l301 -268q53 -47 143 -47q31 0 57 6v-162
q-78 -16 -155 -16q-117 0 -201 35z" />
    <glyph glyph-name="y" unicode="y" horiz-adv-x="1538" 
d="M1260 707l-218 -168q-12 -27 31 -68q10 -10 23 -18q-97 -2 -203 -31l-6 -4v-205q16 -41 106 -41q39 0 90 8v-162q-79 -16 -155 -16q-117 0 -203 35q-84 -35 -201 -35q-75 0 -155 16v162q51 -8 90 -8q88 0 106 41v154l-61 53q-98 33 -193 35q70 53 54 92q-52 51 -160 143
q-68 49 -142 49q-30 0 -63 -6v162q61 16 131 16q111 0 211 -39q84 41 211 41q78 0 162 -18v-166q-58 23 -105 23q-24 0 -47 -9l209 -186l227 178q-43 21 -129 -4v164q80 18 148 18q98 0 158 -34q67 34 149 34q59 0 117 -18v-166q-37 12 -76 12q-61 0 -106 -34z" />
    <glyph glyph-name="z" unicode="z" horiz-adv-x="1294" 
d="M874 522q5 -30 37 -65q-65 -19 -174 -84l-172 -187q62 -14 129 -14q127 0 219 47v100h297v-319q-188 -8 -254 27q-165 -35 -327 -35q-189 0 -346 45q-80 -33 -164 -33q-64 0 -119 23l362 391q-8 26 -34 67q65 7 172 78l164 178q-60 17 -138 17q-125 0 -207 -41v-123h-294
v319q184 7 251 -26q91 28 279 28q193 0 309 -20q68 20 168 20q90 0 189 -18z" />
    <glyph glyph-name="braceleft" unicode="{" horiz-adv-x="516" 
d="M307 -143q-157 12 -186 153q-8 43 -6 119q2 84 -2 117q-13 90 -113 92v246q72 0 96 41q19 32 19 116q0 115 4 150q12 88 63 131q43 37 113 45q18 2 123 2v-238q-64 0 -76 -6q-29 -12 -33 -69q-4 -82 -6 -162q-12 -88 -80 -133q70 -49 80 -142q4 -83 6 -167q6 -48 37 -58
q10 -4 72 -4v-235q-99 0 -111 2z" />
    <glyph glyph-name="bar" unicode="|" horiz-adv-x="516" 
d="M113 -143q155 12 184 153q10 43 8 119q-4 84 2 117q10 90 111 92v246q-72 0 -96 41q-17 32 -17 116q0 115 -6 150q-12 88 -63 131q-43 37 -113 45q-19 2 -123 2v-238q63 0 76 -6q28 -12 35 -69q2 -82 4 -162q12 -88 80 -133q-70 -49 -80 -142q-4 -83 -6 -167
q-5 -48 -37 -58q-11 -4 -72 -4v-235q98 0 113 2z" />
    <glyph glyph-name="braceright" unicode="}" horiz-adv-x="516" 
d="M113 -143q155 12 184 153q10 43 8 119q-4 84 2 117q10 90 111 92v246q-72 0 -96 41q-17 32 -17 116q0 115 -6 150q-12 88 -63 131q-43 37 -113 45q-19 2 -123 2v-238q63 0 76 -6q28 -12 35 -69q2 -82 4 -162q12 -88 80 -133q-70 -49 -80 -142q-4 -83 -6 -167
q-5 -48 -37 -58q-11 -4 -72 -4v-235q98 0 113 2z" />
    <glyph glyph-name="asciitilde" unicode="~" horiz-adv-x="792" 
d="M293 403q-31 13 -72 13q-96 0 -221 -62v242q115 49 221 49q86 0 158 -29q61 -26 123 -26q112 0 194 74v-254q-98 -58 -182 -58q-90 0 -221 51z" />
    <glyph glyph-name="dieresis" unicode="&#xa8;" horiz-adv-x="1024" 
 />
    <glyph glyph-name="copyright" unicode="&#xa9;" horiz-adv-x="1386" 
d="M643 -80q-256 0 -446 148q-197 153 -197 383q0 227 197 383q190 147 446 147q258 0 449 -147q196 -156 196 -383q0 -230 -193.5 -380.5t-451.5 -150.5zM643 842q-211 0 -357.5 -117t-146.5 -274q0 -160 146.5 -277t357.5 -117q213 0 359.5 117t146.5 277
q0 157 -146.5 274t-359.5 117zM618 170q-159 0 -276 80t-117 196q0 129 119 207q109 72 274 70q111 0 207 -25q43 19 162 15v-232h-194v92q-62 37 -162 37q-86 0 -133 -46t-47 -118q0 -71 52 -116t152 -45q64 0 99 10q82 27 106 133l139 -76q-6 -55 -59 -100
q-98 -82 -322 -82z" />
    <glyph glyph-name="registered" unicode="&#xae;" horiz-adv-x="750" 
 />
    <glyph glyph-name="acute" unicode="&#xb4;" horiz-adv-x="1024" 
 />
    <glyph glyph-name="paragraph" unicode="&#xb6;" horiz-adv-x="1024" 
 />
    <glyph glyph-name="onequarter" unicode="&#xbc;" horiz-adv-x="1950" 
 />
    <glyph glyph-name="onehalf" unicode="&#xbd;" horiz-adv-x="1950" 
 />
    <glyph glyph-name="threequarters" unicode="&#xbe;" horiz-adv-x="1950" 
 />
    <glyph glyph-name="Agrave" unicode="&#xc0;" horiz-adv-x="1800" 
d="M877 967l-342 168l196 141l258 -225zM1294 33q-102 -33 -229 -33q-88 0 -174 18v166q72 -12 125 -12q94 0 114 35l-40 63q-172 45 -320 45q-137 0 -289 -39l-47 -71q19 -33 94 -33q43 0 105 12v-166q-80 -16 -150 -16q-102 0 -166 35q-65 -35 -167 -35q-70 0 -150 16v164
q39 -4 68 -4q94 0 145 62q55 86 111 172q-7 37 -41 73q65 19 137 72l131 201q-14 6 -35 6q-43 0 -110 -23v166q79 17 167 17q142 0 265 -37q104 37 247 37q105 0 211 -23v-162q-73 29 -120 29q-17 0 -31 -4l135 -207q70 -53 135 -72q-33 -36 -41 -73q56 -86 109 -174
q51 -62 137 -62q35 0 82 8v-166q-84 -16 -174 -16q-129 0 -234 31zM784 737l-166 -252q162 23 332 -4z" />
    <glyph glyph-name="Aacute" unicode="&#xc1;" horiz-adv-x="1800" 
d="M834 975l-113 84l258 225l170 -143zM1294 33q-102 -33 -229 -33q-88 0 -174 18v166q72 -12 125 -12q94 0 114 35l-40 63q-172 45 -320 45q-137 0 -289 -39l-47 -71q19 -33 94 -33q43 0 105 12v-166q-80 -16 -150 -16q-102 0 -166 35q-65 -35 -167 -35q-70 0 -150 16v164
q39 -4 68 -4q94 0 145 62q55 86 111 172q-7 37 -41 73q65 19 137 72l131 201q-14 6 -35 6q-43 0 -110 -23v166q79 17 167 17q142 0 265 -37q104 37 247 37q105 0 211 -23v-162q-73 29 -120 29q-17 0 -31 -4l135 -207q70 -53 135 -72q-33 -36 -41 -73q56 -86 109 -174
q51 -62 137 -62q35 0 82 8v-166q-84 -16 -174 -16q-129 0 -234 31zM784 737l-166 -252q162 23 332 -4z" />
    <glyph glyph-name="Acircumflex" unicode="&#xc2;" horiz-adv-x="1800" 
d="M963 993l-121 86l-133 -86h-177l238 234h150l225 -234h-182zM1294 33q-102 -33 -229 -33q-88 0 -174 18v166q72 -12 125 -12q94 0 114 33l-40 63q-172 47 -320 47q-137 0 -289 -39l-47 -71q19 -33 94 -33q43 0 105 12v-166q-80 -16 -150 -16q-102 0 -166 35
q-65 -35 -167 -35q-70 0 -150 16v164q39 -4 68 -4q94 0 145 62q55 86 111 172q-7 34 -41 73q65 17 137 72l131 201q-14 4 -35 4q-43 0 -110 -23v166q79 19 167 19q142 0 265 -37q104 35 247 35q105 0 211 -21v-162q-73 27 -120 27q-17 0 -31 -2l135 -209q70 -53 135 -70
q-33 -36 -41 -73q56 -86 109 -174q51 -62 137 -62q35 0 82 8v-166q-84 -16 -174 -16q-129 0 -234 31zM784 735l-166 -252q162 25 332 -2z" />
    <glyph glyph-name="Atilde" unicode="&#xc3;" horiz-adv-x="1800" 
d="M815 1032q-22 8 -51 8q-68 0 -164 -45v183q86 34 166 34q37 0 100.5 -18t96.5 -18q84 0 149 57v-195q-76 -41 -137 -41q-66 0 -160 35zM1294 33q-102 -33 -229 -33q-88 0 -174 18v166q72 -12 125 -12q94 0 114 33l-40 63q-172 47 -320 47q-137 0 -289 -39l-47 -71
q19 -33 94 -33q43 0 105 12v-166q-80 -16 -150 -16q-102 0 -166 35q-65 -35 -167 -35q-70 0 -150 16v164q39 -4 68 -4q94 0 145 62q55 86 111 172q-7 34 -41 73q65 17 137 72l131 201q-14 4 -35 4q-43 0 -110 -23v166q79 19 167 19q142 0 265 -37q104 35 247 35
q105 0 211 -21v-162q-73 27 -120 27q-17 0 -31 -2l135 -209q70 -53 135 -70q-33 -36 -41 -73q56 -86 109 -174q51 -62 137 -62q35 0 82 8v-166q-84 -16 -174 -16q-129 0 -234 31zM784 735l-166 -252q162 25 332 -2z" />
    <glyph glyph-name="Egrave" unicode="&#xc8;" horiz-adv-x="1519" 
d="M793 985l-342 170l198 139l256 -225zM1106 580v127q-139 55 -361 55q-165 0 -227 -37v-131q86 12 189 12q131 0 256 -20v-189q-132 33 -261 33q-96 0 -184 -18v-205q70 -39 232 -39q233 0 356 74v108h315v-348q-200 -8 -280 31q-193 -47 -391 -47q-254 0 -390 61
q-92 -45 -217 -45q-69 0 -143 16v164q51 -8 90 -8q88 0 107 41v164q-17 51 -88 96q75 49 88 103v139q-19 41 -107 41q-39 0 -90 -8v163q74 17 145 17q125 0 220 -43q153 51 397 51q203 0 389 -41q70 35 270 27v-344h-315z" />
    <glyph glyph-name="Eacute" unicode="&#xc9;" horiz-adv-x="1519" 
d="M741 967l-112 84l258 227l170 -143zM1106 580v127q-139 53 -361 53q-165 0 -227 -35v-131q86 12 189 12q131 0 256 -20v-189q-132 33 -261 33q-96 0 -184 -18v-205q70 -39 232 -39q233 0 356 74v108h315v-348q-200 -8 -280 31q-193 -47 -391 -47q-254 0 -390 59
q-92 -43 -217 -43q-69 0 -143 16v164q51 -8 90 -8q88 0 107 41v164q-17 51 -88 96q75 49 88 100v142q-19 41 -107 41q-39 0 -90 -8v163q74 17 145 17q125 0 220 -45q153 53 397 53q203 0 389 -41q70 35 270 27v-344h-315z" />
    <glyph glyph-name="Ecircumflex" unicode="&#xca;" horiz-adv-x="1519" 
d="M866 995l-121 86l-131 -86h-176l236 234h149l226 -234h-183zM1106 578v127q-139 55 -361 55q-165 0 -227 -35v-131q86 12 189 12q131 0 256 -22v-187q-132 33 -261 33q-96 0 -184 -18v-205q70 -39 232 -39q233 0 356 72v110h315v-348q-200 -8 -280 31q-193 -47 -391 -47
q-254 0 -390 59q-92 -43 -217 -43q-69 0 -143 16v164q51 -8 90 -8q88 0 107 41v164q-17 51 -88 96q75 47 88 100v140q-19 43 -107 43q-39 0 -90 -8v161q74 17 145 17q125 0 220 -43q153 51 397 51q203 0 389 -41q70 35 270 29v-346h-315z" />
    <glyph glyph-name="Igrave" unicode="&#xcc;" horiz-adv-x="792" 
d="M397 975l-331 168l190 139l252 -225zM348 37q-82 -35 -196 -35q-74 0 -152 16v166q59 -14 102 -14q74 0 88 39v168q-14 53 -86 98q76 49 86 105v137q-14 37 -88 37q-43 0 -102 -13v164q78 19 152 19q114 0 196 -37q82 37 195 37q75 0 153 -19v-164q-59 13 -102 13
q-74 0 -90 -37v-137q10 -56 88 -105q-72 -47 -88 -100v-166q16 -39 90 -39q43 0 102 14v-166q-78 -16 -153 -16q-113 0 -195 35z" />
    <glyph glyph-name="Iacute" unicode="&#xcd;" horiz-adv-x="792" 
d="M348 969l-110 82l251 227l164 -143zM348 37q-82 -35 -196 -35q-74 0 -152 16v166q59 -14 102 -14q74 0 88 39v168q-14 53 -86 98q76 49 86 105v137q-14 37 -88 37q-43 0 -102 -13v164q78 19 152 19q114 0 196 -37q82 37 195 37q75 0 153 -19v-164q-59 13 -102 13
q-74 0 -90 -37v-137q10 -56 88 -105q-72 -47 -88 -100v-166q16 -39 90 -39q43 0 102 12v-164q-78 -16 -153 -16q-113 0 -195 35z" />
    <glyph glyph-name="Ograve" unicode="&#xd2;" horiz-adv-x="1591" 
d="M760 1001l-334 164l199 142l260 -228zM1585 475q6 -10 -2 -16q-57 -41 -67 -74q-52 -178 -264 -295t-492 -117q-283 0 -502 122t-254 298q-4 21 -72 70q-16 10 0 20v2q5 19 21 7l24 -15l-63 -2q51 37 66 51q24 27 47 72q77 158 277 254t456 96t459.5 -98t273.5 -254
q27 -57 98 -111zM1040 471q29 21 84 92q-39 99 -137 161t-223 62t-224.5 -62t-136.5 -161q11 -35 84 -92q-71 -39 -96 -76q29 -110 132.5 -184t240.5 -74q135 0 239.5 74t131.5 186q-25 35 -95 74z" />
    <glyph glyph-name="Oacute" unicode="&#xd3;" horiz-adv-x="1591" 
d="M737 997l-112 84l258 228l170 -144zM1585 475q6 -10 -2 -16q-57 -41 -67 -74q-52 -178 -264 -295t-492 -117q-283 0 -502 122t-254 298q-4 21 -72 70q-16 10 0 20v2q5 19 21 7l24 -15l-63 -2q51 37 66 51q24 27 47 72q77 158 277 254t456 96t459.5 -98t273.5 -254
q27 -57 98 -111zM1040 471q29 21 84 92q-39 99 -137 161t-223 62t-224.5 -62t-136.5 -161q11 -35 84 -92q-71 -39 -96 -76q29 -110 132.5 -184t240.5 -74q135 0 239.5 74t131.5 186q-25 37 -95 74z" />
    <glyph glyph-name="Ocircumflex" unicode="&#xd4;" horiz-adv-x="1591" 
d="M868 995l-120 86l-134 -86h-176l236 234h149l228 -234h-183zM1585 475q6 -10 -2 -16q-57 -41 -67 -74q-52 -178 -264 -295t-492 -117q-283 0 -502 122t-254 296q-4 21 -72 70q-16 12 0 22v0q5 19 21 9l24 -17l-63 -2q51 39 63 53q27 25 50 72q77 156 277 253t456 97
t459.5 -98t273.5 -254q27 -59 98 -113zM1040 471q29 21 84 90q-39 98 -137 160.5t-223 62.5t-224.5 -62.5t-136.5 -158.5q11 -37 84 -92q-71 -39 -96 -76q29 -110 132.5 -184t240.5 -74q135 0 239.5 74t131.5 186q-25 35 -95 74z" />
    <glyph glyph-name="Otilde" unicode="&#xd5;" horiz-adv-x="1591" 
d="M735 1038q-20 9 -49 9q-67 0 -164 -46v183q86 33 166 33q37 0 99.5 -17.5t97.5 -17.5q82 0 147 55v-193q-74 -43 -137 -43t-160 37zM1585 475q6 -10 -2 -16q-57 -41 -67 -74q-52 -178 -264 -295t-492 -117q-283 0 -502 122t-254 296q-4 21 -72 70q-16 12 0 22v0
q5 19 21 9l24 -17l-63 -2q51 39 63 51q27 27 50 74q77 156 277 252t456 96t459.5 -97t273.5 -253q27 -59 98 -113zM1040 471q29 18 84 90q-39 98 -137 160.5t-223 62.5t-224.5 -62.5t-136.5 -158.5q11 -37 84 -92q-71 -39 -96 -76q29 -110 132.5 -184t240.5 -74
q135 0 239.5 74t131.5 186q-25 35 -95 74z" />
    <glyph glyph-name="Ugrave" unicode="&#xd9;" 
d="M840 967l-332 163l199 140l258 -226zM1288 709v-134q12 -53 88 -100q-69 -45 -88 -98v-84q0 -35 -49 -98q-63 -84 -164 -136q-131 -67 -299 -67q-221 0 -368 69q-111 54 -170 136q-41 57 -41 88v92q-17 53 -88 98q75 49 88 100v134q-17 43 -107 43q-39 0 -90 -11v164
q68 17 141 17q115 0 217 -35q105 35 217 35q76 0 140 -17v-164q-51 11 -90 11q-90 0 -107 -43v-134q12 -53 88 -100q-69 -45 -88 -98v-92q0 -17 66 -56q88 -53 219 -53q119 0 217 57q90 54 90 103v41q-16 53 -90 98q78 49 90 103v131q-18 43 -109 43q-36 0 -88 -11v162
q56 21 117 21q90 0 168 -37q78 37 168 37q61 0 119 -21v-162q-51 11 -90 11q-90 0 -107 -43z" />
    <glyph glyph-name="Uacute" unicode="&#xda;" 
d="M784 985l-114 84l260 227l168 -143zM1288 709v-134q12 -53 88 -100q-69 -45 -88 -98v-84q0 -35 -49 -98q-63 -84 -164 -136q-131 -67 -299 -67q-221 0 -368 69q-111 54 -170 136q-41 57 -41 88v92q-17 53 -88 98q75 49 88 103v131q-17 43 -107 43q-39 0 -90 -9v162
q68 19 141 19q115 0 217 -37q105 37 217 37q76 0 140 -19v-162q-51 9 -90 9q-90 0 -107 -43v-134q12 -53 88 -100q-69 -45 -88 -98v-92q0 -17 66 -56q88 -53 219 -53q119 0 217 57q90 54 90 105v39q-16 53 -90 98q78 49 90 105v129q-18 43 -109 43q-36 0 -88 -9v162
q56 19 117 19q90 0 168 -35q78 35 168 35q61 0 119 -19v-162q-51 9 -90 9q-90 0 -107 -43z" />
    <glyph glyph-name="Yacute" unicode="&#xdd;" horiz-adv-x="1538" 
d="M776 975l-112 84l258 227l170 -143zM1260 715l-218 -170q-14 -29 35 -72q8 -8 19 -16q-97 -2 -203 -29l-6 -6v-207q16 -41 106 -41q39 0 90 8v-164q-79 -16 -155 -16q-117 0 -203 35q-84 -35 -201 -35q-75 0 -155 16v164q51 -8 90 -8q88 0 106 41v156l-61 53
q-98 33 -193 35q70 55 54 94q-52 51 -160 145q-68 52 -142 52q-30 0 -63 -9v164q61 17 131 17q111 0 211 -39q84 41 211 41q78 0 162 -19v-168q-58 23 -105 23q-24 0 -47 -6l209 -191l227 180q-43 21 -129 -4v166q80 19 148 19q98 0 158 -35q67 35 149 35q59 0 117 -19v-168
q-37 13 -76 13q-61 0 -106 -35z" />
    <glyph glyph-name="agrave" unicode="&#xe0;" horiz-adv-x="1800" 
d="M877 967l-342 168l196 141l258 -225zM1294 33q-102 -33 -229 -33q-88 0 -174 18v166q72 -12 125 -12q94 0 114 35l-40 63q-172 45 -320 45q-137 0 -289 -39l-47 -71q19 -33 94 -33q43 0 105 12v-166q-80 -16 -150 -16q-102 0 -166 35q-65 -35 -167 -35q-70 0 -150 16v164
q39 -4 68 -4q94 0 145 62q55 86 111 172q-7 37 -41 73q65 19 137 72l131 201q-14 6 -35 6q-43 0 -110 -23v166q79 17 167 17q142 0 265 -37q104 37 247 37q105 0 211 -23v-162q-73 29 -120 29q-17 0 -31 -4l135 -207q70 -53 135 -72q-33 -36 -41 -73q56 -86 109 -174
q51 -62 137 -62q35 0 82 8v-166q-84 -16 -174 -16q-129 0 -234 31zM784 737l-166 -252q162 23 332 -4z" />
    <glyph glyph-name="aacute" unicode="&#xe1;" horiz-adv-x="1800" 
d="M834 975l-113 84l258 225l170 -143zM1294 33q-102 -33 -229 -33q-88 0 -174 18v166q72 -12 125 -12q94 0 114 35l-40 63q-172 45 -320 45q-137 0 -289 -39l-47 -71q19 -33 94 -33q43 0 105 12v-166q-80 -16 -150 -16q-102 0 -166 35q-65 -35 -167 -35q-70 0 -150 16v164
q39 -4 68 -4q94 0 145 62q55 86 111 172q-7 37 -41 73q65 19 137 72l131 201q-14 6 -35 6q-43 0 -110 -23v166q79 17 167 17q142 0 265 -37q104 37 247 37q105 0 211 -23v-162q-73 29 -120 29q-17 0 -31 -4l135 -207q70 -53 135 -72q-33 -36 -41 -73q56 -86 109 -174
q51 -62 137 -62q35 0 82 8v-166q-84 -16 -174 -16q-129 0 -234 31zM784 737l-166 -252q162 23 332 -4z" />
    <glyph glyph-name="acircumflex" unicode="&#xe2;" horiz-adv-x="1800" 
d="M963 993l-121 86l-133 -86h-177l238 234h150l225 -234h-182zM1294 33q-102 -33 -229 -33q-88 0 -174 18v166q72 -12 125 -12q94 0 114 33l-40 63q-172 47 -320 47q-137 0 -289 -39l-47 -71q19 -33 94 -33q43 0 105 12v-166q-80 -16 -150 -16q-102 0 -166 35
q-65 -35 -167 -35q-70 0 -150 16v164q39 -4 68 -4q94 0 145 62q55 86 111 172q-7 34 -41 73q65 17 137 72l131 201q-14 4 -35 4q-43 0 -110 -23v166q79 19 167 19q142 0 265 -37q104 35 247 35q105 0 211 -21v-162q-73 27 -120 27q-17 0 -31 -2l135 -209q70 -53 135 -70
q-33 -36 -41 -73q56 -86 109 -174q51 -62 137 -62q35 0 82 8v-166q-84 -16 -174 -16q-129 0 -234 31zM784 735l-166 -252q162 25 332 -2z" />
    <glyph glyph-name="atilde" unicode="&#xe3;" horiz-adv-x="1800" 
d="M815 1032q-22 8 -51 8q-68 0 -164 -45v183q86 34 166 34q37 0 100.5 -18t96.5 -18q84 0 149 57v-195q-76 -41 -137 -41q-66 0 -160 35zM1294 33q-102 -33 -229 -33q-88 0 -174 18v166q72 -12 125 -12q94 0 114 33l-40 63q-172 47 -320 47q-137 0 -289 -39l-47 -71
q19 -33 94 -33q43 0 105 12v-166q-80 -16 -150 -16q-102 0 -166 35q-65 -35 -167 -35q-70 0 -150 16v164q39 -4 68 -4q94 0 145 62q55 86 111 172q-7 34 -41 73q65 17 137 72l131 201q-14 4 -35 4q-43 0 -110 -23v166q79 19 167 19q142 0 265 -37q104 35 247 35
q105 0 211 -21v-162q-73 27 -120 27q-17 0 -31 -2l135 -209q70 -53 135 -70q-33 -36 -41 -73q56 -86 109 -174q51 -62 137 -62q35 0 82 8v-166q-84 -16 -174 -16q-129 0 -234 31zM784 735l-166 -252q162 25 332 -2z" />
    <glyph glyph-name="egrave" unicode="&#xe8;" horiz-adv-x="1519" 
d="M793 985l-342 170l198 139l256 -225zM1106 580v127q-139 55 -361 55q-165 0 -227 -37v-131q86 12 189 12q131 0 256 -20v-189q-132 33 -261 33q-96 0 -184 -18v-205q70 -39 232 -39q233 0 356 74v108h315v-348q-200 -8 -280 31q-193 -47 -391 -47q-254 0 -390 61
q-92 -45 -217 -45q-69 0 -143 16v164q51 -8 90 -8q88 0 107 41v164q-17 51 -88 96q75 49 88 103v139q-19 41 -107 41q-39 0 -90 -8v163q74 17 145 17q125 0 220 -43q153 51 397 51q203 0 389 -41q70 35 270 27v-344h-315z" />
    <glyph glyph-name="eacute" unicode="&#xe9;" horiz-adv-x="1519" 
d="M741 967l-112 84l258 227l170 -143zM1106 580v127q-139 53 -361 53q-165 0 -227 -35v-131q86 12 189 12q131 0 256 -20v-189q-132 33 -261 33q-96 0 -184 -18v-205q70 -39 232 -39q233 0 356 74v108h315v-348q-200 -8 -280 31q-193 -47 -391 -47q-254 0 -390 59
q-92 -43 -217 -43q-69 0 -143 16v164q51 -8 90 -8q88 0 107 41v164q-17 51 -88 96q75 49 88 100v142q-19 41 -107 41q-39 0 -90 -8v163q74 17 145 17q125 0 220 -45q153 53 397 53q203 0 389 -41q70 35 270 27v-344h-315z" />
    <glyph glyph-name="ecircumflex" unicode="&#xea;" horiz-adv-x="1519" 
d="M866 995l-121 86l-131 -86h-176l236 234h149l226 -234h-183zM1106 578v127q-139 55 -361 55q-165 0 -227 -35v-131q86 12 189 12q131 0 256 -22v-187q-132 33 -261 33q-96 0 -184 -18v-205q70 -39 232 -39q233 0 356 72v110h315v-348q-200 -8 -280 31q-193 -47 -391 -47
q-254 0 -390 59q-92 -43 -217 -43q-69 0 -143 16v164q51 -8 90 -8q88 0 107 41v164q-17 51 -88 96q75 47 88 100v140q-19 43 -107 43q-39 0 -90 -8v161q74 17 145 17q125 0 220 -43q153 51 397 51q203 0 389 -41q70 35 270 29v-346h-315z" />
    <glyph glyph-name="igrave" unicode="&#xec;" horiz-adv-x="792" 
d="M397 975l-331 168l190 139l252 -225zM348 37q-82 -35 -196 -35q-74 0 -152 16v166q59 -14 102 -14q74 0 88 39v168q-14 53 -86 98q76 49 86 105v137q-14 37 -88 37q-43 0 -102 -13v164q78 19 152 19q114 0 196 -37q82 37 195 37q75 0 153 -19v-164q-59 13 -102 13
q-74 0 -90 -37v-137q10 -56 88 -105q-72 -47 -88 -100v-166q16 -39 90 -39q43 0 102 14v-166q-78 -16 -153 -16q-113 0 -195 35z" />
    <glyph glyph-name="iacute" unicode="&#xed;" horiz-adv-x="792" 
d="M348 969l-110 82l251 227l164 -143zM348 37q-82 -35 -196 -35q-74 0 -152 16v166q59 -14 102 -14q74 0 88 39v168q-14 53 -86 98q76 49 86 105v137q-14 37 -88 37q-43 0 -102 -13v164q78 19 152 19q114 0 196 -37q82 37 195 37q75 0 153 -19v-164q-59 13 -102 13
q-74 0 -90 -37v-137q10 -56 88 -105q-72 -47 -88 -100v-166q16 -39 90 -39q43 0 102 12v-164q-78 -16 -153 -16q-113 0 -195 35z" />
    <glyph glyph-name="ograve" unicode="&#xf2;" horiz-adv-x="1591" 
d="M760 1001l-334 164l199 142l260 -228zM1585 475q6 -10 -2 -16q-57 -41 -67 -74q-52 -178 -264 -295t-492 -117q-283 0 -502 122t-254 298q-4 21 -72 70q-16 10 0 20v2q5 19 21 7l24 -15l-63 -2q51 37 66 51q24 27 47 72q77 158 277 254t456 96t459.5 -98t273.5 -254
q27 -57 98 -111zM1040 471q29 21 84 92q-39 99 -137 161t-223 62t-224.5 -62t-136.5 -161q11 -35 84 -92q-71 -39 -96 -76q29 -110 132.5 -184t240.5 -74q135 0 239.5 74t131.5 186q-25 35 -95 74z" />
    <glyph glyph-name="oacute" unicode="&#xf3;" horiz-adv-x="1591" 
d="M737 997l-112 84l258 228l170 -144zM1585 475q6 -10 -2 -16q-57 -41 -67 -74q-52 -178 -264 -295t-492 -117q-283 0 -502 122t-254 298q-4 21 -72 70q-16 10 0 20v2q5 19 21 7l24 -15l-63 -2q51 37 66 51q24 27 47 72q77 158 277 254t456 96t459.5 -98t273.5 -254
q27 -57 98 -111zM1040 471q29 21 84 92q-39 99 -137 161t-223 62t-224.5 -62t-136.5 -161q11 -35 84 -92q-71 -39 -96 -76q29 -110 132.5 -184t240.5 -74q135 0 239.5 74t131.5 186q-25 37 -95 74z" />
    <glyph glyph-name="ocircumflex" unicode="&#xf4;" horiz-adv-x="1591" 
d="M868 995l-120 86l-134 -86h-176l236 234h149l228 -234h-183zM1585 475q6 -10 -2 -16q-57 -41 -67 -74q-52 -178 -264 -295t-492 -117q-283 0 -502 122t-254 296q-4 21 -72 70q-16 12 0 22v0q5 19 21 9l24 -17l-63 -2q51 39 63 53q27 25 50 72q77 156 277 253t456 97
t459.5 -98t273.5 -254q27 -59 98 -113zM1040 471q29 21 84 90q-39 98 -137 160.5t-223 62.5t-224.5 -62.5t-136.5 -158.5q11 -37 84 -92q-71 -39 -96 -76q29 -110 132.5 -184t240.5 -74q135 0 239.5 74t131.5 186q-25 35 -95 74z" />
    <glyph glyph-name="otilde" unicode="&#xf5;" horiz-adv-x="1591" 
d="M735 1038q-20 9 -49 9q-67 0 -164 -46v183q86 33 166 33q37 0 99.5 -17.5t97.5 -17.5q82 0 147 55v-193q-74 -43 -137 -43t-160 37zM1585 475q6 -10 -2 -16q-57 -41 -67 -74q-52 -178 -264 -295t-492 -117q-283 0 -502 122t-254 296q-4 21 -72 70q-16 12 0 22v0
q5 19 21 9l24 -17l-63 -2q51 39 63 51q27 27 50 74q77 156 277 252t456 96t459.5 -97t273.5 -253q27 -59 98 -113zM1040 471q29 18 84 90q-39 98 -137 160.5t-223 62.5t-224.5 -62.5t-136.5 -158.5q11 -37 84 -92q-71 -39 -96 -76q29 -110 132.5 -184t240.5 -74
q135 0 239.5 74t131.5 186q-25 35 -95 74z" />
    <glyph glyph-name="divide" unicode="&#xf7;" horiz-adv-x="1706" 
 />
    <glyph glyph-name="glyph216" unicode="&#xf9;" 
d="M840 967l-332 163l199 140l258 -226zM1288 709v-134q12 -53 88 -100q-69 -45 -88 -98v-84q0 -35 -49 -98q-63 -84 -164 -136q-131 -67 -299 -67q-221 0 -368 69q-111 54 -170 136q-41 57 -41 88v92q-17 53 -88 98q75 49 88 100v134q-17 43 -107 43q-39 0 -90 -11v164
q68 17 141 17q115 0 217 -35q105 35 217 35q76 0 140 -17v-164q-51 11 -90 11q-90 0 -107 -43v-134q12 -53 88 -100q-69 -45 -88 -98v-92q0 -17 66 -56q88 -53 219 -53q119 0 217 57q90 54 90 103v41q-16 53 -90 98q78 49 90 103v131q-18 43 -109 43q-36 0 -88 -11v162
q56 21 117 21q90 0 168 -37q78 37 168 37q61 0 119 -21v-162q-51 11 -90 11q-90 0 -107 -43z" />
    <glyph glyph-name="glyph217" unicode="&#xfa;" 
d="M784 985l-114 84l260 227l168 -143zM1288 709v-134q12 -53 88 -100q-69 -45 -88 -98v-84q0 -35 -49 -98q-63 -84 -164 -136q-131 -67 -299 -67q-221 0 -368 69q-111 54 -170 136q-41 57 -41 88v92q-17 53 -88 98q75 49 88 103v131q-17 43 -107 43q-39 0 -90 -9v162
q68 19 141 19q115 0 217 -37q105 37 217 37q76 0 140 -19v-162q-51 9 -90 9q-90 0 -107 -43v-134q12 -53 88 -100q-69 -45 -88 -98v-92q0 -17 66 -56q88 -53 219 -53q119 0 217 57q90 54 90 105v39q-16 53 -90 98q78 49 90 105v129q-18 43 -109 43q-36 0 -88 -9v162
q56 19 117 19q90 0 168 -35q78 35 168 35q61 0 119 -19v-162q-51 9 -90 9q-90 0 -107 -43z" />
    <glyph glyph-name="glyph234" unicode="&#xfd;" horiz-adv-x="1538" 
d="M776 975l-112 84l258 227l170 -143zM1260 715l-218 -170q-14 -29 35 -72q8 -8 19 -16q-97 -2 -203 -29l-6 -6v-207q16 -41 106 -41q39 0 90 8v-164q-79 -16 -155 -16q-117 0 -203 35q-84 -35 -201 -35q-75 0 -155 16v164q51 -8 90 -8q88 0 106 41v156l-61 53
q-98 33 -193 35q70 55 54 94q-52 51 -160 145q-68 52 -142 52q-30 0 -63 -9v164q61 17 131 17q111 0 211 -39q84 41 211 41q78 0 162 -19v-168q-58 23 -105 23q-24 0 -47 -6l209 -191l227 180q-43 21 -129 -4v166q80 19 148 19q98 0 158 -35q67 35 149 35q59 0 117 -19v-168
q-37 13 -76 13q-61 0 -106 -35z" />
    <glyph glyph-name="Abreve" unicode="&#x102;" horiz-adv-x="1800" 
d="M1145 1197q-102 -202 -297.5 -209t-315.5 209h163q61 -77 156 -70t139 70h155zM1294 33q-102 -33 -229 -33q-88 0 -174 18v166q72 -12 125 -12q94 0 114 33l-40 63q-172 47 -320 47q-137 0 -289 -39l-47 -71q19 -33 94 -33q43 0 105 12v-166q-80 -16 -150 -16
q-102 0 -166 35q-65 -35 -167 -35q-70 0 -150 16v164q39 -4 68 -4q94 0 145 62q55 86 111 172q-7 34 -41 73q65 17 137 72l131 201q-14 4 -35 4q-43 0 -110 -23v166q79 19 167 19q142 0 265 -37q104 35 247 35q105 0 211 -21v-162q-73 27 -120 27q-17 0 -31 -2l135 -209
q70 -53 135 -70q-33 -36 -41 -73q56 -86 109 -174q51 -62 137 -62q35 0 82 8v-166q-84 -16 -174 -16q-129 0 -234 31zM784 735l-166 -252q162 25 332 -2z" />
    <glyph glyph-name="abreve" unicode="&#x103;" horiz-adv-x="1800" 
d="M1145 1197q-102 -202 -297.5 -209t-315.5 209h163q61 -77 156 -70t139 70h155zM1294 33q-102 -33 -229 -33q-88 0 -174 18v166q72 -12 125 -12q94 0 114 33l-40 63q-172 47 -320 47q-137 0 -289 -39l-47 -71q19 -33 94 -33q43 0 105 12v-166q-80 -16 -150 -16
q-102 0 -166 35q-65 -35 -167 -35q-70 0 -150 16v164q39 -4 68 -4q94 0 145 62q55 86 111 172q-7 34 -41 73q65 17 137 72l131 201q-14 4 -35 4q-43 0 -110 -23v166q79 19 167 19q142 0 265 -37q104 35 247 35q105 0 211 -21v-162q-73 27 -120 27q-17 0 -31 -2l135 -209
q70 -53 135 -70q-33 -36 -41 -73q56 -86 109 -174q51 -62 137 -62q35 0 82 8v-166q-84 -16 -174 -16q-129 0 -234 31zM784 735l-166 -252q162 25 332 -2z" />
    <glyph glyph-name="Ccaron" unicode="&#x10c;" horiz-adv-x="1274" 
 />
    <glyph glyph-name="ccaron" unicode="&#x10d;" horiz-adv-x="922" 
 />
    <glyph glyph-name="Dslash" unicode="&#x110;" horiz-adv-x="1708" 
d="M931 -6q-315 0 -448 43q-84 -35 -201 -35q-78 0 -158 16v162q52 -8 91 -8q90 0 106 41v160h-258v162h258v167q-16 41 -106 41q-39 0 -91 -8v162q80 16 156 16q119 0 203 -34q110 43 452 43q244 0 437 -109q237 -133 237 -371q0 -194 -209 -325q-200 -123 -469 -123z
M645 696v-161h364v-162h-364v-156q77 -45 219 -45q153 0 254 61q121 76 121 226q0 143 -129 215q-105 57 -263 57q-135 0 -202 -35z" />
    <glyph glyph-name="dcroat" unicode="&#x111;" horiz-adv-x="1708" 
d="M931 -6q-315 0 -448 43q-84 -35 -201 -35q-78 0 -158 16v162q52 -8 91 -8q90 0 106 41v160h-258v162h258v167q-16 41 -106 41q-39 0 -91 -8v162q80 16 156 16q119 0 203 -34q110 43 452 43q244 0 437 -109q237 -133 237 -371q0 -194 -209 -325q-200 -123 -469 -123z
M645 696v-161h364v-162h-364v-156q77 -45 219 -45q153 0 254 61q121 76 121 226q0 143 -129 215q-105 57 -263 57q-135 0 -202 -35z" />
    <glyph glyph-name="Itilde" unicode="&#x128;" horiz-adv-x="792" 
d="M348 37q-82 -35 -196 -35q-74 0 -152 16v164q59 -14 102 -14q74 0 88 39v166q-14 53 -86 98q76 49 86 102v136q-14 36 -88 36q-43 0 -102 -12v162q78 18 152 18q114 0 196 -36q82 36 195 36q75 0 153 -18v-162q-59 12 -102 12q-74 0 -90 -36v-136q10 -55 88 -104
q-72 -45 -88 -98v-164q16 -39 90 -39q41 0 102 14v-164q-78 -16 -153 -16q-113 0 -195 35zM315 1032q-22 8 -51 8q-68 0 -164 -45v183q86 34 166 34q37 0 100.5 -18t96.5 -18q84 0 149 57v-195q-76 -41 -137 -41q-66 0 -160 35z" />
    <glyph glyph-name="itilde" unicode="&#x129;" horiz-adv-x="792" 
d="M348 37q-82 -35 -196 -35q-74 0 -152 16v164q59 -14 102 -14q74 0 88 39v166q-14 53 -86 98q76 49 86 102v136q-14 36 -88 36q-43 0 -102 -12v162q78 18 152 18q114 0 196 -36q82 36 195 36q75 0 153 -18v-162q-59 12 -102 12q-74 0 -90 -36v-136q10 -55 88 -104
q-72 -45 -88 -98v-164q16 -39 90 -39q41 0 102 14v-164q-78 -16 -153 -16q-113 0 -195 35zM315 1032q-22 8 -51 8q-68 0 -164 -45v183q86 34 166 34q37 0 100.5 -18t96.5 -18q84 0 149 57v-195q-76 -41 -137 -41q-66 0 -160 35z" />
    <glyph glyph-name="Utilde" unicode="&#x168;" 
d="M1288 700v-131q12 -53 88 -100q-69 -45 -88 -96v-84q0 -35 -49 -99q-63 -79 -164 -131q-131 -67 -299 -67q-221 0 -368 69q-111 52 -170 134q-41 55 -41 88v90q-17 53 -88 98q75 47 88 98v131q-17 43 -107 43q-39 0 -90 -10v162q68 16 141 16q115 0 217 -34
q105 36 217 36q76 0 140 -18v-162q-51 10 -90 10q-90 0 -107 -43v-133q12 -51 88 -98q-69 -45 -88 -96v-92q0 -17 66 -54q88 -53 219 -53q119 0 217 57q90 52 90 103v39q-16 51 -90 98q78 47 90 100v129q-18 43 -106 43q-39 0 -91 -10v162q56 18 117 18q90 0 168 -34
q78 34 168 34q61 0 119 -18v-162q-51 10 -90 10q-90 0 -107 -43zM811 1038q-20 9 -49 9q-67 0 -164 -46v183q86 33 166 33q37 0 99.5 -17.5t97.5 -17.5q82 0 147 55v-193q-74 -43 -137 -43t-160 37z" />
    <glyph glyph-name="utilde" unicode="&#x169;" 
d="M1288 700v-131q12 -53 88 -100q-69 -45 -88 -96v-84q0 -35 -49 -99q-63 -79 -164 -131q-131 -67 -299 -67q-221 0 -368 69q-111 52 -170 134q-41 55 -41 88v90q-17 53 -88 98q75 47 88 98v131q-17 43 -107 43q-39 0 -90 -10v162q68 16 141 16q115 0 217 -34
q105 36 217 36q76 0 140 -18v-162q-51 10 -90 10q-90 0 -107 -43v-133q12 -51 88 -98q-69 -45 -88 -96v-92q0 -17 66 -54q88 -53 219 -53q119 0 217 57q90 52 90 103v39q-16 51 -90 98q78 47 90 100v129q-18 43 -106 43q-39 0 -91 -10v162q56 18 117 18q90 0 168 -34
q78 34 168 34q61 0 119 -18v-162q-51 10 -90 10q-90 0 -107 -43zM811 1038q-20 9 -49 9q-67 0 -164 -46v183q86 33 166 33q37 0 99.5 -17.5t97.5 -17.5q82 0 147 55v-193q-74 -43 -137 -43t-160 37z" />
    <glyph glyph-name="Ohorn" unicode="&#x1a0;" 
d="M1581 465l-4 12q2 0 6 -4q12 -10 0 -18q-57 -41 -67 -74q-52 -176 -264 -292t-492 -116q-283 0 -502 121t-254 295q-4 21 -72 68q-16 12 0 22v0q5 19 21 8l24 -16l-63 -2q51 37 63 51q27 27 50 72q77 156 277 251t456 95t459.5 -97.5t273.5 -250.5q27 -58 98 -111z
M1040 467q29 18 84 90q-39 96 -137 158.5t-223 62.5t-224.5 -62.5t-136.5 -158.5q11 -35 84 -90q-71 -39 -96 -76q29 -110 132.5 -183t240.5 -73q135 0 239.5 74t131.5 184q-25 35 -95 74zM1322 762q-54 0 -92.5 38t-38.5 91q0 55 38.5 93t92.5 38q55 0 93 -38t38 -93
q0 -53 -38 -91t-93 -38z" />
    <glyph glyph-name="ohorn" unicode="&#x1a1;" 
d="M1581 465l-4 12q2 0 6 -4q12 -10 0 -18q-57 -41 -67 -74q-52 -176 -264 -292t-492 -116q-283 0 -502 121t-254 295q-4 21 -72 68q-16 12 0 22v0q5 19 21 8l24 -16l-63 -2q51 37 63 51q27 27 50 72q77 156 277 251t456 95t459.5 -97.5t273.5 -250.5q27 -58 98 -111z
M1040 467q29 18 84 90q-39 96 -137 158.5t-223 62.5t-224.5 -62.5t-136.5 -158.5q11 -35 84 -90q-71 -39 -96 -76q29 -110 132.5 -183t240.5 -73q135 0 239.5 74t131.5 184q-25 35 -95 74zM1322 762q-54 0 -92.5 38t-38.5 91q0 55 38.5 93t92.5 38q55 0 93 -38t38 -93
q0 -53 -38 -91t-93 -38z" />
    <glyph glyph-name="Uhorn" unicode="&#x1af;" 
d="M1288 709v-134q12 -53 88 -100q-69 -45 -88 -98v-84q0 -35 -49 -98q-63 -84 -164 -136q-131 -67 -299 -67q-221 0 -368 69q-111 54 -170 136q-41 57 -41 88v92q-17 53 -88 98q75 49 88 100v134q-17 43 -107 43q-39 0 -90 -11v164q68 17 141 17q115 0 217 -35
q105 35 217 35q76 0 140 -17v-164q-51 11 -90 11q-90 0 -107 -43v-134q12 -53 88 -100q-69 -45 -88 -98v-92q0 -17 66 -56q88 -53 219 -53q119 0 217 57q90 54 90 103v41q-16 53 -90 98q78 49 90 103v131q-18 43 -109 43q-36 0 -88 -11v162q56 21 117 21q90 0 168 -37
q92 -56 91 -176q-1 -1 -1 -2zM1322 762q-54 0 -92.5 38t-38.5 91q0 55 38.5 93t92.5 38q55 0 93 -38t38 -93q0 -53 -38 -91t-93 -38z" />
    <glyph glyph-name="uhorn" unicode="&#x1b0;" 
d="M1288 709v-134q12 -53 88 -100q-69 -45 -88 -98v-84q0 -35 -49 -98q-63 -84 -164 -136q-131 -67 -299 -67q-221 0 -368 69q-111 54 -170 136q-41 57 -41 88v92q-17 53 -88 98q75 49 88 100v134q-17 43 -107 43q-39 0 -90 -11v164q68 17 141 17q115 0 217 -35
q105 35 217 35q76 0 140 -17v-164q-51 11 -90 11q-90 0 -107 -43v-134q12 -53 88 -100q-69 -45 -88 -98v-92q0 -17 66 -56q88 -53 219 -53q119 0 217 57q90 54 90 103v41q-16 53 -90 98q78 49 90 103v131q-18 43 -109 43q-36 0 -88 -11v162q56 21 117 21q90 0 168 -37
q92 -56 91 -176q-1 -1 -1 -2zM1322 762q-54 0 -92.5 38t-38.5 91q0 55 38.5 93t92.5 38q55 0 93 -38t38 -93q0 -53 -38 -91t-93 -38z" />
    <glyph glyph-name="uni1EA0" unicode="&#x1ea0;" horiz-adv-x="1800" 
d="M777 -314q-53 0 -92 38t-39 91q0 55 39 93t92 38q55 0 93 -38t38 -93q0 -53 -38 -91t-93 -38zM1294 33q-102 -33 -229 -33q-88 0 -174 18v166q72 -12 125 -12q94 0 114 33l-40 63q-172 47 -320 47q-137 0 -289 -39l-47 -71q19 -33 94 -33q43 0 105 12v-166
q-80 -16 -150 -16q-102 0 -166 35q-65 -35 -167 -35q-70 0 -150 16v164q39 -4 68 -4q94 0 145 62q55 86 111 172q-7 34 -41 73q65 17 137 72l131 201q-14 4 -35 4q-43 0 -110 -23v166q79 19 167 19q142 0 265 -37q104 35 247 35q105 0 211 -21v-162q-73 27 -120 27
q-17 0 -31 -2l135 -209q70 -53 135 -70q-33 -36 -41 -73q56 -86 109 -174q51 -62 137 -62q35 0 82 8v-166q-84 -16 -174 -16q-129 0 -234 31zM784 735l-166 -252q162 25 332 -2z" />
    <glyph glyph-name="uni1EA1" unicode="&#x1ea1;" horiz-adv-x="1800" 
d="M777 -314q-53 0 -92 38t-39 91q0 55 39 93t92 38q55 0 93 -38t38 -93q0 -53 -38 -91t-93 -38zM1294 33q-102 -33 -229 -33q-88 0 -174 18v166q72 -12 125 -12q94 0 114 33l-40 63q-172 47 -320 47q-137 0 -289 -39l-47 -71q19 -33 94 -33q43 0 105 12v-166
q-80 -16 -150 -16q-102 0 -166 35q-65 -35 -167 -35q-70 0 -150 16v164q39 -4 68 -4q94 0 145 62q55 86 111 172q-7 34 -41 73q65 17 137 72l131 201q-14 4 -35 4q-43 0 -110 -23v166q79 19 167 19q142 0 265 -37q104 35 247 35q105 0 211 -21v-162q-73 27 -120 27
q-17 0 -31 -2l135 -209q70 -53 135 -70q-33 -36 -41 -73q56 -86 109 -174q51 -62 137 -62q35 0 82 8v-166q-84 -16 -174 -16q-129 0 -234 31zM784 735l-166 -252q162 25 332 -2z" />
    <glyph glyph-name="uni1EA2" unicode="&#x1ea2;" horiz-adv-x="1800" 
d="M1294 33q-102 -33 -229 -33q-88 0 -174 18v166q72 -12 125 -12q94 0 114 35l-40 63q-172 45 -320 45q-137 0 -289 -39l-47 -69q19 -35 94 -35q43 0 105 12v-166q-80 -16 -150 -16q-102 0 -166 35q-65 -35 -167 -35q-70 0 -150 16v164q39 -4 68 -4q94 0 145 62
q55 86 111 174q-7 35 -41 71q65 19 137 74l131 201q-14 4 -35 4q-43 0 -110 -23v166q79 19 167 19q142 0 265 -37q104 35 247 35q105 0 211 -21v-164q-73 29 -120 29q-17 0 -31 -4l135 -207q70 -53 135 -72q-33 -36 -41 -71q56 -88 109 -174q51 -64 137 -64q35 0 82 8v-166
q-84 -16 -174 -16q-129 0 -234 31zM784 737l-166 -252q162 23 332 -2zM915 1001q-18 -4 -18 -14v-24h-170q0 32 1 39q1 15 6 28q17 40 71 56q43 13 102 22q60 10 62 10q21 6 21 17q0 12 -33 20t-52 8q-46 0 -82 -24v-39h-159v140q103 3 123 -7q46 13 135 13q97 0 153 -24
q101 -42 101 -101q0 -34 -32 -55q-47 -29 -117 -45q-56 -11 -112 -20z" />
    <glyph glyph-name="uni1EA3" unicode="&#x1ea3;" horiz-adv-x="1800" 
d="M1294 33q-102 -33 -229 -33q-88 0 -174 18v166q72 -12 125 -12q94 0 114 35l-40 63q-172 45 -320 45q-137 0 -289 -39l-47 -69q19 -35 94 -35q43 0 105 12v-166q-80 -16 -150 -16q-102 0 -166 35q-65 -35 -167 -35q-70 0 -150 16v164q39 -4 68 -4q94 0 145 62
q55 86 111 174q-7 35 -41 71q65 19 137 74l131 201q-14 4 -35 4q-43 0 -110 -23v166q79 19 167 19q142 0 265 -37q104 35 247 35q105 0 211 -21v-164q-73 29 -120 29q-17 0 -31 -4l135 -207q70 -53 135 -72q-33 -36 -41 -71q56 -88 109 -174q51 -64 137 -64q35 0 82 8v-166
q-84 -16 -174 -16q-129 0 -234 31zM784 737l-166 -252q162 23 332 -2zM915 1001q-18 -4 -18 -14v-24h-170q0 32 1 39q1 15 6 28q17 40 71 56q43 13 102 22q60 10 62 10q21 6 21 17q0 12 -33 20t-52 8q-46 0 -82 -24v-39h-159v140q103 3 123 -7q46 13 135 13q97 0 153 -24
q101 -42 101 -101q0 -34 -32 -55q-47 -29 -117 -45q-56 -11 -112 -20z" />
    <glyph glyph-name="uni1EA4" unicode="&#x1ea4;" horiz-adv-x="1800" 
d="M628 1172l-113 84l258 225l170 -143zM1294 33q-102 -33 -229 -33q-88 0 -174 18v166q72 -12 125 -12q94 0 114 35l-40 63q-172 45 -320 45q-137 0 -289 -39l-47 -71q19 -33 94 -33q43 0 105 12v-166q-80 -16 -150 -16q-102 0 -166 35q-65 -35 -167 -35q-70 0 -150 16v164
q39 -4 68 -4q94 0 145 62q55 86 111 172q-7 37 -41 73q65 19 137 72l131 201q-14 6 -35 6q-43 0 -110 -23v166q79 17 167 17q142 0 265 -37q104 37 247 37q105 0 211 -23v-162q-73 29 -120 29q-17 0 -31 -4l135 -207q70 -53 135 -72q-33 -36 -41 -73q56 -86 109 -174
q51 -62 137 -62q35 0 82 8v-166q-84 -16 -174 -16q-129 0 -234 31zM784 737l-166 -252q162 23 332 -4zM963 993l-121 86l-133 -86h-177l238 234h150l225 -234h-182z" />
    <glyph glyph-name="uni1EA5" unicode="&#x1ea5;" horiz-adv-x="1800" 
d="M628 1172l-113 84l258 225l170 -143zM1294 33q-102 -33 -229 -33q-88 0 -174 18v166q72 -12 125 -12q94 0 114 35l-40 63q-172 45 -320 45q-137 0 -289 -39l-47 -71q19 -33 94 -33q43 0 105 12v-166q-80 -16 -150 -16q-102 0 -166 35q-65 -35 -167 -35q-70 0 -150 16v164
q39 -4 68 -4q94 0 145 62q55 86 111 172q-7 37 -41 73q65 19 137 72l131 201q-14 6 -35 6q-43 0 -110 -23v166q79 17 167 17q142 0 265 -37q104 37 247 37q105 0 211 -23v-162q-73 29 -120 29q-17 0 -31 -4l135 -207q70 -53 135 -72q-33 -36 -41 -73q56 -86 109 -174
q51 -62 137 -62q35 0 82 8v-166q-84 -16 -174 -16q-129 0 -234 31zM784 737l-166 -252q162 23 332 -4zM963 993l-121 86l-133 -86h-177l238 234h150l225 -234h-182z" />
    <glyph glyph-name="uni1EA6" unicode="&#x1ea6;" horiz-adv-x="1800" 
d="M1072 1174l-342 168l196 141l258 -225zM1294 33q-102 -33 -229 -33q-88 0 -174 18v166q72 -12 125 -12q94 0 114 35l-40 63q-172 45 -320 45q-137 0 -289 -39l-47 -71q19 -33 94 -33q43 0 105 12v-166q-80 -16 -150 -16q-102 0 -166 35q-65 -35 -167 -35q-70 0 -150 16
v164q39 -4 68 -4q94 0 145 62q55 86 111 172q-7 37 -41 73q65 19 137 72l131 201q-14 6 -35 6q-43 0 -110 -23v166q79 17 167 17q142 0 265 -37q104 37 247 37q105 0 211 -23v-162q-73 29 -120 29q-17 0 -31 -4l135 -207q70 -53 135 -72q-33 -36 -41 -73q56 -86 109 -174
q51 -62 137 -62q35 0 82 8v-166q-84 -16 -174 -16q-129 0 -234 31zM784 737l-166 -252q162 23 332 -4zM963 993l-121 86l-133 -86h-177l238 234h150l225 -234h-182z" />
    <glyph glyph-name="uni1EA7" unicode="&#x1ea7;" horiz-adv-x="1800" 
d="M1072 1174l-342 168l196 141l258 -225zM1294 33q-102 -33 -229 -33q-88 0 -174 18v166q72 -12 125 -12q94 0 114 35l-40 63q-172 45 -320 45q-137 0 -289 -39l-47 -71q19 -33 94 -33q43 0 105 12v-166q-80 -16 -150 -16q-102 0 -166 35q-65 -35 -167 -35q-70 0 -150 16
v164q39 -4 68 -4q94 0 145 62q55 86 111 172q-7 37 -41 73q65 19 137 72l131 201q-14 6 -35 6q-43 0 -110 -23v166q79 17 167 17q142 0 265 -37q104 37 247 37q105 0 211 -23v-162q-73 29 -120 29q-17 0 -31 -4l135 -207q70 -53 135 -72q-33 -36 -41 -73q56 -86 109 -174
q51 -62 137 -62q35 0 82 8v-166q-84 -16 -174 -16q-129 0 -234 31zM784 737l-166 -252q162 23 332 -4zM963 993l-121 86l-133 -86h-177l238 234h150l225 -234h-182z" />
    <glyph glyph-name="uni1EA8" unicode="&#x1ea8;" horiz-adv-x="1800" 
d="M1294 33q-102 -33 -229 -33q-88 0 -174 18v166q72 -12 125 -12q94 0 114 35l-40 63q-172 45 -320 45q-137 0 -289 -39l-47 -69q19 -35 94 -35q43 0 105 12v-166q-80 -16 -150 -16q-102 0 -166 35q-65 -35 -167 -35q-70 0 -150 16v164q39 -4 68 -4q94 0 145 62
q55 86 111 174q-7 35 -41 71q65 19 137 74l131 201q-14 4 -35 4q-43 0 -110 -23v166q79 19 167 19q142 0 265 -37q104 35 247 35q105 0 211 -21v-164q-73 29 -120 29q-17 0 -31 -4l135 -207q70 -53 135 -72q-33 -36 -41 -71q56 -88 109 -174q51 -64 137 -64q35 0 82 8v-166
q-84 -16 -174 -16q-129 0 -234 31zM784 737l-166 -252q162 23 332 -2zM1232 1160q-18 -4 -18 -14v-24h-170q0 32 1 39q1 15 6 28q17 40 71 56q43 13 102 22q60 10 62 10q21 6 21 17q0 12 -33 20t-52 8q-46 0 -82 -24v-39h-159v140q103 3 123 -7q46 13 135 13q97 0 153 -24
q101 -42 101 -101q0 -34 -32 -55q-47 -29 -117 -45q-56 -11 -112 -20zM963 993l-121 86l-133 -86h-177l238 234h150l225 -234h-182z" />
    <glyph glyph-name="uni1EA9" unicode="&#x1ea9;" horiz-adv-x="1800" 
d="M1294 33q-102 -33 -229 -33q-88 0 -174 18v166q72 -12 125 -12q94 0 114 35l-40 63q-172 45 -320 45q-137 0 -289 -39l-47 -69q19 -35 94 -35q43 0 105 12v-166q-80 -16 -150 -16q-102 0 -166 35q-65 -35 -167 -35q-70 0 -150 16v164q39 -4 68 -4q94 0 145 62
q55 86 111 174q-7 35 -41 71q65 19 137 74l131 201q-14 4 -35 4q-43 0 -110 -23v166q79 19 167 19q142 0 265 -37q104 35 247 35q105 0 211 -21v-164q-73 29 -120 29q-17 0 -31 -4l135 -207q70 -53 135 -72q-33 -36 -41 -71q56 -88 109 -174q51 -64 137 -64q35 0 82 8v-166
q-84 -16 -174 -16q-129 0 -234 31zM784 737l-166 -252q162 23 332 -2zM1232 1160q-18 -4 -18 -14v-24h-170q0 32 1 39q1 15 6 28q17 40 71 56q43 13 102 22q60 10 62 10q21 6 21 17q0 12 -33 20t-52 8q-46 0 -82 -24v-39h-159v140q103 3 123 -7q46 13 135 13q97 0 153 -24
q101 -42 101 -101q0 -34 -32 -55q-47 -29 -117 -45q-56 -11 -112 -20zM963 993l-121 86l-133 -86h-177l238 234h150l225 -234h-182z" />
    <glyph glyph-name="uni1EAA" unicode="&#x1eaa;" horiz-adv-x="1800" 
d="M900 1270q-22 8 -51 8q-68 0 -164 -45v183q86 34 166 34q37 0 100.5 -18t96.5 -18q84 0 149 57v-195q-76 -41 -137 -41q-66 0 -160 35zM1294 33q-102 -33 -229 -33q-88 0 -174 18v166q72 -12 125 -12q94 0 114 33l-40 63q-172 47 -320 47q-137 0 -289 -39l-47 -71
q19 -33 94 -33q43 0 105 12v-166q-80 -16 -150 -16q-102 0 -166 35q-65 -35 -167 -35q-70 0 -150 16v164q39 -4 68 -4q94 0 145 62q55 86 111 172q-7 34 -41 73q65 17 137 72l131 201q-14 4 -35 4q-43 0 -110 -23v166q79 19 167 19q142 0 265 -37q104 35 247 35
q105 0 211 -21v-162q-73 27 -120 27q-17 0 -31 -2l135 -209q70 -53 135 -70q-33 -36 -41 -73q56 -86 109 -174q51 -62 137 -62q35 0 82 8v-166q-84 -16 -174 -16q-129 0 -234 31zM784 735l-166 -252q162 25 332 -2zM963 993l-121 86l-133 -86h-177l238 234h150l225 -234
h-182z" />
    <glyph glyph-name="uni1EAB" unicode="&#x1eab;" horiz-adv-x="1800" 
d="M900 1270q-22 8 -51 8q-68 0 -164 -45v183q86 34 166 34q37 0 100.5 -18t96.5 -18q84 0 149 57v-195q-76 -41 -137 -41q-66 0 -160 35zM1294 33q-102 -33 -229 -33q-88 0 -174 18v166q72 -12 125 -12q94 0 114 33l-40 63q-172 47 -320 47q-137 0 -289 -39l-47 -71
q19 -33 94 -33q43 0 105 12v-166q-80 -16 -150 -16q-102 0 -166 35q-65 -35 -167 -35q-70 0 -150 16v164q39 -4 68 -4q94 0 145 62q55 86 111 172q-7 34 -41 73q65 17 137 72l131 201q-14 4 -35 4q-43 0 -110 -23v166q79 19 167 19q142 0 265 -37q104 35 247 35
q105 0 211 -21v-162q-73 27 -120 27q-17 0 -31 -2l135 -209q70 -53 135 -70q-33 -36 -41 -73q56 -86 109 -174q51 -62 137 -62q35 0 82 8v-166q-84 -16 -174 -16q-129 0 -234 31zM784 735l-166 -252q162 25 332 -2zM963 993l-121 86l-133 -86h-177l238 234h150l225 -234
h-182z" />
    <glyph glyph-name="uni1EAC" unicode="&#x1eac;" horiz-adv-x="1800" 
d="M777 -314q-53 0 -92 38t-39 91q0 55 39 93t92 38q55 0 93 -38t38 -93q0 -53 -38 -91t-93 -38zM1294 33q-102 -33 -229 -33q-88 0 -174 18v166q72 -12 125 -12q94 0 114 33l-40 63q-172 47 -320 47q-137 0 -289 -39l-47 -71q19 -33 94 -33q43 0 105 12v-166
q-80 -16 -150 -16q-102 0 -166 35q-65 -35 -167 -35q-70 0 -150 16v164q39 -4 68 -4q94 0 145 62q55 86 111 172q-7 34 -41 73q65 17 137 72l131 201q-14 4 -35 4q-43 0 -110 -23v166q79 19 167 19q142 0 265 -37q104 35 247 35q105 0 211 -21v-162q-73 27 -120 27
q-17 0 -31 -2l135 -209q70 -53 135 -70q-33 -36 -41 -73q56 -86 109 -174q51 -62 137 -62q35 0 82 8v-166q-84 -16 -174 -16q-129 0 -234 31zM784 735l-166 -252q162 25 332 -2zM963 993l-121 86l-133 -86h-177l238 234h150l225 -234h-182z" />
    <glyph glyph-name="uni1EAD" unicode="&#x1ead;" horiz-adv-x="1800" 
d="M777 -314q-53 0 -92 38t-39 91q0 55 39 93t92 38q55 0 93 -38t38 -93q0 -53 -38 -91t-93 -38zM1294 33q-102 -33 -229 -33q-88 0 -174 18v166q72 -12 125 -12q94 0 114 33l-40 63q-172 47 -320 47q-137 0 -289 -39l-47 -71q19 -33 94 -33q43 0 105 12v-166
q-80 -16 -150 -16q-102 0 -166 35q-65 -35 -167 -35q-70 0 -150 16v164q39 -4 68 -4q94 0 145 62q55 86 111 172q-7 34 -41 73q65 17 137 72l131 201q-14 4 -35 4q-43 0 -110 -23v166q79 19 167 19q142 0 265 -37q104 35 247 35q105 0 211 -21v-162q-73 27 -120 27
q-17 0 -31 -2l135 -209q70 -53 135 -70q-33 -36 -41 -73q56 -86 109 -174q51 -62 137 -62q35 0 82 8v-166q-84 -16 -174 -16q-129 0 -234 31zM784 735l-166 -252q162 25 332 -2zM963 993l-121 86l-133 -86h-177l238 234h150l225 -234h-182z" />
    <glyph glyph-name="uni1EAE" unicode="&#x1eae;" horiz-adv-x="1800" 
d="M821 1172l-113 84l258 225l170 -143zM1294 33q-102 -33 -229 -33q-88 0 -174 18v166q72 -12 125 -12q94 0 114 35l-40 63q-172 45 -320 45q-137 0 -289 -39l-47 -71q19 -33 94 -33q43 0 105 12v-166q-80 -16 -150 -16q-102 0 -166 35q-65 -35 -167 -35q-70 0 -150 16v164
q39 -4 68 -4q94 0 145 62q55 86 111 172q-7 37 -41 73q65 19 137 72l131 201q-14 6 -35 6q-43 0 -110 -23v166q79 17 167 17q142 0 265 -37q104 37 247 37q105 0 211 -23v-162q-73 29 -120 29q-17 0 -31 -4l135 -207q70 -53 135 -72q-33 -36 -41 -73q56 -86 109 -174
q51 -62 137 -62q35 0 82 8v-166q-84 -16 -174 -16q-129 0 -234 31zM784 737l-166 -252q162 23 332 -4zM1145 1197q-102 -202 -297.5 -209t-315.5 209h163q61 -77 156 -70t139 70h155z" />
    <glyph glyph-name="uni1EAF" unicode="&#x1eaf;" horiz-adv-x="1800" 
d="M821 1172l-113 84l258 225l170 -143zM1294 33q-102 -33 -229 -33q-88 0 -174 18v166q72 -12 125 -12q94 0 114 35l-40 63q-172 45 -320 45q-137 0 -289 -39l-47 -71q19 -33 94 -33q43 0 105 12v-166q-80 -16 -150 -16q-102 0 -166 35q-65 -35 -167 -35q-70 0 -150 16v164
q39 -4 68 -4q94 0 145 62q55 86 111 172q-7 37 -41 73q65 19 137 72l131 201q-14 6 -35 6q-43 0 -110 -23v166q79 17 167 17q142 0 265 -37q104 37 247 37q105 0 211 -23v-162q-73 29 -120 29q-17 0 -31 -4l135 -207q70 -53 135 -72q-33 -36 -41 -73q56 -86 109 -174
q51 -62 137 -62q35 0 82 8v-166q-84 -16 -174 -16q-129 0 -234 31zM784 737l-166 -252q162 23 332 -4zM1145 1197q-102 -202 -297.5 -209t-315.5 209h163q61 -77 156 -70t139 70h155z" />
    <glyph glyph-name="uni1EB0" unicode="&#x1eb0;" horiz-adv-x="1800" 
d="M878 1174l-342 168l196 141l258 -225zM1294 33q-102 -33 -229 -33q-88 0 -174 18v166q72 -12 125 -12q94 0 114 35l-40 63q-172 45 -320 45q-137 0 -289 -39l-47 -71q19 -33 94 -33q43 0 105 12v-166q-80 -16 -150 -16q-102 0 -166 35q-65 -35 -167 -35q-70 0 -150 16
v164q39 -4 68 -4q94 0 145 62q55 86 111 172q-7 37 -41 73q65 19 137 72l131 201q-14 6 -35 6q-43 0 -110 -23v166q79 17 167 17q142 0 265 -37q104 37 247 37q105 0 211 -23v-162q-73 29 -120 29q-17 0 -31 -4l135 -207q70 -53 135 -72q-33 -36 -41 -73q56 -86 109 -174
q51 -62 137 -62q35 0 82 8v-166q-84 -16 -174 -16q-129 0 -234 31zM784 737l-166 -252q162 23 332 -4zM1145 1197q-102 -202 -297.5 -209t-315.5 209h163q61 -77 156 -70t139 70h155z" />
    <glyph glyph-name="uni1EB1" unicode="&#x1eb1;" horiz-adv-x="1800" 
d="M878 1174l-342 168l196 141l258 -225zM1294 33q-102 -33 -229 -33q-88 0 -174 18v166q72 -12 125 -12q94 0 114 35l-40 63q-172 45 -320 45q-137 0 -289 -39l-47 -71q19 -33 94 -33q43 0 105 12v-166q-80 -16 -150 -16q-102 0 -166 35q-65 -35 -167 -35q-70 0 -150 16
v164q39 -4 68 -4q94 0 145 62q55 86 111 172q-7 37 -41 73q65 19 137 72l131 201q-14 6 -35 6q-43 0 -110 -23v166q79 17 167 17q142 0 265 -37q104 37 247 37q105 0 211 -23v-162q-73 29 -120 29q-17 0 -31 -4l135 -207q70 -53 135 -72q-33 -36 -41 -73q56 -86 109 -174
q51 -62 137 -62q35 0 82 8v-166q-84 -16 -174 -16q-129 0 -234 31zM784 737l-166 -252q162 23 332 -4zM1145 1197q-102 -202 -297.5 -209t-315.5 209h163q61 -77 156 -70t139 70h155z" />
    <glyph glyph-name="uni1EB2" unicode="&#x1eb2;" horiz-adv-x="1800" 
d="M1294 33q-102 -33 -229 -33q-88 0 -174 18v166q72 -12 125 -12q94 0 114 35l-40 63q-172 45 -320 45q-137 0 -289 -39l-47 -69q19 -35 94 -35q43 0 105 12v-166q-80 -16 -150 -16q-102 0 -166 35q-65 -35 -167 -35q-70 0 -150 16v164q39 -4 68 -4q94 0 145 62
q55 86 111 174q-7 35 -41 71q65 19 137 74l131 201q-14 4 -35 4q-43 0 -110 -23v166q79 19 167 19q142 0 265 -37q104 35 247 35q105 0 211 -21v-164q-73 29 -120 29q-17 0 -31 -4l135 -207q70 -53 135 -72q-33 -36 -41 -71q56 -88 109 -174q51 -64 137 -64q35 0 82 8v-166
q-84 -16 -174 -16q-129 0 -234 31zM784 737l-166 -252q162 23 332 -2zM945 1240q-18 -4 -18 -14v-24h-170q0 32 1 39q1 15 6 28q17 40 71 56q43 13 102 22q60 10 62 10q21 6 21 17q0 12 -33 20t-52 8q-46 0 -82 -24v-39h-159v140q103 3 123 -7q46 13 135 13q97 0 153 -24
q101 -42 101 -101q0 -34 -32 -55q-47 -29 -117 -45q-56 -11 -112 -20zM1145 1197q-102 -202 -297.5 -209t-315.5 209h163q61 -77 156 -70t139 70h155z" />
    <glyph glyph-name="uni1EB3" unicode="&#x1eb3;" horiz-adv-x="1800" 
d="M1294 33q-102 -33 -229 -33q-88 0 -174 18v166q72 -12 125 -12q94 0 114 35l-40 63q-172 45 -320 45q-137 0 -289 -39l-47 -69q19 -35 94 -35q43 0 105 12v-166q-80 -16 -150 -16q-102 0 -166 35q-65 -35 -167 -35q-70 0 -150 16v164q39 -4 68 -4q94 0 145 62
q55 86 111 174q-7 35 -41 71q65 19 137 74l131 201q-14 4 -35 4q-43 0 -110 -23v166q79 19 167 19q142 0 265 -37q104 35 247 35q105 0 211 -21v-164q-73 29 -120 29q-17 0 -31 -4l135 -207q70 -53 135 -72q-33 -36 -41 -71q56 -88 109 -174q51 -64 137 -64q35 0 82 8v-166
q-84 -16 -174 -16q-129 0 -234 31zM784 737l-166 -252q162 23 332 -2zM945 1240q-18 -4 -18 -14v-24h-170q0 32 1 39q1 15 6 28q17 40 71 56q43 13 102 22q60 10 62 10q21 6 21 17q0 12 -33 20t-52 8q-46 0 -82 -24v-39h-159v140q103 3 123 -7q46 13 135 13q97 0 153 -24
q101 -42 101 -101q0 -34 -32 -55q-47 -29 -117 -45q-56 -11 -112 -20zM1145 1197q-102 -202 -297.5 -209t-315.5 209h163q61 -77 156 -70t139 70h155z" />
    <glyph glyph-name="uni1EB4" unicode="&#x1eb4;" horiz-adv-x="1800" 
d="M900 1270q-22 8 -51 8q-68 0 -164 -45v183q86 34 166 34q37 0 100.5 -18t96.5 -18q84 0 149 57v-195q-76 -41 -137 -41q-66 0 -160 35zM1294 33q-102 -33 -229 -33q-88 0 -174 18v166q72 -12 125 -12q94 0 114 33l-40 63q-172 47 -320 47q-137 0 -289 -39l-47 -71
q19 -33 94 -33q43 0 105 12v-166q-80 -16 -150 -16q-102 0 -166 35q-65 -35 -167 -35q-70 0 -150 16v164q39 -4 68 -4q94 0 145 62q55 86 111 172q-7 34 -41 73q65 17 137 72l131 201q-14 4 -35 4q-43 0 -110 -23v166q79 19 167 19q142 0 265 -37q104 35 247 35
q105 0 211 -21v-162q-73 27 -120 27q-17 0 -31 -2l135 -209q70 -53 135 -70q-33 -36 -41 -73q56 -86 109 -174q51 -62 137 -62q35 0 82 8v-166q-84 -16 -174 -16q-129 0 -234 31zM784 735l-166 -252q162 25 332 -2zM1145 1197q-102 -202 -297.5 -209t-315.5 209h163
q61 -77 156 -70t139 70h155z" />
    <glyph glyph-name="uni1EB5" unicode="&#x1eb5;" horiz-adv-x="1800" 
d="M900 1270q-22 8 -51 8q-68 0 -164 -45v183q86 34 166 34q37 0 100.5 -18t96.5 -18q84 0 149 57v-195q-76 -41 -137 -41q-66 0 -160 35zM1294 33q-102 -33 -229 -33q-88 0 -174 18v166q72 -12 125 -12q94 0 114 33l-40 63q-172 47 -320 47q-137 0 -289 -39l-47 -71
q19 -33 94 -33q43 0 105 12v-166q-80 -16 -150 -16q-102 0 -166 35q-65 -35 -167 -35q-70 0 -150 16v164q39 -4 68 -4q94 0 145 62q55 86 111 172q-7 34 -41 73q65 17 137 72l131 201q-14 4 -35 4q-43 0 -110 -23v166q79 19 167 19q142 0 265 -37q104 35 247 35
q105 0 211 -21v-162q-73 27 -120 27q-17 0 -31 -2l135 -209q70 -53 135 -70q-33 -36 -41 -73q56 -86 109 -174q51 -62 137 -62q35 0 82 8v-166q-84 -16 -174 -16q-129 0 -234 31zM784 735l-166 -252q162 25 332 -2zM1145 1197q-102 -202 -297.5 -209t-315.5 209h163
q61 -77 156 -70t139 70h155z" />
    <glyph glyph-name="uni1EB6" unicode="&#x1eb6;" horiz-adv-x="1800" 
d="M777 -314q-53 0 -92 38t-39 91q0 55 39 93t92 38q55 0 93 -38t38 -93q0 -53 -38 -91t-93 -38zM1294 33q-102 -33 -229 -33q-88 0 -174 18v166q72 -12 125 -12q94 0 114 33l-40 63q-172 47 -320 47q-137 0 -289 -39l-47 -71q19 -33 94 -33q43 0 105 12v-166
q-80 -16 -150 -16q-102 0 -166 35q-65 -35 -167 -35q-70 0 -150 16v164q39 -4 68 -4q94 0 145 62q55 86 111 172q-7 34 -41 73q65 17 137 72l131 201q-14 4 -35 4q-43 0 -110 -23v166q79 19 167 19q142 0 265 -37q104 35 247 35q105 0 211 -21v-162q-73 27 -120 27
q-17 0 -31 -2l135 -209q70 -53 135 -70q-33 -36 -41 -73q56 -86 109 -174q51 -62 137 -62q35 0 82 8v-166q-84 -16 -174 -16q-129 0 -234 31zM784 735l-166 -252q162 25 332 -2zM1145 1197q-102 -202 -297.5 -209t-315.5 209h163q61 -77 156 -70t139 70h155z" />
    <glyph glyph-name="uni1EB7" unicode="&#x1eb7;" horiz-adv-x="1800" 
d="M777 -314q-53 0 -92 38t-39 91q0 55 39 93t92 38q55 0 93 -38t38 -93q0 -53 -38 -91t-93 -38zM1294 33q-102 -33 -229 -33q-88 0 -174 18v166q72 -12 125 -12q94 0 114 33l-40 63q-172 47 -320 47q-137 0 -289 -39l-47 -71q19 -33 94 -33q43 0 105 12v-166
q-80 -16 -150 -16q-102 0 -166 35q-65 -35 -167 -35q-70 0 -150 16v164q39 -4 68 -4q94 0 145 62q55 86 111 172q-7 34 -41 73q65 17 137 72l131 201q-14 4 -35 4q-43 0 -110 -23v166q79 19 167 19q142 0 265 -37q104 35 247 35q105 0 211 -21v-162q-73 27 -120 27
q-17 0 -31 -2l135 -209q70 -53 135 -70q-33 -36 -41 -73q56 -86 109 -174q51 -62 137 -62q35 0 82 8v-166q-84 -16 -174 -16q-129 0 -234 31zM784 735l-166 -252q162 25 332 -2zM1145 1197q-102 -202 -297.5 -209t-315.5 209h163q61 -77 156 -70t139 70h155z" />
    <glyph glyph-name="uni1EB8" unicode="&#x1eb8;" horiz-adv-x="1519" 
d="M1106 573v125q-139 56 -361 56q-165 0 -227 -37v-129q86 12 189 12q131 0 256 -20v-187q-132 33 -261 33q-96 0 -184 -18v-203q70 -39 232 -39q233 0 356 72v108h315v-344q-200 -8 -280 31q-193 -47 -391 -47q-254 0 -390 59q-92 -43 -217 -43q-69 0 -143 16v162
q51 -8 90 -8q88 0 107 41v162q-17 51 -88 96q75 47 88 98v140q-19 41 -107 41q-39 0 -90 -9v162q74 17 145 17q125 0 220 -43q153 51 397 51q203 0 389 -41q70 35 270 26v-340h-315zM777 -314q-53 0 -92 38t-39 91q0 55 39 93t92 38q55 0 93 -38t38 -93q0 -53 -38 -91
t-93 -38z" />
    <glyph glyph-name="uni1EB9" unicode="&#x1eb9;" horiz-adv-x="1519" 
d="M1106 573v125q-139 56 -361 56q-165 0 -227 -37v-129q86 12 189 12q131 0 256 -20v-187q-132 33 -261 33q-96 0 -184 -18v-203q70 -39 232 -39q233 0 356 72v108h315v-344q-200 -8 -280 31q-193 -47 -391 -47q-254 0 -390 59q-92 -43 -217 -43q-69 0 -143 16v162
q51 -8 90 -8q88 0 107 41v162q-17 51 -88 96q75 47 88 98v140q-19 41 -107 41q-39 0 -90 -9v162q74 17 145 17q125 0 220 -43q153 51 397 51q203 0 389 -41q70 35 270 26v-340h-315zM777 -314q-53 0 -92 38t-39 91q0 55 39 93t92 38q55 0 93 -38t38 -93q0 -53 -38 -91
t-93 -38z" />
    <glyph glyph-name="uni1EBA" unicode="&#x1eba;" horiz-adv-x="1519" 
d="M1106 573v125q-139 56 -361 56q-165 0 -227 -37v-129q86 12 189 12q131 0 256 -20v-187q-132 33 -261 33q-96 0 -184 -18v-203q70 -39 232 -39q233 0 356 72v108h315v-344q-200 -8 -280 31q-193 -47 -391 -47q-254 0 -390 59q-92 -43 -217 -43q-69 0 -143 16v162
q51 -8 90 -8q88 0 107 41v162q-17 51 -88 96q75 47 88 98v140q-19 41 -107 41q-39 0 -90 -9v162q74 17 145 17q125 0 220 -43q153 51 397 51q203 0 389 -41q70 35 270 26v-340h-315zM858 1001q-18 -4 -18 -14v-24h-170q0 32 1 39q1 15 6 28q17 40 71 56q43 13 102 22
q60 10 62 10q21 6 21 17q0 12 -33 20t-52 8q-46 0 -82 -24v-39h-159v140q103 3 123 -7q46 13 135 13q97 0 153 -24q101 -42 101 -101q0 -34 -32 -55q-47 -29 -117 -45q-56 -11 -112 -20z" />
    <glyph glyph-name="uni1EBB" unicode="&#x1ebb;" horiz-adv-x="1519" 
d="M1106 573v125q-139 56 -361 56q-165 0 -227 -37v-129q86 12 189 12q131 0 256 -20v-187q-132 33 -261 33q-96 0 -184 -18v-203q70 -39 232 -39q233 0 356 72v108h315v-344q-200 -8 -280 31q-193 -47 -391 -47q-254 0 -390 59q-92 -43 -217 -43q-69 0 -143 16v162
q51 -8 90 -8q88 0 107 41v162q-17 51 -88 96q75 47 88 98v140q-19 41 -107 41q-39 0 -90 -9v162q74 17 145 17q125 0 220 -43q153 51 397 51q203 0 389 -41q70 35 270 26v-340h-315zM858 1001q-18 -4 -18 -14v-24h-170q0 32 1 39q1 15 6 28q17 40 71 56q43 13 102 22
q60 10 62 10q21 6 21 17q0 12 -33 20t-52 8q-46 0 -82 -24v-39h-159v140q103 3 123 -7q46 13 135 13q97 0 153 -24q101 -42 101 -101q0 -34 -32 -55q-47 -29 -117 -45q-56 -11 -112 -20z" />
    <glyph glyph-name="uni1EBC" unicode="&#x1ebc;" horiz-adv-x="1519" 
d="M1106 573v125q-139 56 -361 56q-165 0 -227 -37v-129q86 12 189 12q131 0 256 -20v-187q-132 33 -261 33q-96 0 -184 -18v-203q70 -39 232 -39q233 0 356 72v108h315v-344q-200 -8 -280 31q-193 -47 -391 -47q-254 0 -390 59q-92 -43 -217 -43q-69 0 -143 16v162
q51 -8 90 -8q88 0 107 41v162q-17 51 -88 96q75 47 88 98v140q-19 41 -107 41q-39 0 -90 -9v162q74 17 145 17q125 0 220 -43q153 51 397 51q203 0 389 -41q70 35 270 26v-340h-315zM739 1032q-22 8 -51 8q-68 0 -164 -45v183q86 34 166 34q37 0 100.5 -18t96.5 -18
q84 0 149 57v-195q-76 -41 -137 -41q-66 0 -160 35z" />
    <glyph glyph-name="uni1EBD" unicode="&#x1ebd;" horiz-adv-x="1519" 
d="M1106 573v125q-139 56 -361 56q-165 0 -227 -37v-129q86 12 189 12q131 0 256 -20v-187q-132 33 -261 33q-96 0 -184 -18v-203q70 -39 232 -39q233 0 356 72v108h315v-344q-200 -8 -280 31q-193 -47 -391 -47q-254 0 -390 59q-92 -43 -217 -43q-69 0 -143 16v162
q51 -8 90 -8q88 0 107 41v162q-17 51 -88 96q75 47 88 98v140q-19 41 -107 41q-39 0 -90 -9v162q74 17 145 17q125 0 220 -43q153 51 397 51q203 0 389 -41q70 35 270 26v-340h-315zM739 1032q-22 8 -51 8q-68 0 -164 -45v183q86 34 166 34q37 0 100.5 -18t96.5 -18
q84 0 149 57v-195q-76 -41 -137 -41q-66 0 -160 35z" />
    <glyph glyph-name="uni1EBE" unicode="&#x1ebe;" horiz-adv-x="1519" 
d="M542 1175l-112 84l258 227l170 -143zM1106 580v127q-139 53 -361 53q-165 0 -227 -35v-131q86 12 189 12q131 0 256 -20v-189q-132 33 -261 33q-96 0 -184 -18v-205q70 -39 232 -39q233 0 356 74v108h315v-348q-200 -8 -280 31q-193 -47 -391 -47q-254 0 -390 59
q-92 -43 -217 -43q-69 0 -143 16v164q51 -8 90 -8q88 0 107 41v164q-17 51 -88 96q75 49 88 100v142q-19 41 -107 41q-39 0 -90 -8v163q74 17 145 17q125 0 220 -45q153 53 397 53q203 0 389 -41q70 35 270 27v-344h-315zM866 995l-121 86l-131 -86h-176l236 234h149
l226 -234h-183z" />
    <glyph glyph-name="uni1EBF" unicode="&#x1ebf;" horiz-adv-x="1519" 
d="M542 1175l-112 84l258 227l170 -143zM1106 580v127q-139 53 -361 53q-165 0 -227 -35v-131q86 12 189 12q131 0 256 -20v-189q-132 33 -261 33q-96 0 -184 -18v-205q70 -39 232 -39q233 0 356 74v108h315v-348q-200 -8 -280 31q-193 -47 -391 -47q-254 0 -390 59
q-92 -43 -217 -43q-69 0 -143 16v164q51 -8 90 -8q88 0 107 41v164q-17 51 -88 96q75 49 88 100v142q-19 41 -107 41q-39 0 -90 -8v163q74 17 145 17q125 0 220 -45q153 53 397 53q203 0 389 -41q70 35 270 27v-344h-315zM866 995l-121 86l-131 -86h-176l236 234h149
l226 -234h-183z" />
    <glyph glyph-name="uni1EC0" unicode="&#x1ec0;" horiz-adv-x="1519" 
d="M982 1164l-342 170l198 139l256 -225zM1106 580v127q-139 55 -361 55q-165 0 -227 -37v-131q86 12 189 12q131 0 256 -20v-189q-132 33 -261 33q-96 0 -184 -18v-205q70 -39 232 -39q233 0 356 74v108h315v-348q-200 -8 -280 31q-193 -47 -391 -47q-254 0 -390 61
q-92 -45 -217 -45q-69 0 -143 16v164q51 -8 90 -8q88 0 107 41v164q-17 51 -88 96q75 49 88 103v139q-19 41 -107 41q-39 0 -90 -8v163q74 17 145 17q125 0 220 -43q153 51 397 51q203 0 389 -41q70 35 270 27v-344h-315zM866 995l-121 86l-131 -86h-176l236 234h149
l226 -234h-183z" />
    <glyph glyph-name="uni1EC1" unicode="&#x1ec1;" horiz-adv-x="1519" 
d="M982 1164l-342 170l198 139l256 -225zM1106 580v127q-139 55 -361 55q-165 0 -227 -37v-131q86 12 189 12q131 0 256 -20v-189q-132 33 -261 33q-96 0 -184 -18v-205q70 -39 232 -39q233 0 356 74v108h315v-348q-200 -8 -280 31q-193 -47 -391 -47q-254 0 -390 61
q-92 -45 -217 -45q-69 0 -143 16v164q51 -8 90 -8q88 0 107 41v164q-17 51 -88 96q75 49 88 103v139q-19 41 -107 41q-39 0 -90 -8v163q74 17 145 17q125 0 220 -43q153 51 397 51q203 0 389 -41q70 35 270 27v-344h-315zM866 995l-121 86l-131 -86h-176l236 234h149
l226 -234h-183z" />
    <glyph glyph-name="uni1EC2" unicode="&#x1ec2;" horiz-adv-x="1519" 
d="M1106 573v125q-139 56 -361 56q-165 0 -227 -37v-129q86 12 189 12q131 0 256 -20v-187q-132 33 -261 33q-96 0 -184 -18v-203q70 -39 232 -39q233 0 356 72v108h315v-344q-200 -8 -280 31q-193 -47 -391 -47q-254 0 -390 59q-92 -43 -217 -43q-69 0 -143 16v162
q51 -8 90 -8q88 0 107 41v162q-17 51 -88 96q75 47 88 98v140q-19 41 -107 41q-39 0 -90 -9v162q74 17 145 17q125 0 220 -43q153 51 397 51q203 0 389 -41q70 35 270 26v-340h-315zM1141 1171q-18 -4 -18 -14v-24h-170q0 32 1 39q1 15 6 28q17 40 71 56q43 13 102 22
q60 10 62 10q21 6 21 17q0 12 -33 20t-52 8q-46 0 -82 -24v-39h-159v140q103 3 123 -7q46 13 135 13q97 0 153 -24q101 -42 101 -101q0 -34 -32 -55q-47 -29 -117 -45q-56 -11 -112 -20zM866 995l-121 86l-131 -86h-176l236 234h149l226 -234h-183z" />
    <glyph glyph-name="uni1EC3" unicode="&#x1ec3;" horiz-adv-x="1519" 
d="M1106 573v125q-139 56 -361 56q-165 0 -227 -37v-129q86 12 189 12q131 0 256 -20v-187q-132 33 -261 33q-96 0 -184 -18v-203q70 -39 232 -39q233 0 356 72v108h315v-344q-200 -8 -280 31q-193 -47 -391 -47q-254 0 -390 59q-92 -43 -217 -43q-69 0 -143 16v162
q51 -8 90 -8q88 0 107 41v162q-17 51 -88 96q75 47 88 98v140q-19 41 -107 41q-39 0 -90 -9v162q74 17 145 17q125 0 220 -43q153 51 397 51q203 0 389 -41q70 35 270 26v-340h-315zM1141 1171q-18 -4 -18 -14v-24h-170q0 32 1 39q1 15 6 28q17 40 71 56q43 13 102 22
q60 10 62 10q21 6 21 17q0 12 -33 20t-52 8q-46 0 -82 -24v-39h-159v140q103 3 123 -7q46 13 135 13q97 0 153 -24q101 -42 101 -101q0 -34 -32 -55q-47 -29 -117 -45q-56 -11 -112 -20zM866 995l-121 86l-131 -86h-176l236 234h149l226 -234h-183z" />
    <glyph glyph-name="uni1EC4" unicode="&#x1ec4;" horiz-adv-x="1519" 
d="M1106 573v125q-139 56 -361 56q-165 0 -227 -37v-129q86 12 189 12q131 0 256 -20v-187q-132 33 -261 33q-96 0 -184 -18v-203q70 -39 232 -39q233 0 356 72v108h315v-344q-200 -8 -280 31q-193 -47 -391 -47q-254 0 -390 59q-92 -43 -217 -43q-69 0 -143 16v162
q51 -8 90 -8q88 0 107 41v162q-17 51 -88 96q75 47 88 98v140q-19 41 -107 41q-39 0 -90 -9v162q74 17 145 17q125 0 220 -43q153 51 397 51q203 0 389 -41q70 35 270 26v-340h-315zM777 1268q-22 8 -51 8q-68 0 -164 -45v183q86 34 166 34q37 0 100.5 -18t96.5 -18
q84 0 149 57v-195q-76 -41 -137 -41q-66 0 -160 35zM866 995l-121 86l-131 -86h-176l236 234h149l226 -234h-183z" />
    <glyph glyph-name="uni1EC5" unicode="&#x1ec5;" horiz-adv-x="1519" 
d="M1106 573v125q-139 56 -361 56q-165 0 -227 -37v-129q86 12 189 12q131 0 256 -20v-187q-132 33 -261 33q-96 0 -184 -18v-203q70 -39 232 -39q233 0 356 72v108h315v-344q-200 -8 -280 31q-193 -47 -391 -47q-254 0 -390 59q-92 -43 -217 -43q-69 0 -143 16v162
q51 -8 90 -8q88 0 107 41v162q-17 51 -88 96q75 47 88 98v140q-19 41 -107 41q-39 0 -90 -9v162q74 17 145 17q125 0 220 -43q153 51 397 51q203 0 389 -41q70 35 270 26v-340h-315zM777 1268q-22 8 -51 8q-68 0 -164 -45v183q86 34 166 34q37 0 100.5 -18t96.5 -18
q84 0 149 57v-195q-76 -41 -137 -41q-66 0 -160 35zM866 995l-121 86l-131 -86h-176l236 234h149l226 -234h-183z" />
    <glyph glyph-name="uni1EC6" unicode="&#x1ec6;" horiz-adv-x="1519" 
d="M1106 573v125q-139 56 -361 56q-165 0 -227 -37v-129q86 12 189 12q131 0 256 -20v-187q-132 33 -261 33q-96 0 -184 -18v-203q70 -39 232 -39q233 0 356 72v108h315v-344q-200 -8 -280 31q-193 -47 -391 -47q-254 0 -390 59q-92 -43 -217 -43q-69 0 -143 16v162
q51 -8 90 -8q88 0 107 41v162q-17 51 -88 96q75 47 88 98v140q-19 41 -107 41q-39 0 -90 -9v162q74 17 145 17q125 0 220 -43q153 51 397 51q203 0 389 -41q70 35 270 26v-340h-315zM777 -314q-53 0 -92 38t-39 91q0 55 39 93t92 38q55 0 93 -38t38 -93q0 -53 -38 -91
t-93 -38zM866 995l-121 86l-131 -86h-176l236 234h149l226 -234h-183z" />
    <glyph glyph-name="uni1EC7" unicode="&#x1ec7;" horiz-adv-x="1519" 
d="M1106 573v125q-139 56 -361 56q-165 0 -227 -37v-129q86 12 189 12q131 0 256 -20v-187q-132 33 -261 33q-96 0 -184 -18v-203q70 -39 232 -39q233 0 356 72v108h315v-344q-200 -8 -280 31q-193 -47 -391 -47q-254 0 -390 59q-92 -43 -217 -43q-69 0 -143 16v162
q51 -8 90 -8q88 0 107 41v162q-17 51 -88 96q75 47 88 98v140q-19 41 -107 41q-39 0 -90 -9v162q74 17 145 17q125 0 220 -43q153 51 397 51q203 0 389 -41q70 35 270 26v-340h-315zM777 -314q-53 0 -92 38t-39 91q0 55 39 93t92 38q55 0 93 -38t38 -93q0 -53 -38 -91
t-93 -38zM866 995l-121 86l-131 -86h-176l236 234h149l226 -234h-183z" />
    <glyph glyph-name="uni1EC8" unicode="&#x1ec8;" horiz-adv-x="792" 
d="M348 37q-82 -35 -196 -35q-74 0 -152 16v164q59 -14 102 -14q74 0 88 39v166q-14 53 -86 98q76 49 86 102v136q-14 36 -88 36q-43 0 -102 -12v162q78 18 152 18q114 0 196 -36q82 36 195 36q75 0 153 -18v-162q-59 12 -102 12q-74 0 -90 -36v-136q10 -55 88 -104
q-72 -45 -88 -98v-164q16 -39 90 -39q41 0 102 14v-164q-78 -16 -153 -16q-113 0 -195 35zM424 1001q-18 -4 -18 -14v-24h-170q0 32 1 39q1 15 6 28q17 40 71 56q43 13 102 22q60 10 62 10q21 6 21 17q0 12 -33 20t-52 8q-46 0 -82 -24v-39h-159v140q103 3 123 -7
q46 13 135 13q97 0 153 -24q101 -42 101 -101q0 -34 -32 -55q-47 -29 -117 -45q-56 -11 -112 -20z" />
    <glyph glyph-name="uni1EC9" unicode="&#x1ec9;" horiz-adv-x="792" 
d="M348 37q-82 -35 -196 -35q-74 0 -152 16v164q59 -14 102 -14q74 0 88 39v166q-14 53 -86 98q76 49 86 102v136q-14 36 -88 36q-43 0 -102 -12v162q78 18 152 18q114 0 196 -36q82 36 195 36q75 0 153 -18v-162q-59 12 -102 12q-74 0 -90 -36v-136q10 -55 88 -104
q-72 -45 -88 -98v-164q16 -39 90 -39q41 0 102 14v-164q-78 -16 -153 -16q-113 0 -195 35zM424 1001q-18 -4 -18 -14v-24h-170q0 32 1 39q1 15 6 28q17 40 71 56q43 13 102 22q60 10 62 10q21 6 21 17q0 12 -33 20t-52 8q-46 0 -82 -24v-39h-159v140q103 3 123 -7
q46 13 135 13q97 0 153 -24q101 -42 101 -101q0 -34 -32 -55q-47 -29 -117 -45q-56 -11 -112 -20z" />
    <glyph glyph-name="uni1ECA" unicode="&#x1eca;" horiz-adv-x="792" 
d="M348 37q-82 -35 -196 -35q-74 0 -152 16v164q59 -14 102 -14q74 0 88 39v166q-14 53 -86 98q76 49 86 102v136q-14 36 -88 36q-43 0 -102 -12v162q78 18 152 18q114 0 196 -36q82 36 195 36q75 0 153 -18v-162q-59 12 -102 12q-74 0 -90 -36v-136q10 -55 88 -104
q-72 -45 -88 -98v-164q16 -39 90 -39q41 0 102 14v-164q-78 -16 -153 -16q-113 0 -195 35zM343 -314q-53 0 -92 38t-39 91q0 55 39 93t92 38q55 0 93 -38t38 -93q0 -53 -38 -91t-93 -38z" />
    <glyph glyph-name="uni1ECB" unicode="&#x1ecb;" horiz-adv-x="792" 
d="M348 37q-82 -35 -196 -35q-74 0 -152 16v164q59 -14 102 -14q74 0 88 39v166q-14 53 -86 98q76 49 86 102v136q-14 36 -88 36q-43 0 -102 -12v162q78 18 152 18q114 0 196 -36q82 36 195 36q75 0 153 -18v-162q-59 12 -102 12q-74 0 -90 -36v-136q10 -55 88 -104
q-72 -45 -88 -98v-164q16 -39 90 -39q41 0 102 14v-164q-78 -16 -153 -16q-113 0 -195 35zM343 -314q-53 0 -92 38t-39 91q0 55 39 93t92 38q55 0 93 -38t38 -93q0 -53 -38 -91t-93 -38z" />
    <glyph glyph-name="uni1ECC" unicode="&#x1ecc;" 
d="M1581 465l-4 12q2 0 6 -4q12 -10 0 -18q-57 -41 -67 -74q-52 -176 -264 -292t-492 -116q-283 0 -502 121t-254 295q-4 21 -72 68q-16 12 0 22v0q5 19 21 8l24 -16l-63 -2q51 37 63 51q27 27 50 72q77 156 277 251t456 95t459.5 -97.5t273.5 -250.5q27 -58 98 -111z
M1040 467q29 18 84 90q-39 96 -137 158.5t-223 62.5t-224.5 -62.5t-136.5 -158.5q11 -35 84 -90q-71 -39 -96 -76q29 -110 132.5 -183t240.5 -73q135 0 239.5 74t131.5 184q-25 35 -95 74zM753 -314q-54 0 -92.5 38t-38.5 91q0 55 38.5 93t92.5 38q55 0 93 -38t38 -93
q0 -53 -38 -91t-93 -38z" />
    <glyph glyph-name="uni1ECD" unicode="&#x1ecd;" 
d="M1581 465l-4 12q2 0 6 -4q12 -10 0 -18q-57 -41 -67 -74q-52 -176 -264 -292t-492 -116q-283 0 -502 121t-254 295q-4 21 -72 68q-16 12 0 22v0q5 19 21 8l24 -16l-63 -2q51 37 63 51q27 27 50 72q77 156 277 251t456 95t459.5 -97.5t273.5 -250.5q27 -58 98 -111z
M1040 467q29 18 84 90q-39 96 -137 158.5t-223 62.5t-224.5 -62.5t-136.5 -158.5q11 -35 84 -90q-71 -39 -96 -76q29 -110 132.5 -183t240.5 -73q135 0 239.5 74t131.5 184q-25 35 -95 74zM753 -314q-54 0 -92.5 38t-38.5 91q0 55 38.5 93t92.5 38q55 0 93 -38t38 -93
q0 -53 -38 -91t-93 -38z" />
    <glyph glyph-name="uni1ECE" unicode="&#x1ece;" 
d="M1581 465l-4 12q2 0 6 -4q12 -10 0 -18q-57 -41 -67 -74q-52 -176 -264 -292t-492 -116q-283 0 -502 121t-254 295q-4 21 -72 68q-16 12 0 22v0q5 19 21 8l24 -16l-63 -2q51 37 63 51q27 27 50 72q77 156 277 251t456 95t459.5 -97.5t273.5 -250.5q27 -58 98 -111z
M1040 467q29 18 84 90q-39 96 -137 158.5t-223 62.5t-224.5 -62.5t-136.5 -158.5q11 -35 84 -90q-71 -39 -96 -76q29 -110 132.5 -183t240.5 -73q135 0 239.5 74t131.5 184q-25 35 -95 74zM821 1001q-18 -4 -18 -14v-24h-170q0 32 1 39q1 15 6 28q17 40 71 56q43 13 102 22
q60 10 62 10q21 6 21 17q0 12 -33 20t-52 8q-46 0 -82 -24v-39h-159v140q103 3 123 -7q46 13 135 13q97 0 153 -24q101 -42 101 -101q0 -34 -32 -55q-47 -29 -117 -45q-56 -11 -112 -20z" />
    <glyph glyph-name="uni1ECF" unicode="&#x1ecf;" 
d="M1581 465l-4 12q2 0 6 -4q12 -10 0 -18q-57 -41 -67 -74q-52 -176 -264 -292t-492 -116q-283 0 -502 121t-254 295q-4 21 -72 68q-16 12 0 22v0q5 19 21 8l24 -16l-63 -2q51 37 63 51q27 27 50 72q77 156 277 251t456 95t459.5 -97.5t273.5 -250.5q27 -58 98 -111z
M1040 467q29 18 84 90q-39 96 -137 158.5t-223 62.5t-224.5 -62.5t-136.5 -158.5q11 -35 84 -90q-71 -39 -96 -76q29 -110 132.5 -183t240.5 -73q135 0 239.5 74t131.5 184q-25 35 -95 74zM821 1001q-18 -4 -18 -14v-24h-170q0 32 1 39q1 15 6 28q17 40 71 56q43 13 102 22
q60 10 62 10q21 6 21 17q0 12 -33 20t-52 8q-46 0 -82 -24v-39h-159v140q103 3 123 -7q46 13 135 13q97 0 153 -24q101 -42 101 -101q0 -34 -32 -55q-47 -29 -117 -45q-56 -11 -112 -20z" />
    <glyph glyph-name="uni1ED0" unicode="&#x1ed0;" horiz-adv-x="1591" 
d="M558 1186l-112 84l258 228l170 -144zM1585 475q6 -10 -2 -16q-57 -41 -67 -74q-52 -178 -264 -295t-492 -117q-283 0 -502 122t-254 298q-4 21 -72 70q-16 10 0 20v2q5 19 21 7l24 -15l-63 -2q51 37 66 51q24 27 47 72q77 158 277 254t456 96t459.5 -98t273.5 -254
q27 -57 98 -111zM1040 471q29 21 84 92q-39 99 -137 161t-223 62t-224.5 -62t-136.5 -161q11 -35 84 -92q-71 -39 -96 -76q29 -110 132.5 -184t240.5 -74q135 0 239.5 74t131.5 186q-25 37 -95 74zM868 995l-120 86l-134 -86h-176l236 234h149l228 -234h-183z" />
    <glyph glyph-name="uni1ED1" unicode="&#x1ed1;" horiz-adv-x="1591" 
d="M558 1186l-112 84l258 228l170 -144zM1585 475q6 -10 -2 -16q-57 -41 -67 -74q-52 -178 -264 -295t-492 -117q-283 0 -502 122t-254 298q-4 21 -72 70q-16 10 0 20v2q5 19 21 7l24 -15l-63 -2q51 37 66 51q24 27 47 72q77 158 277 254t456 96t459.5 -98t273.5 -254
q27 -57 98 -111zM1040 471q29 21 84 92q-39 99 -137 161t-223 62t-224.5 -62t-136.5 -161q11 -35 84 -92q-71 -39 -96 -76q29 -110 132.5 -184t240.5 -74q135 0 239.5 74t131.5 186q-25 37 -95 74zM868 995l-120 86l-134 -86h-176l236 234h149l228 -234h-183z" />
    <glyph glyph-name="uni1ED2" unicode="&#x1ed2;" horiz-adv-x="1591" 
d="M967 1171l-334 164l199 142l260 -228zM1585 475q6 -10 -2 -16q-57 -41 -67 -74q-52 -178 -264 -295t-492 -117q-283 0 -502 122t-254 298q-4 21 -72 70q-16 10 0 20v2q5 19 21 7l24 -15l-63 -2q51 37 66 51q24 27 47 72q77 158 277 254t456 96t459.5 -98t273.5 -254
q27 -57 98 -111zM1040 471q29 21 84 92q-39 99 -137 161t-223 62t-224.5 -62t-136.5 -161q11 -35 84 -92q-71 -39 -96 -76q29 -110 132.5 -184t240.5 -74q135 0 239.5 74t131.5 186q-25 35 -95 74zM868 995l-120 86l-134 -86h-176l236 234h149l228 -234h-183z" />
    <glyph glyph-name="uni1ED3" unicode="&#x1ed3;" horiz-adv-x="1591" 
d="M967 1171l-334 164l199 142l260 -228zM1585 475q6 -10 -2 -16q-57 -41 -67 -74q-52 -178 -264 -295t-492 -117q-283 0 -502 122t-254 298q-4 21 -72 70q-16 10 0 20v2q5 19 21 7l24 -15l-63 -2q51 37 66 51q24 27 47 72q77 158 277 254t456 96t459.5 -98t273.5 -254
q27 -57 98 -111zM1040 471q29 21 84 92q-39 99 -137 161t-223 62t-224.5 -62t-136.5 -161q11 -35 84 -92q-71 -39 -96 -76q29 -110 132.5 -184t240.5 -74q135 0 239.5 74t131.5 186q-25 35 -95 74zM868 995l-120 86l-134 -86h-176l236 234h149l228 -234h-183z" />
    <glyph glyph-name="uni1ED4" unicode="&#x1ed4;" 
d="M1581 465l-4 12q2 0 6 -4q12 -10 0 -18q-57 -41 -67 -74q-52 -176 -264 -292t-492 -116q-283 0 -502 121t-254 295q-4 21 -72 68q-16 12 0 22v0q5 19 21 8l24 -16l-63 -2q51 37 63 51q27 27 50 72q77 156 277 251t456 95t459.5 -97.5t273.5 -250.5q27 -58 98 -111z
M1040 467q29 18 84 90q-39 96 -137 158.5t-223 62.5t-224.5 -62.5t-136.5 -158.5q11 -35 84 -90q-71 -39 -96 -76q29 -110 132.5 -183t240.5 -73q135 0 239.5 74t131.5 184q-25 35 -95 74zM1159 1141q-18 -4 -18 -14v-24h-170q0 32 1 39q1 15 6 28q17 40 71 56q43 13 102 22
q60 10 62 10q21 6 21 17q0 12 -33 20t-52 8q-46 0 -82 -24v-39h-159v140q103 3 123 -7q46 13 135 13q97 0 153 -24q101 -42 101 -101q0 -34 -32 -55q-47 -29 -117 -45q-56 -11 -112 -20zM868 995l-120 86l-134 -86h-176l236 234h149l228 -234h-183z" />
    <glyph glyph-name="uni1ED5" unicode="&#x1ed5;" 
d="M1581 465l-4 12q2 0 6 -4q12 -10 0 -18q-57 -41 -67 -74q-52 -176 -264 -292t-492 -116q-283 0 -502 121t-254 295q-4 21 -72 68q-16 12 0 22v0q5 19 21 8l24 -16l-63 -2q51 37 63 51q27 27 50 72q77 156 277 251t456 95t459.5 -97.5t273.5 -250.5q27 -58 98 -111z
M1040 467q29 18 84 90q-39 96 -137 158.5t-223 62.5t-224.5 -62.5t-136.5 -158.5q11 -35 84 -90q-71 -39 -96 -76q29 -110 132.5 -183t240.5 -73q135 0 239.5 74t131.5 184q-25 35 -95 74zM1159 1141q-18 -4 -18 -14v-24h-170q0 32 1 39q1 15 6 28q17 40 71 56q43 13 102 22
q60 10 62 10q21 6 21 17q0 12 -33 20t-52 8q-46 0 -82 -24v-39h-159v140q103 3 123 -7q46 13 135 13q97 0 153 -24q101 -42 101 -101q0 -34 -32 -55q-47 -29 -117 -45q-56 -11 -112 -20zM868 995l-120 86l-134 -86h-176l236 234h149l228 -234h-183z" />
    <glyph glyph-name="uni1ED6" unicode="&#x1ed6;" horiz-adv-x="1591" 
d="M773 1275q-20 9 -49 9q-67 0 -164 -46v183q86 33 166 33q37 0 99.5 -17.5t97.5 -17.5q82 0 147 55v-193q-74 -43 -137 -43t-160 37zM1585 475q6 -10 -2 -16q-57 -41 -67 -74q-52 -178 -264 -295t-492 -117q-283 0 -502 122t-254 296q-4 21 -72 70q-16 12 0 22v0
q5 19 21 9l24 -17l-63 -2q51 39 63 51q27 27 50 74q77 156 277 252t456 96t459.5 -97t273.5 -253q27 -59 98 -113zM1040 471q29 18 84 90q-39 98 -137 160.5t-223 62.5t-224.5 -62.5t-136.5 -158.5q11 -37 84 -92q-71 -39 -96 -76q29 -110 132.5 -184t240.5 -74
q135 0 239.5 74t131.5 186q-25 35 -95 74zM868 995l-120 86l-134 -86h-176l236 234h149l228 -234h-183z" />
    <glyph glyph-name="uni1ED7" unicode="&#x1ed7;" horiz-adv-x="1591" 
d="M773 1275q-20 9 -49 9q-67 0 -164 -46v183q86 33 166 33q37 0 99.5 -17.5t97.5 -17.5q82 0 147 55v-193q-74 -43 -137 -43t-160 37zM1585 475q6 -10 -2 -16q-57 -41 -67 -74q-52 -178 -264 -295t-492 -117q-283 0 -502 122t-254 296q-4 21 -72 70q-16 12 0 22v0
q5 19 21 9l24 -17l-63 -2q51 39 63 51q27 27 50 74q77 156 277 252t456 96t459.5 -97t273.5 -253q27 -59 98 -113zM1040 471q29 18 84 90q-39 98 -137 160.5t-223 62.5t-224.5 -62.5t-136.5 -158.5q11 -37 84 -92q-71 -39 -96 -76q29 -110 132.5 -184t240.5 -74
q135 0 239.5 74t131.5 186q-25 35 -95 74zM868 995l-120 86l-134 -86h-176l236 234h149l228 -234h-183z" />
    <glyph glyph-name="uni1ED8" unicode="&#x1ed8;" 
d="M1581 465l-4 12q2 0 6 -4q12 -10 0 -18q-57 -41 -67 -74q-52 -176 -264 -292t-492 -116q-283 0 -502 121t-254 295q-4 21 -72 68q-16 12 0 22v0q5 19 21 8l24 -16l-63 -2q51 37 63 51q27 27 50 72q77 156 277 251t456 95t459.5 -97.5t273.5 -250.5q27 -58 98 -111z
M1040 467q29 18 84 90q-39 96 -137 158.5t-223 62.5t-224.5 -62.5t-136.5 -158.5q11 -35 84 -90q-71 -39 -96 -76q29 -110 132.5 -183t240.5 -73q135 0 239.5 74t131.5 184q-25 35 -95 74zM753 -314q-54 0 -92.5 38t-38.5 91q0 55 38.5 93t92.5 38q55 0 93 -38t38 -93
q0 -53 -38 -91t-93 -38zM868 995l-120 86l-134 -86h-176l236 234h149l228 -234h-183z" />
    <glyph glyph-name="uni1ED9" unicode="&#x1ed9;" 
d="M1581 465l-4 12q2 0 6 -4q12 -10 0 -18q-57 -41 -67 -74q-52 -176 -264 -292t-492 -116q-283 0 -502 121t-254 295q-4 21 -72 68q-16 12 0 22v0q5 19 21 8l24 -16l-63 -2q51 37 63 51q27 27 50 72q77 156 277 251t456 95t459.5 -97.5t273.5 -250.5q27 -58 98 -111z
M1040 467q29 18 84 90q-39 96 -137 158.5t-223 62.5t-224.5 -62.5t-136.5 -158.5q11 -35 84 -90q-71 -39 -96 -76q29 -110 132.5 -183t240.5 -73q135 0 239.5 74t131.5 184q-25 35 -95 74zM753 -314q-54 0 -92.5 38t-38.5 91q0 55 38.5 93t92.5 38q55 0 93 -38t38 -93
q0 -53 -38 -91t-93 -38zM868 995l-120 86l-134 -86h-176l236 234h149l228 -234h-183z" />
    <glyph glyph-name="uni1EDA" unicode="&#x1eda;" horiz-adv-x="1591" 
d="M737 997l-112 84l258 228l170 -144zM1585 475q6 -10 -2 -16q-57 -41 -67 -74q-52 -178 -264 -295t-492 -117q-283 0 -502 122t-254 298q-4 21 -72 70q-16 10 0 20v2q5 19 21 7l24 -15l-63 -2q51 37 66 51q24 27 47 72q77 158 277 254t456 96t459.5 -98t273.5 -254
q27 -57 98 -111zM1040 471q29 21 84 92q-39 99 -137 161t-223 62t-224.5 -62t-136.5 -161q11 -35 84 -92q-71 -39 -96 -76q29 -110 132.5 -184t240.5 -74q135 0 239.5 74t131.5 186q-25 37 -95 74zM1322 762q-54 0 -92.5 38t-38.5 91q0 55 38.5 93t92.5 38q55 0 93 -38
t38 -93q0 -53 -38 -91t-93 -38z" />
    <glyph glyph-name="uni1EDB" unicode="&#x1edb;" horiz-adv-x="1591" 
d="M737 997l-112 84l258 228l170 -144zM1585 475q6 -10 -2 -16q-57 -41 -67 -74q-52 -178 -264 -295t-492 -117q-283 0 -502 122t-254 298q-4 21 -72 70q-16 10 0 20v2q5 19 21 7l24 -15l-63 -2q51 37 66 51q24 27 47 72q77 158 277 254t456 96t459.5 -98t273.5 -254
q27 -57 98 -111zM1040 471q29 21 84 92q-39 99 -137 161t-223 62t-224.5 -62t-136.5 -161q11 -35 84 -92q-71 -39 -96 -76q29 -110 132.5 -184t240.5 -74q135 0 239.5 74t131.5 186q-25 37 -95 74zM1322 762q-54 0 -92.5 38t-38.5 91q0 55 38.5 93t92.5 38q55 0 93 -38
t38 -93q0 -53 -38 -91t-93 -38z" />
    <glyph glyph-name="uni1EDC" unicode="&#x1edc;" horiz-adv-x="1591" 
d="M760 1001l-334 164l199 142l260 -228zM1040 471q29 21 84 92q-39 99 -137 161t-223 62t-224.5 -62t-136.5 -161q11 -35 84 -92q-71 -39 -96 -76q29 -110 132.5 -184t240.5 -74q135 0 239.5 74t131.5 186q-25 35 -95 74zM1581 465l-4 12q2 0 6 -4q12 -10 0 -18
q-57 -41 -67 -74q-52 -176 -264 -292t-492 -116q-283 0 -502 121t-254 295q-4 21 -72 68q-16 12 0 22v0q5 19 21 8l24 -16l-63 -2q51 37 63 51q27 27 50 72q77 156 277 251t456 95t459.5 -97.5t273.5 -250.5q27 -58 98 -111zM1322 762q-54 0 -92.5 38t-38.5 91q0 55 38.5 93
t92.5 38q55 0 93 -38t38 -93q0 -53 -38 -91t-93 -38z" />
    <glyph glyph-name="uni1EDD" unicode="&#x1edd;" horiz-adv-x="1591" 
d="M760 1001l-334 164l199 142l260 -228zM1040 471q29 21 84 92q-39 99 -137 161t-223 62t-224.5 -62t-136.5 -161q11 -35 84 -92q-71 -39 -96 -76q29 -110 132.5 -184t240.5 -74q135 0 239.5 74t131.5 186q-25 35 -95 74zM1581 465l-4 12q2 0 6 -4q12 -10 0 -18
q-57 -41 -67 -74q-52 -176 -264 -292t-492 -116q-283 0 -502 121t-254 295q-4 21 -72 68q-16 12 0 22v0q5 19 21 8l24 -16l-63 -2q51 37 63 51q27 27 50 72q77 156 277 251t456 95t459.5 -97.5t273.5 -250.5q27 -58 98 -111zM1322 762q-54 0 -92.5 38t-38.5 91q0 55 38.5 93
t92.5 38q55 0 93 -38t38 -93q0 -53 -38 -91t-93 -38z" />
    <glyph glyph-name="uni1EDE" unicode="&#x1ede;" 
d="M1581 465l-4 12q2 0 6 -4q12 -10 0 -18q-57 -41 -67 -74q-52 -176 -264 -292t-492 -116q-283 0 -502 121t-254 295q-4 21 -72 68q-16 12 0 22v0q5 19 21 8l24 -16l-63 -2q51 37 63 51q27 27 50 72q77 156 277 251t456 95t459.5 -97.5t273.5 -250.5q27 -58 98 -111z
M1040 467q29 18 84 90q-39 96 -137 158.5t-223 62.5t-224.5 -62.5t-136.5 -158.5q11 -35 84 -90q-71 -39 -96 -76q29 -110 132.5 -183t240.5 -73q135 0 239.5 74t131.5 184q-25 35 -95 74zM821 1001q-18 -4 -18 -14v-24h-170q0 32 1 39q1 15 6 28q17 40 71 56q43 13 102 22
q60 10 62 10q21 6 21 17q0 12 -33 20t-52 8q-46 0 -82 -24v-39h-159v140q103 3 123 -7q46 13 135 13q97 0 153 -24q101 -42 101 -101q0 -34 -32 -55q-47 -29 -117 -45q-56 -11 -112 -20zM1322 762q-54 0 -92.5 38t-38.5 91q0 55 38.5 93t92.5 38q55 0 93 -38t38 -93
q0 -53 -38 -91t-93 -38z" />
    <glyph glyph-name="uni1EDF" unicode="&#x1edf;" 
d="M1581 465l-4 12q2 0 6 -4q12 -10 0 -18q-57 -41 -67 -74q-52 -176 -264 -292t-492 -116q-283 0 -502 121t-254 295q-4 21 -72 68q-16 12 0 22v0q5 19 21 8l24 -16l-63 -2q51 37 63 51q27 27 50 72q77 156 277 251t456 95t459.5 -97.5t273.5 -250.5q27 -58 98 -111z
M1040 467q29 18 84 90q-39 96 -137 158.5t-223 62.5t-224.5 -62.5t-136.5 -158.5q11 -35 84 -90q-71 -39 -96 -76q29 -110 132.5 -183t240.5 -73q135 0 239.5 74t131.5 184q-25 35 -95 74zM821 1001q-18 -4 -18 -14v-24h-170q0 32 1 39q1 15 6 28q17 40 71 56q43 13 102 22
q60 10 62 10q21 6 21 17q0 12 -33 20t-52 8q-46 0 -82 -24v-39h-159v140q103 3 123 -7q46 13 135 13q97 0 153 -24q101 -42 101 -101q0 -34 -32 -55q-47 -29 -117 -45q-56 -11 -112 -20zM1322 762q-54 0 -92.5 38t-38.5 91q0 55 38.5 93t92.5 38q55 0 93 -38t38 -93
q0 -53 -38 -91t-93 -38z" />
    <glyph glyph-name="uni1EE0" unicode="&#x1ee0;" horiz-adv-x="1591" 
d="M735 1038q-20 9 -49 9q-67 0 -164 -46v183q86 33 166 33q37 0 99.5 -17.5t97.5 -17.5q82 0 147 55v-193q-74 -43 -137 -43t-160 37zM1585 475q6 -10 -2 -16q-57 -41 -67 -74q-52 -178 -264 -295t-492 -117q-283 0 -502 122t-254 296q-4 21 -72 70q-16 12 0 22v0
q5 19 21 9l24 -17l-63 -2q51 39 63 51q27 27 50 74q77 156 277 252t456 96t459.5 -97t273.5 -253q27 -59 98 -113zM1040 471q29 18 84 90q-39 98 -137 160.5t-223 62.5t-224.5 -62.5t-136.5 -158.5q11 -37 84 -92q-71 -39 -96 -76q29 -110 132.5 -184t240.5 -74
q135 0 239.5 74t131.5 186q-25 35 -95 74zM1322 762q-54 0 -92.5 38t-38.5 91q0 55 38.5 93t92.5 38q55 0 93 -38t38 -93q0 -53 -38 -91t-93 -38z" />
    <glyph glyph-name="uni1EE1" unicode="&#x1ee1;" horiz-adv-x="1591" 
d="M735 1038q-20 9 -49 9q-67 0 -164 -46v183q86 33 166 33q37 0 99.5 -17.5t97.5 -17.5q82 0 147 55v-193q-74 -43 -137 -43t-160 37zM1585 475q6 -10 -2 -16q-57 -41 -67 -74q-52 -178 -264 -295t-492 -117q-283 0 -502 122t-254 296q-4 21 -72 70q-16 12 0 22v0
q5 19 21 9l24 -17l-63 -2q51 39 63 51q27 27 50 74q77 156 277 252t456 96t459.5 -97t273.5 -253q27 -59 98 -113zM1040 471q29 18 84 90q-39 98 -137 160.5t-223 62.5t-224.5 -62.5t-136.5 -158.5q11 -37 84 -92q-71 -39 -96 -76q29 -110 132.5 -184t240.5 -74
q135 0 239.5 74t131.5 186q-25 35 -95 74zM1322 762q-54 0 -92.5 38t-38.5 91q0 55 38.5 93t92.5 38q55 0 93 -38t38 -93q0 -53 -38 -91t-93 -38z" />
    <glyph glyph-name="uni1EE2" unicode="&#x1ee2;" 
d="M1581 465l-4 12q2 0 6 -4q12 -10 0 -18q-57 -41 -67 -74q-52 -176 -264 -292t-492 -116q-283 0 -502 121t-254 295q-4 21 -72 68q-16 12 0 22v0q5 19 21 8l24 -16l-63 -2q51 37 63 51q27 27 50 72q77 156 277 251t456 95t459.5 -97.5t273.5 -250.5q27 -58 98 -111z
M1040 467q29 18 84 90q-39 96 -137 158.5t-223 62.5t-224.5 -62.5t-136.5 -158.5q11 -35 84 -90q-71 -39 -96 -76q29 -110 132.5 -183t240.5 -73q135 0 239.5 74t131.5 184q-25 35 -95 74zM753 -314q-54 0 -92.5 38t-38.5 91q0 55 38.5 93t92.5 38q55 0 93 -38t38 -93
q0 -53 -38 -91t-93 -38zM1322 762q-54 0 -92.5 38t-38.5 91q0 55 38.5 93t92.5 38q55 0 93 -38t38 -93q0 -53 -38 -91t-93 -38z" />
    <glyph glyph-name="uni1EE3" unicode="&#x1ee3;" 
d="M1581 465l-4 12q2 0 6 -4q12 -10 0 -18q-57 -41 -67 -74q-52 -176 -264 -292t-492 -116q-283 0 -502 121t-254 295q-4 21 -72 68q-16 12 0 22v0q5 19 21 8l24 -16l-63 -2q51 37 63 51q27 27 50 72q77 156 277 251t456 95t459.5 -97.5t273.5 -250.5q27 -58 98 -111z
M1040 467q29 18 84 90q-39 96 -137 158.5t-223 62.5t-224.5 -62.5t-136.5 -158.5q11 -35 84 -90q-71 -39 -96 -76q29 -110 132.5 -183t240.5 -73q135 0 239.5 74t131.5 184q-25 35 -95 74zM753 -314q-54 0 -92.5 38t-38.5 91q0 55 38.5 93t92.5 38q55 0 93 -38t38 -93
q0 -53 -38 -91t-93 -38zM1322 762q-54 0 -92.5 38t-38.5 91q0 55 38.5 93t92.5 38q55 0 93 -38t38 -93q0 -53 -38 -91t-93 -38z" />
    <glyph glyph-name="uni1EE4" unicode="&#x1ee4;" 
d="M1288 700v-131q12 -53 88 -100q-69 -45 -88 -96v-84q0 -35 -49 -99q-63 -79 -164 -131q-131 -67 -299 -67q-221 0 -368 69q-111 52 -170 134q-41 55 -41 88v90q-17 53 -88 98q75 47 88 98v131q-17 43 -107 43q-39 0 -90 -10v162q68 16 141 16q115 0 217 -34
q105 36 217 36q76 0 140 -18v-162q-51 10 -90 10q-90 0 -107 -43v-133q12 -51 88 -98q-69 -45 -88 -96v-92q0 -17 66 -54q88 -53 219 -53q119 0 217 57q90 52 90 103v39q-16 51 -90 98q78 47 90 100v129q-18 43 -106 43q-39 0 -91 -10v162q56 18 117 18q90 0 168 -34
q78 34 168 34q61 0 119 -18v-162q-51 10 -90 10q-90 0 -107 -43zM791 -314q-54 0 -92.5 38t-38.5 91q0 55 38.5 93t92.5 38q55 0 93 -38t38 -93q0 -53 -38 -91t-93 -38z" />
    <glyph glyph-name="uni1EE5" unicode="&#x1ee5;" 
d="M1288 700v-131q12 -53 88 -100q-69 -45 -88 -96v-84q0 -35 -49 -99q-63 -79 -164 -131q-131 -67 -299 -67q-221 0 -368 69q-111 52 -170 134q-41 55 -41 88v90q-17 53 -88 98q75 47 88 98v131q-17 43 -107 43q-39 0 -90 -10v162q68 16 141 16q115 0 217 -34
q105 36 217 36q76 0 140 -18v-162q-51 10 -90 10q-90 0 -107 -43v-133q12 -51 88 -98q-69 -45 -88 -96v-92q0 -17 66 -54q88 -53 219 -53q119 0 217 57q90 52 90 103v39q-16 51 -90 98q78 47 90 100v129q-18 43 -106 43q-39 0 -91 -10v162q56 18 117 18q90 0 168 -34
q78 34 168 34q61 0 119 -18v-162q-51 10 -90 10q-90 0 -107 -43zM791 -314q-54 0 -92.5 38t-38.5 91q0 55 38.5 93t92.5 38q55 0 93 -38t38 -93q0 -53 -38 -91t-93 -38z" />
    <glyph glyph-name="uni1EE6" unicode="&#x1ee6;" 
d="M1288 700v-131q12 -53 88 -100q-69 -45 -88 -96v-84q0 -35 -49 -99q-63 -79 -164 -131q-131 -67 -299 -67q-221 0 -368 69q-111 52 -170 134q-41 55 -41 88v90q-17 53 -88 98q75 47 88 98v131q-17 43 -107 43q-39 0 -90 -10v162q68 16 141 16q115 0 217 -34
q105 36 217 36q76 0 140 -18v-162q-51 10 -90 10q-90 0 -107 -43v-133q12 -51 88 -98q-69 -45 -88 -96v-92q0 -17 66 -54q88 -53 219 -53q119 0 217 57q90 52 90 103v39q-16 51 -90 98q78 47 90 100v129q-18 43 -106 43q-39 0 -91 -10v162q56 18 117 18q90 0 168 -34
q78 34 168 34q61 0 119 -18v-162q-51 10 -90 10q-90 0 -107 -43zM851 1001q-18 -4 -18 -14v-24h-170q0 32 1 39q1 15 6 28q17 40 71 56q43 13 102 22q60 10 62 10q21 6 21 17q0 12 -33 20t-52 8q-46 0 -82 -24v-39h-159v140q103 3 123 -7q46 13 135 13q97 0 153 -24
q101 -42 101 -101q0 -34 -32 -55q-47 -29 -117 -45q-56 -11 -112 -20z" />
    <glyph glyph-name="uni1EE7" unicode="&#x1ee7;" 
d="M1288 700v-131q12 -53 88 -100q-69 -45 -88 -96v-84q0 -35 -49 -99q-63 -79 -164 -131q-131 -67 -299 -67q-221 0 -368 69q-111 52 -170 134q-41 55 -41 88v90q-17 53 -88 98q75 47 88 98v131q-17 43 -107 43q-39 0 -90 -10v162q68 16 141 16q115 0 217 -34
q105 36 217 36q76 0 140 -18v-162q-51 10 -90 10q-90 0 -107 -43v-133q12 -51 88 -98q-69 -45 -88 -96v-92q0 -17 66 -54q88 -53 219 -53q119 0 217 57q90 52 90 103v39q-16 51 -90 98q78 47 90 100v129q-18 43 -106 43q-39 0 -91 -10v162q56 18 117 18q90 0 168 -34
q78 34 168 34q61 0 119 -18v-162q-51 10 -90 10q-90 0 -107 -43zM851 1001q-18 -4 -18 -14v-24h-170q0 32 1 39q1 15 6 28q17 40 71 56q43 13 102 22q60 10 62 10q21 6 21 17q0 12 -33 20t-52 8q-46 0 -82 -24v-39h-159v140q103 3 123 -7q46 13 135 13q97 0 153 -24
q101 -42 101 -101q0 -34 -32 -55q-47 -29 -117 -45q-56 -11 -112 -20z" />
    <glyph glyph-name="uni1EE8" unicode="&#x1ee8;" 
d="M784 985l-114 84l260 227l168 -143zM1284 767q5 -26 5 -56q-1 -1 -1 -2v-134q12 -53 88 -100q-69 -45 -88 -98v-84q0 -35 -49 -98q-63 -84 -164 -136q-131 -67 -299 -67q-221 0 -368 69q-111 54 -170 136q-41 57 -41 88v92q-17 53 -88 98q75 49 88 100v134
q-17 43 -107 43q-39 0 -90 -11v164q68 17 141 17q115 0 217 -35q105 35 217 35q76 0 140 -17v-164q-51 11 -90 11q-90 0 -107 -43v-134q12 -53 88 -100q-69 -45 -88 -98v-92q0 -17 66 -56q88 -53 219 -53q119 0 217 57q90 54 90 103v41q-16 53 -90 98q78 49 90 103v131
q-18 43 -109 43q-36 0 -88 -11v162q56 21 117 21q86 0 161 -34v1q0 55 38.5 93t92.5 38q55 0 93 -38t38 -93q0 -53 -38 -91t-93 -38q-20 0 -38 5z" />
    <glyph glyph-name="uni1EE9" unicode="&#x1ee9;" 
d="M784 985l-114 84l260 227l168 -143zM1284 767q5 -26 5 -56q-1 -1 -1 -2v-134q12 -53 88 -100q-69 -45 -88 -98v-84q0 -35 -49 -98q-63 -84 -164 -136q-131 -67 -299 -67q-221 0 -368 69q-111 54 -170 136q-41 57 -41 88v92q-17 53 -88 98q75 49 88 100v134
q-17 43 -107 43q-39 0 -90 -11v164q68 17 141 17q115 0 217 -35q105 35 217 35q76 0 140 -17v-164q-51 11 -90 11q-90 0 -107 -43v-134q12 -53 88 -100q-69 -45 -88 -98v-92q0 -17 66 -56q88 -53 219 -53q119 0 217 57q90 54 90 103v41q-16 53 -90 98q78 49 90 103v131
q-18 43 -109 43q-36 0 -88 -11v162q56 21 117 21q86 0 161 -34v1q0 55 38.5 93t92.5 38q55 0 93 -38t38 -93q0 -53 -38 -91t-93 -38q-20 0 -38 5z" />
    <glyph glyph-name="uni1EEA" unicode="&#x1eea;" 
d="M840 967l-332 163l199 140l258 -226zM1284 767q5 -26 5 -56q-1 -1 -1 -2v-134q12 -53 88 -100q-69 -45 -88 -98v-84q0 -35 -49 -98q-63 -84 -164 -136q-131 -67 -299 -67q-221 0 -368 69q-111 54 -170 136q-41 57 -41 88v92q-17 53 -88 98q75 49 88 100v134
q-17 43 -107 43q-39 0 -90 -11v164q68 17 141 17q115 0 217 -35q105 35 217 35q76 0 140 -17v-164q-51 11 -90 11q-90 0 -107 -43v-134q12 -53 88 -100q-69 -45 -88 -98v-92q0 -17 66 -56q88 -53 219 -53q119 0 217 57q90 54 90 103v41q-16 53 -90 98q78 49 90 103v131
q-18 43 -109 43q-36 0 -88 -11v162q56 21 117 21q86 0 161 -34v1q0 55 38.5 93t92.5 38q55 0 93 -38t38 -93q0 -53 -38 -91t-93 -38q-20 0 -38 5z" />
    <glyph glyph-name="uni1EEB" unicode="&#x1eeb;" 
d="M840 967l-332 163l199 140l258 -226zM1284 767q5 -26 5 -56q-1 -1 -1 -2v-134q12 -53 88 -100q-69 -45 -88 -98v-84q0 -35 -49 -98q-63 -84 -164 -136q-131 -67 -299 -67q-221 0 -368 69q-111 54 -170 136q-41 57 -41 88v92q-17 53 -88 98q75 49 88 100v134
q-17 43 -107 43q-39 0 -90 -11v164q68 17 141 17q115 0 217 -35q105 35 217 35q76 0 140 -17v-164q-51 11 -90 11q-90 0 -107 -43v-134q12 -53 88 -100q-69 -45 -88 -98v-92q0 -17 66 -56q88 -53 219 -53q119 0 217 57q90 54 90 103v41q-16 53 -90 98q78 49 90 103v131
q-18 43 -109 43q-36 0 -88 -11v162q56 21 117 21q86 0 161 -34v1q0 55 38.5 93t92.5 38q55 0 93 -38t38 -93q0 -53 -38 -91t-93 -38q-20 0 -38 5z" />
    <glyph glyph-name="uni1EEC" unicode="&#x1eec;" 
d="M851 1001q-18 -4 -18 -14v-24h-170q0 32 1 39q1 15 6 28q17 40 71 56q43 13 102 22q60 10 62 10q21 6 21 17q0 12 -33 20t-52 8q-46 0 -82 -24v-39h-159v140q103 3 123 -7q46 13 135 13q97 0 153 -24q101 -42 101 -101q0 -34 -32 -55q-47 -29 -117 -45q-56 -11 -112 -20z
M1284 767q5 -26 5 -56q-1 -1 -1 -2v-134q12 -53 88 -100q-69 -45 -88 -98v-84q0 -35 -49 -98q-63 -84 -164 -136q-131 -67 -299 -67q-221 0 -368 69q-111 54 -170 136q-41 57 -41 88v92q-17 53 -88 98q75 49 88 100v134q-17 43 -107 43q-39 0 -90 -11v164q68 17 141 17
q115 0 217 -35q105 35 217 35q76 0 140 -17v-164q-51 11 -90 11q-90 0 -107 -43v-134q12 -53 88 -100q-69 -45 -88 -98v-92q0 -17 66 -56q88 -53 219 -53q119 0 217 57q90 54 90 103v41q-16 53 -90 98q78 49 90 103v131q-18 43 -109 43q-36 0 -88 -11v162q56 21 117 21
q86 0 161 -34v1q0 55 38.5 93t92.5 38q55 0 93 -38t38 -93q0 -53 -38 -91t-93 -38q-20 0 -38 5z" />
    <glyph glyph-name="uni1EED" unicode="&#x1eed;" 
d="M851 1001q-18 -4 -18 -14v-24h-170q0 32 1 39q1 15 6 28q17 40 71 56q43 13 102 22q60 10 62 10q21 6 21 17q0 12 -33 20t-52 8q-46 0 -82 -24v-39h-159v140q103 3 123 -7q46 13 135 13q97 0 153 -24q101 -42 101 -101q0 -34 -32 -55q-47 -29 -117 -45q-56 -11 -112 -20z
M1284 767q5 -26 5 -56q-1 -1 -1 -2v-134q12 -53 88 -100q-69 -45 -88 -98v-84q0 -35 -49 -98q-63 -84 -164 -136q-131 -67 -299 -67q-221 0 -368 69q-111 54 -170 136q-41 57 -41 88v92q-17 53 -88 98q75 49 88 100v134q-17 43 -107 43q-39 0 -90 -11v164q68 17 141 17
q115 0 217 -35q105 35 217 35q76 0 140 -17v-164q-51 11 -90 11q-90 0 -107 -43v-134q12 -53 88 -100q-69 -45 -88 -98v-92q0 -17 66 -56q88 -53 219 -53q119 0 217 57q90 54 90 103v41q-16 53 -90 98q78 49 90 103v131q-18 43 -109 43q-36 0 -88 -11v162q56 21 117 21
q86 0 161 -34v1q0 55 38.5 93t92.5 38q55 0 93 -38t38 -93q0 -53 -38 -91t-93 -38q-20 0 -38 5z" />
    <glyph glyph-name="uni1EEE" unicode="&#x1eee;" 
d="M811 1038q-20 9 -49 9q-67 0 -164 -46v183q86 33 166 33q37 0 99.5 -17.5t97.5 -17.5q82 0 147 55v-193q-74 -43 -137 -43t-160 37zM1284 767q5 -26 5 -56q-1 -1 -1 -2v-134q12 -53 88 -100q-69 -45 -88 -98v-84q0 -35 -49 -98q-63 -84 -164 -136q-131 -67 -299 -67
q-221 0 -368 69q-111 54 -170 136q-41 57 -41 88v92q-17 53 -88 98q75 49 88 100v134q-17 43 -107 43q-39 0 -90 -11v164q68 17 141 17q115 0 217 -35q105 35 217 35q76 0 140 -17v-164q-51 11 -90 11q-90 0 -107 -43v-134q12 -53 88 -100q-69 -45 -88 -98v-92q0 -17 66 -56
q88 -53 219 -53q119 0 217 57q90 54 90 103v41q-16 53 -90 98q78 49 90 103v131q-18 43 -109 43q-36 0 -88 -11v162q56 21 117 21q86 0 161 -34v1q0 55 38.5 93t92.5 38q55 0 93 -38t38 -93q0 -53 -38 -91t-93 -38q-20 0 -38 5z" />
    <glyph glyph-name="uni1EEF" unicode="&#x1eef;" 
d="M811 1038q-20 9 -49 9q-67 0 -164 -46v183q86 33 166 33q37 0 99.5 -17.5t97.5 -17.5q82 0 147 55v-193q-74 -43 -137 -43t-160 37zM1284 767q5 -26 5 -56q-1 -1 -1 -2v-134q12 -53 88 -100q-69 -45 -88 -98v-84q0 -35 -49 -98q-63 -84 -164 -136q-131 -67 -299 -67
q-221 0 -368 69q-111 54 -170 136q-41 57 -41 88v92q-17 53 -88 98q75 49 88 100v134q-17 43 -107 43q-39 0 -90 -11v164q68 17 141 17q115 0 217 -35q105 35 217 35q76 0 140 -17v-164q-51 11 -90 11q-90 0 -107 -43v-134q12 -53 88 -100q-69 -45 -88 -98v-92q0 -17 66 -56
q88 -53 219 -53q119 0 217 57q90 54 90 103v41q-16 53 -90 98q78 49 90 103v131q-18 43 -109 43q-36 0 -88 -11v162q56 21 117 21q86 0 161 -34v1q0 55 38.5 93t92.5 38q55 0 93 -38t38 -93q0 -53 -38 -91t-93 -38q-20 0 -38 5z" />
    <glyph glyph-name="uni1EF0" unicode="&#x1ef0;" 
d="M791 -314q-54 0 -92.5 38t-38.5 91q0 55 38.5 93t92.5 38q55 0 93 -38t38 -93q0 -53 -38 -91t-93 -38zM1284 767q5 -26 5 -56q-1 -1 -1 -2v-134q12 -53 88 -100q-69 -45 -88 -98v-84q0 -35 -49 -98q-63 -84 -164 -136q-131 -67 -299 -67q-221 0 -368 69q-111 54 -170 136
q-41 57 -41 88v92q-17 53 -88 98q75 49 88 100v134q-17 43 -107 43q-39 0 -90 -11v164q68 17 141 17q115 0 217 -35q105 35 217 35q76 0 140 -17v-164q-51 11 -90 11q-90 0 -107 -43v-134q12 -53 88 -100q-69 -45 -88 -98v-92q0 -17 66 -56q88 -53 219 -53q119 0 217 57
q90 54 90 103v41q-16 53 -90 98q78 49 90 103v131q-18 43 -109 43q-36 0 -88 -11v162q56 21 117 21q86 0 161 -34v1q0 55 38.5 93t92.5 38q55 0 93 -38t38 -93q0 -53 -38 -91t-93 -38q-20 0 -38 5z" />
    <glyph glyph-name="uni1EF1" unicode="&#x1ef1;" 
d="M791 -314q-54 0 -92.5 38t-38.5 91q0 55 38.5 93t92.5 38q55 0 93 -38t38 -93q0 -53 -38 -91t-93 -38zM1284 767q5 -26 5 -56q-1 -1 -1 -2v-134q12 -53 88 -100q-69 -45 -88 -98v-84q0 -35 -49 -98q-63 -84 -164 -136q-131 -67 -299 -67q-221 0 -368 69q-111 54 -170 136
q-41 57 -41 88v92q-17 53 -88 98q75 49 88 100v134q-17 43 -107 43q-39 0 -90 -11v164q68 17 141 17q115 0 217 -35q105 35 217 35q76 0 140 -17v-164q-51 11 -90 11q-90 0 -107 -43v-134q12 -53 88 -100q-69 -45 -88 -98v-92q0 -17 66 -56q88 -53 219 -53q119 0 217 57
q90 54 90 103v41q-16 53 -90 98q78 49 90 103v131q-18 43 -109 43q-36 0 -88 -11v162q56 21 117 21q86 0 161 -34v1q0 55 38.5 93t92.5 38q55 0 93 -38t38 -93q0 -53 -38 -91t-93 -38q-20 0 -38 5z" />
    <glyph glyph-name="Ygrave" unicode="&#x1ef2;" horiz-adv-x="1538" 
d="M1260 707l-218 -168q-12 -27 31 -68q10 -10 23 -18q-97 -2 -203 -31l-6 -4v-205q16 -41 106 -41q39 0 90 8v-162q-79 -16 -155 -16q-117 0 -203 35q-84 -35 -201 -35q-75 0 -155 16v162q51 -8 90 -8q88 0 106 41v154l-61 53q-98 33 -193 35q70 53 54 92q-52 51 -160 143
q-68 49 -142 49q-30 0 -63 -6v162q61 16 131 16q111 0 211 -39q84 41 211 41q78 0 162 -18v-166q-58 23 -105 23q-24 0 -47 -9l209 -186l227 178q-43 21 -129 -4v164q80 18 148 18q98 0 158 -34q67 34 149 34q59 0 117 -18v-166q-37 12 -76 12q-61 0 -106 -34zM760 1001
l-334 164l199 142l260 -228z" />
    <glyph glyph-name="ygrave" unicode="&#x1ef3;" horiz-adv-x="1538" 
d="M1260 707l-218 -168q-12 -27 31 -68q10 -10 23 -18q-97 -2 -203 -31l-6 -4v-205q16 -41 106 -41q39 0 90 8v-162q-79 -16 -155 -16q-117 0 -203 35q-84 -35 -201 -35q-75 0 -155 16v162q51 -8 90 -8q88 0 106 41v154l-61 53q-98 33 -193 35q70 53 54 92q-52 51 -160 143
q-68 49 -142 49q-30 0 -63 -6v162q61 16 131 16q111 0 211 -39q84 41 211 41q78 0 162 -18v-166q-58 23 -105 23q-24 0 -47 -9l209 -186l227 178q-43 21 -129 -4v164q80 18 148 18q98 0 158 -34q67 34 149 34q59 0 117 -18v-166q-37 12 -76 12q-61 0 -106 -34zM760 1001
l-334 164l199 142l260 -228z" />
    <glyph glyph-name="uni1EF4" unicode="&#x1ef4;" horiz-adv-x="1538" 
d="M1260 707l-218 -168q-12 -27 31 -68q10 -10 23 -18q-97 -2 -203 -31l-6 -4v-205q16 -41 106 -41q39 0 90 8v-162q-79 -16 -155 -16q-117 0 -203 35q-84 -35 -201 -35q-75 0 -155 16v162q51 -8 90 -8q88 0 106 41v154l-61 53q-98 33 -193 35q70 53 54 92q-52 51 -160 143
q-68 49 -142 49q-30 0 -63 -6v162q61 16 131 16q111 0 211 -39q84 41 211 41q78 0 162 -18v-166q-58 23 -105 23q-24 0 -47 -9l209 -186l227 178q-43 21 -129 -4v164q80 18 148 18q98 0 158 -34q67 34 149 34q59 0 117 -18v-166q-37 12 -76 12q-61 0 -106 -34zM733 -314
q-54 0 -92.5 38t-38.5 91q0 55 38.5 93t92.5 38q55 0 93 -38t38 -93q0 -53 -38 -91t-93 -38z" />
    <glyph glyph-name="uni1EF5" unicode="&#x1ef5;" horiz-adv-x="1538" 
d="M1260 707l-218 -168q-12 -27 31 -68q10 -10 23 -18q-97 -2 -203 -31l-6 -4v-205q16 -41 106 -41q39 0 90 8v-162q-79 -16 -155 -16q-117 0 -203 35q-84 -35 -201 -35q-75 0 -155 16v162q51 -8 90 -8q88 0 106 41v154l-61 53q-98 33 -193 35q70 53 54 92q-52 51 -160 143
q-68 49 -142 49q-30 0 -63 -6v162q61 16 131 16q111 0 211 -39q84 41 211 41q78 0 162 -18v-166q-58 23 -105 23q-24 0 -47 -9l209 -186l227 178q-43 21 -129 -4v164q80 18 148 18q98 0 158 -34q67 34 149 34q59 0 117 -18v-166q-37 12 -76 12q-61 0 -106 -34zM733 -314
q-54 0 -92.5 38t-38.5 91q0 55 38.5 93t92.5 38q55 0 93 -38t38 -93q0 -53 -38 -91t-93 -38z" />
    <glyph glyph-name="uni1EF6" unicode="&#x1ef6;" horiz-adv-x="1538" 
d="M1260 707l-218 -168q-12 -27 31 -68q10 -10 23 -18q-97 -2 -203 -31l-6 -4v-205q16 -41 106 -41q39 0 90 8v-162q-79 -16 -155 -16q-117 0 -203 35q-84 -35 -201 -35q-75 0 -155 16v162q51 -8 90 -8q88 0 106 41v154l-61 53q-98 33 -193 35q70 53 54 92q-52 51 -160 143
q-68 49 -142 49q-30 0 -63 -6v162q61 16 131 16q111 0 211 -39q84 41 211 41q78 0 162 -18v-166q-58 23 -105 23q-24 0 -47 -9l209 -186l227 178q-43 21 -129 -4v164q80 18 148 18q98 0 158 -34q67 34 149 34q59 0 117 -18v-166q-37 12 -76 12q-61 0 -106 -34zM840 1001
q-18 -4 -18 -14v-24h-170q0 32 1 39q1 15 6 28q17 40 71 56q43 13 102 22q60 10 62 10q21 6 21 17q0 12 -33 20t-52 8q-46 0 -82 -24v-39h-159v140q103 3 123 -7q46 13 135 13q97 0 153 -24q101 -42 101 -101q0 -34 -32 -55q-47 -29 -117 -45q-56 -11 -112 -20z" />
    <glyph glyph-name="uni1EF7" unicode="&#x1ef7;" horiz-adv-x="1538" 
d="M1260 707l-218 -168q-12 -27 31 -68q10 -10 23 -18q-97 -2 -203 -31l-6 -4v-205q16 -41 106 -41q39 0 90 8v-162q-79 -16 -155 -16q-117 0 -203 35q-84 -35 -201 -35q-75 0 -155 16v162q51 -8 90 -8q88 0 106 41v154l-61 53q-98 33 -193 35q70 53 54 92q-52 51 -160 143
q-68 49 -142 49q-30 0 -63 -6v162q61 16 131 16q111 0 211 -39q84 41 211 41q78 0 162 -18v-166q-58 23 -105 23q-24 0 -47 -9l209 -186l227 178q-43 21 -129 -4v164q80 18 148 18q98 0 158 -34q67 34 149 34q59 0 117 -18v-166q-37 12 -76 12q-61 0 -106 -34zM840 1001
q-18 -4 -18 -14v-24h-170q0 32 1 39q1 15 6 28q17 40 71 56q43 13 102 22q60 10 62 10q21 6 21 17q0 12 -33 20t-52 8q-46 0 -82 -24v-39h-159v140q103 3 123 -7q46 13 135 13q97 0 153 -24q101 -42 101 -101q0 -34 -32 -55q-47 -29 -117 -45q-56 -11 -112 -20z" />
    <glyph glyph-name="uni1EF8" unicode="&#x1ef8;" horiz-adv-x="1538" 
d="M1260 707l-218 -168q-12 -27 31 -68q10 -10 23 -18q-97 -2 -203 -31l-6 -4v-205q16 -41 106 -41q39 0 90 8v-162q-79 -16 -155 -16q-117 0 -203 35q-84 -35 -201 -35q-75 0 -155 16v162q51 -8 90 -8q88 0 106 41v154l-61 53q-98 33 -193 35q70 53 54 92q-52 51 -160 143
q-68 49 -142 49q-30 0 -63 -6v162q61 16 131 16q111 0 211 -39q84 41 211 41q78 0 162 -18v-166q-58 23 -105 23q-24 0 -47 -9l209 -186l227 178q-43 21 -129 -4v164q80 18 148 18q98 0 158 -34q67 34 149 34q59 0 117 -18v-166q-37 12 -76 12q-61 0 -106 -34zM735 1038
q-20 9 -49 9q-67 0 -164 -46v183q86 33 166 33q37 0 99.5 -17.5t97.5 -17.5q82 0 147 55v-193q-74 -43 -137 -43t-160 37z" />
    <glyph glyph-name="uni1EF9" unicode="&#x1ef9;" horiz-adv-x="1538" 
d="M1260 707l-218 -168q-12 -27 31 -68q10 -10 23 -18q-97 -2 -203 -31l-6 -4v-205q16 -41 106 -41q39 0 90 8v-162q-79 -16 -155 -16q-117 0 -203 35q-84 -35 -201 -35q-75 0 -155 16v162q51 -8 90 -8q88 0 106 41v154l-61 53q-98 33 -193 35q70 53 54 92q-52 51 -160 143
q-68 49 -142 49q-30 0 -63 -6v162q61 16 131 16q111 0 211 -39q84 41 211 41q78 0 162 -18v-166q-58 23 -105 23q-24 0 -47 -9l209 -186l227 178q-43 21 -129 -4v164q80 18 148 18q98 0 158 -34q67 34 149 34q59 0 117 -18v-166q-37 12 -76 12q-61 0 -106 -34zM735 1038
q-20 9 -49 9q-67 0 -164 -46v183q86 33 166 33q37 0 99.5 -17.5t97.5 -17.5q82 0 147 55v-193q-74 -43 -137 -43t-160 37z" />
    <glyph glyph-name="quoteleft" unicode="&#x2018;" horiz-adv-x="401" 
d="M0 573v172l61 170h156l-16 -129h104v-213h-305z" />
    <glyph glyph-name="quoteright" unicode="&#x2019;" horiz-adv-x="401" 
d="M244 573h-156l14 129h-102v213h305v-172z" />
    <glyph glyph-name="quotedblleft" unicode="&#x201c;" horiz-adv-x="770" 
d="M350 573v172l66 170h164l-17 -129h111v-213h-324zM0 573v172l66 170h165l-16 -129h109v-213h-324z" />
    <glyph glyph-name="quotedblright" unicode="&#x201d;" horiz-adv-x="770" 
d="M608 573h-166l17 129h-109v213h324v-172zM258 573h-164l15 129h-109v213h324v-172z" />
    <glyph glyph-name="ellipsis" unicode="&#x2026;" horiz-adv-x="1284" 
d="M0 0v201h305v-201h-305zM434 0v200h305v-200h-305zM877 -1v201h305v-201h-305z" />
    <glyph glyph-name="ugrave" horiz-adv-x="582" 
 />
    <glyph glyph-name="uacute" horiz-adv-x="580" 
 />
    <glyph glyph-name="yacute" horiz-adv-x="629" 
 />
  </font>
</defs>
</svg>
